<?xml version="1.0" encoding="utf-8"?>
<!-- Generator: Adobe Illustrator 21.0.2, SVG Export Plug-In . SVG Version: 6.00 Build 0)  -->
<svg version="1.1" id="Layer_1" xmlns="http://www.w3.org/2000/svg" xmlns:xlink="http://www.w3.org/1999/xlink" x="0px" y="0px"
	 viewBox="0 0 155 55" style="enable-background:new 0 0 155 55;" xml:space="preserve">
<style type="text/css">
	.st0{fill:#2C4F71;}
	.st1{fill:#00AEEF;}
	.st2{fill:#2A5072;}
</style>
<g>
	<g>
		<g>
			<g>
				<polygon class="st0" points="4.7,20.7 18,20.7 18,16.6 4.7,16.6 4.7,9.2 11.8,9.2 4.9,4.8 0,4.8 0,32.6 20,32.6 20,28.2 
					4.7,28.2 				"/>
			</g>
			<polygon id="XMLID_5_" class="st1" points="8.7,4.8 19.5,4.8 19.5,11.7 			"/>
		</g>
		<g>
			<path class="st0" d="M43.6,20v12.6h-4.4V21.3c0-3-1.8-4.9-4.9-4.9c-3.4,0-5.5,2.4-5.8,5.5v10.8h-4.4V12.4h4.4v3.9
				c1.4-2.8,4-4,7.5-4C40.8,12.2,43.6,15.2,43.6,20z"/>
		</g>
	</g>
	<g>
		<path class="st0" d="M58.8,12.2c2.7,0,5,0.9,7,2.8c1.9,1.9,2.9,4.4,2.9,7.5c0,3.1-1,5.6-2.9,7.6c-1.9,2-4.1,2.9-6.7,2.9
			s-4.8-1.1-6.9-3.3v3H48V4.5h4.3V16C53.9,13.4,56.1,12.2,58.8,12.2z M52.1,22.6c0,1.9,0.6,3.5,1.7,4.7c1.2,1.2,2.6,1.8,4.3,1.8
			c1.7,0,3.1-0.6,4.4-1.8c1.2-1.2,1.9-2.8,1.9-4.7c0-1.9-0.6-3.5-1.8-4.8c-1.2-1.3-2.7-1.9-4.4-1.9c-1.7,0-3.1,0.6-4.3,1.9
			C52.7,19.1,52.1,20.7,52.1,22.6z"/>
		<path class="st0" d="M90.4,30c-2,2-4.6,3-7.6,3c-3,0-5.6-1-7.6-3c-2-2-3-4.5-3-7.4c0-2.9,1-5.4,3-7.4c2-2,4.6-3,7.6-3
			c3,0,5.6,1,7.6,3c2,2,3,4.5,3,7.4C93.4,25.5,92.4,27.9,90.4,30z M78.2,27.3c1.2,1.2,2.7,1.8,4.6,1.8c1.8,0,3.4-0.6,4.6-1.8
			c1.2-1.2,1.8-2.8,1.8-4.8c0-1.9-0.6-3.5-1.8-4.8c-1.2-1.2-2.7-1.8-4.6-1.8c-1.8,0-3.4,0.6-4.6,1.8c-1.2,1.2-1.8,2.8-1.8,4.8
			C76.4,24.5,77,26.1,78.2,27.3z"/>
		<path class="st0" d="M114.6,32.7h-3.9V30c-1.7,2-3.9,3-6.7,3c-2.1,0-3.8-0.6-5.2-1.8c-1.4-1.2-2.1-2.8-2.1-4.8
			c0-2,0.7-3.5,2.2-4.5c1.5-1,3.5-1.5,6-1.5h5.5v-0.8c0-2.7-1.5-4-4.5-4c-1.9,0-3.8,0.7-5.8,2.1l-1.9-2.7c2.5-1.9,5.2-2.9,8.4-2.9
			c2.4,0,4.3,0.6,5.8,1.8c1.5,1.2,2.3,3.1,2.3,5.7V32.7z M110.4,25.1v-1.7h-4.8c-3.1,0-4.6,1-4.6,2.9c0,1,0.4,1.7,1.1,2.3
			c0.8,0.5,1.8,0.8,3.2,0.8c1.4,0,2.5-0.4,3.6-1.1C109.9,27.5,110.4,26.4,110.4,25.1z"/>
		<path class="st0" d="M131.1,16.5c-2.1,0-3.7,0.7-4.7,2.1c-1.1,1.4-1.6,3.2-1.6,5.5v8.7h-4.3V12.5h4.3v4.1c0.7-1.3,1.6-2.3,2.8-3.1
			c1.2-0.8,2.4-1.2,3.7-1.3l0,4.3C131.3,16.5,131.2,16.5,131.1,16.5z"/>
		<path class="st0" d="M137.2,30.1c-1.9-1.9-2.8-4.5-2.8-7.6c0-3.1,1-5.6,2.9-7.5c1.9-1.9,4.3-2.8,7-2.8c2.7,0,4.9,1.1,6.5,3.4V4.5
			h4.3v28.2h-4.3v-3c-1.6,2.2-3.9,3.3-6.9,3.3C141.3,33,139.1,32,137.2,30.1z M138.6,22.7c0,1.9,0.6,3.5,1.9,4.7
			c1.2,1.2,2.7,1.8,4.4,1.8c1.7,0,3.1-0.6,4.3-1.8c1.2-1.2,1.7-2.8,1.7-4.7c0-1.9-0.6-3.5-1.7-4.8c-1.2-1.3-2.6-1.9-4.3-1.9
			c-1.7,0-3.2,0.6-4.4,1.9C139.2,19.1,138.6,20.7,138.6,22.7z"/>
	</g>
</g>
<g>
	<path class="st2" d="M4.3,38.8c1.1,0,2,0.4,2.7,1.1s1.1,1.7,1.1,2.9S7.8,45,7,45.8C6.3,46.6,5.4,47,4.4,47c-1,0-1.9-0.4-2.7-1.3
		v1.2H0V35.7h1.7v4.5C2.3,39.3,3.2,38.8,4.3,38.8z M1.6,42.9c0,0.8,0.2,1.4,0.7,1.9c0.5,0.5,1,0.7,1.7,0.7c0.7,0,1.2-0.2,1.7-0.7
		c0.5-0.5,0.7-1.1,0.7-1.9S6.2,41.5,5.7,41c-0.5-0.5-1.1-0.8-1.7-0.8c-0.7,0-1.2,0.3-1.7,0.8C1.9,41.5,1.6,42.1,1.6,42.9z"/>
	<path class="st2" d="M11.1,50c-0.7,0-1.4-0.3-2-0.8l0.8-1.4c0.3,0.3,0.7,0.5,1.1,0.5s0.7-0.1,0.9-0.4c0.2-0.3,0.4-0.6,0.4-0.9
		c0-0.1-1.1-2.9-3.2-8.2h1.8l2.4,5.9l2.4-5.9h1.8l-3.9,9.5c-0.2,0.5-0.6,0.9-1,1.2C12,49.9,11.6,50,11.1,50z"/>
	<path class="st2" d="M26.1,37.8c-0.5,0-0.9,0.1-1.3,0.3c-0.3,0.2-0.5,0.5-0.5,1s0.2,0.7,0.5,1c0.3,0.2,1,0.5,2.1,0.7
		c1.1,0.3,1.9,0.6,2.4,1.1c0.5,0.5,0.8,1.2,0.8,2.1c0,0.9-0.3,1.7-1,2.2c-0.7,0.6-1.6,0.9-2.7,0.9c-1.6,0-3.1-0.6-4.4-1.7l1.1-1.3
		c1.1,0.9,2.2,1.4,3.3,1.4c0.6,0,1-0.1,1.4-0.4s0.5-0.6,0.5-1c0-0.4-0.2-0.7-0.5-0.9c-0.3-0.2-0.9-0.4-1.6-0.6
		c-0.8-0.2-1.4-0.4-1.8-0.5c-0.4-0.2-0.8-0.4-1.1-0.6c-0.6-0.5-0.9-1.2-0.9-2.2s0.4-1.7,1.1-2.2c0.7-0.5,1.6-0.8,2.6-0.8
		c0.7,0,1.3,0.1,2,0.3c0.7,0.2,1.2,0.5,1.7,0.9L29,38.7c-0.3-0.3-0.7-0.5-1.3-0.7S26.7,37.8,26.1,37.8z"/>
	<path class="st2" d="M32.3,37.3c-0.2-0.2-0.3-0.5-0.3-0.7s0.1-0.5,0.3-0.7c0.2-0.2,0.5-0.3,0.7-0.3s0.5,0.1,0.7,0.3
		c0.2,0.2,0.3,0.5,0.3,0.7s-0.1,0.5-0.3,0.7c-0.2,0.2-0.5,0.3-0.7,0.3S32.5,37.5,32.3,37.3z M33.8,46.8h-1.7v-8h1.7V46.8z"/>
	<path class="st2" d="M37.9,46.8h-1.7V35.7h1.7V46.8z"/>
	<path class="st2" d="M40.5,37.3c-0.2-0.2-0.3-0.5-0.3-0.7s0.1-0.5,0.3-0.7c0.2-0.2,0.5-0.3,0.7-0.3s0.5,0.1,0.7,0.3
		c0.2,0.2,0.3,0.5,0.3,0.7s-0.1,0.5-0.3,0.7c-0.2,0.2-0.5,0.3-0.7,0.3S40.7,37.5,40.5,37.3z M42,46.8h-1.7v-8H42V46.8z"/>
	<path class="st2" d="M48,47c-1.1,0-2.1-0.4-2.9-1.1s-1.2-1.7-1.2-3s0.4-2.2,1.2-3c0.8-0.8,1.8-1.1,3-1.1c1.2,0,2.2,0.4,3,1.2
		l-1,1.2c-0.7-0.6-1.4-0.9-2.1-0.9s-1.3,0.2-1.8,0.7s-0.8,1.1-0.8,1.8c0,0.7,0.3,1.4,0.8,1.9s1.1,0.8,1.9,0.8s1.4-0.3,2.1-1l1,1.1
		C50.4,46.5,49.3,47,48,47z"/>
	<path class="st2" d="M58.6,43.2v-4.3h1.7v8h-1.7v-1.5c-0.3,0.5-0.6,0.9-1.1,1.2S56.5,47,56,47c-0.9,0-1.6-0.3-2.2-0.8
		S53,44.8,53,43.8v-4.9h1.7v4.4c0,1.5,0.6,2.2,1.8,2.2c0.6,0,1.1-0.2,1.5-0.6C58.4,44.5,58.6,43.9,58.6,43.2z"/>
	<path class="st2" d="M68.4,44.5c0,0.8-0.3,1.4-0.8,1.8C67,46.7,66.3,47,65.5,47c-0.6,0-1.2-0.1-1.8-0.3c-0.6-0.2-1.2-0.5-1.7-0.9
		l0.8-1.3c0.9,0.7,1.8,1,2.7,1c0.4,0,0.7-0.1,0.9-0.3c0.2-0.2,0.3-0.4,0.3-0.7c0-0.4-0.5-0.8-1.6-1.1c-0.1,0-0.1,0-0.2-0.1
		c-1.7-0.4-2.5-1.2-2.5-2.2c0-0.7,0.3-1.3,0.9-1.8c0.6-0.4,1.3-0.7,2.2-0.7c0.9,0,1.8,0.3,2.6,0.8l-0.6,1.2
		c-0.6-0.4-1.4-0.6-2.1-0.6c-0.4,0-0.7,0.1-1,0.2s-0.4,0.4-0.4,0.7c0,0.3,0.1,0.4,0.4,0.6c0.2,0.1,0.4,0.2,0.8,0.3
		c0.3,0.1,0.6,0.2,0.9,0.2s0.5,0.2,0.7,0.3c0.2,0.1,0.5,0.2,0.8,0.4C68.1,43.1,68.4,43.7,68.4,44.5z"/>
</g>
</svg>
