<?xml version="1.0" encoding="utf-8"?>
<!-- Generator: Adobe Illustrator 21.0.2, SVG Export Plug-In . SVG Version: 6.00 Build 0)  -->
<svg version="1.1" id="Layer_1" xmlns="http://www.w3.org/2000/svg" xmlns:xlink="http://www.w3.org/1999/xlink" x="0px" y="0px"
	 viewBox="0 0 612 612" style="enable-background:new 0 0 612 612;" xml:space="preserve">
<style type="text/css">
	.st0{fill:#034EA2;}
	.st1{fill-rule:evenodd;clip-rule:evenodd;fill:#034EA2;}
	.st2{fill:#034EA2;stroke:#034EA2;stroke-width:5.000000e-02;stroke-miterlimit:10;}
	.st3{fill:#FFFFFF;stroke:#FFFFFF;stroke-miterlimit:10;}
	.st4{fill:#FFFFFF;}
	.st5{fill-rule:evenodd;clip-rule:evenodd;fill:#FFFFFF;}
</style>
<path class="st0" d="M586.5,300.2H466.8c0.1,1.9,0.1,3.9,0.1,5.8c0,88.9-72.1,160.9-160.9,160.9s-160.9-72-160.9-160.9
	s72-160.9,161.6-160.9L306,25.4C151,25.4,25.4,151.1,25.4,306C25.4,461,151,586.6,306,586.6c154.9,0,280.6-125.6,280.6-280.6
	L586.5,300.2z"/>
<path class="st0" d="M306,606C140.6,606,6,471.4,6,306C6,140.6,140.6,6,306,6c165.4,0,300,134.6,300,300
	C606,471.4,471.4,606,306,606z M306,10.2C142.9,10.2,10.2,142.9,10.2,306c0,163.1,132.7,295.8,295.8,295.8
	c163.1,0,295.8-132.7,295.8-295.8C601.8,142.9,469.1,10.2,306,10.2z"/>
<g>
	<g>
		<polygon class="st1" points="226.8,195.1 223.7,208.6 234.2,208.6 226.8,240.6 242.1,240.6 249.9,208.6 270.6,208.6 274.2,195.1 
					"/>
		<path class="st1" d="M257.3,211.6h12.9l-3.7,14.8c0,0-1.2,3.1,2.2,3.1c3.4,0,3.6-2.5,3.6-2.5l3.5-15.5h13l-4.5,21.1
			c0,0-2.6,10.3-18.5,10.3c0,0-15.7-0.4-12.7-13.5L257.3,211.6z"/>
		<polygon class="st1" points="276.9,208.8 289.6,208.8 295.2,240.5 309.7,240.5 332.4,195.2 316,195.2 305.2,221.2 302.9,195.2 
			279.8,195.2 		"/>
		<path class="st1" d="M331.5,240.6h14.3l4.6-19.6c0,0,0.7-3.3,0.7-4.8l6.6,24.3h14.2l11.8-45.3h-14.2l-4.5,18.1
			c0,0-0.9,3.8-0.9,5.6l-6.9-23.8H343L331.5,240.6z"/>
		<path class="st1" d="M402.3,205.2c0,0-7.8-0.9-9.9,18.2c0,0-0.7,6.7,3.5,6.7c4.3,0,8.3-4.9,9.9-18.8
			C405.8,211.3,406.2,205.5,402.3,205.2z M404.7,194.5c14.7-0.2,14.6,14.3,14.6,14.3c-0.1,27.8-20.5,31.9-20.5,31.9
			s-21.6,5.3-19.9-16.5C381.4,193,404.7,194.5,404.7,194.5z"/>
		<path class="st1" d="M436.9,207.3l-1.6,6.8h2.3c0,0,4.2-0.1,4.5-3.9c0.3-3.3-2.5-2.9-2.5-2.9L436.9,207.3z M473.5,207.3l-5.5,21.2
			h2.7c0,0,6.1,0.7,8.6-15.7C479.3,212.8,480.4,207.3,473.5,207.3z M426.2,195.1H444c2.1,0,12.3,2.9,12.3,14.6
			c0,11.7-10.6,13.4-10.6,13.4c3.1,3.3,6,12.7,6,12.7l10.4-40.6h16c14.1,1.3,17.5,11.1,11.8,29.2c-5.7,18.1-23.2,16.2-23.2,16.2h-28
			c0,0-4.9-14.3-5.1-15.2c-0.2-0.9-1-0.9-1-0.9l-3.5,16h-14.5L426.2,195.1z"/>
	</g>
	<path class="st1" d="M455.6,101.6c0,0-48.2-2.2-71,44.4c0,0-1.3,1.4-1.9,0.7c-0.6-0.7-0.4-1.5-0.4-1.5s20.2-48.4,73.2-48.4
		c53.1,0,83.2,46.1,82.1,83.4c0,0-0.3,29-20.2,52.1c0,0-0.6,1.3-1.5,0.4c-0.9-0.9,0-2.1,0-2.1s18.8-19.1,16.9-56.2
		C531.7,150.7,512.4,103.3,455.6,101.6z"/>
</g>
<g>
	<polygon class="st2" points="161.7,308.3 167.6,308.3 167.6,329 170.4,329 170.4,308.3 176.4,308.3 176.4,305.8 161.7,305.8 	"/>
	<rect x="188.6" y="300.4" class="st2" width="3" height="3.3"/>
	<rect x="182.7" y="300.4" class="st2" width="2.9" height="3.3"/>
	<path class="st2" d="M191.7,319.7v0.4c0,2.8-0.2,3.8-0.9,5c-0.7,1.1-1.9,1.8-3.6,1.8c-1.6,0-2.8-0.6-3.6-1.8c-0.7-1.1-1-2.2-1-5
		v-0.5v-14h-2.8v14v0.4c0,3.6,0.3,5.1,1.5,6.8c1.2,1.7,3.1,2.5,6,2.5c2.6,0,4.5-0.8,5.8-2.5c1.1-1.5,1.5-3.1,1.5-6.7v-0.5v-14h-2.9
		V319.7z"/>
	<polygon class="st2" points="206.1,325.7 206.1,325.7 200.2,305.8 197.2,305.8 204.7,329 207.5,329 215,305.8 212.1,305.8 	"/>
	<rect x="228.2" y="305.9" class="st2" width="2.7" height="22.9"/>
	<path class="st2" d="M244,312c-2.4,0-4.1,1.5-4.9,3.1h-0.1l-0.2-2.7h-2.4c0.1,1.4,0.1,2.8,0.1,4.5v12h2.7V319c0-0.5,0.1-1,0.2-1.4
		c0.5-1.7,1.8-3.1,3.6-3.1c2.5,0,3.4,2.2,3.4,4.9v9.5h2.7v-9.8C249.2,313.4,246.1,312,244,312z"/>
	<path class="st2" d="M267.3,304.7h-2.7v9.8h-0.1c-0.7-1.3-2.2-2.5-4.4-2.5c-3.6,0-6.6,3.4-6.6,8.8c0,5,2.7,8.4,6.3,8.4
		c2.4,0,4.2-1.4,5-3.2h0.1l0.1,2.9h2.4c-0.1-1.1-0.1-2.8-0.1-4.3V304.7z M264.7,322c0,0.5,0,0.9-0.1,1.3c-0.5,2.2-2.1,3.6-3.9,3.6
		c-2.9,0-4.4-2.8-4.4-6.1c0-3.6,1.6-6.4,4.4-6.4c2,0,3.5,1.6,3.9,3.5c0.1,0.4,0.1,0.9,0.1,1.3V322z"/>
	<rect x="272.8" y="312.4" class="st2" width="2.7" height="16.5"/>
	<path class="st2" d="M274.1,305.9c-1,0-1.7,0.8-1.7,1.9c0,1,0.7,1.8,1.6,1.8c1.1,0,1.7-0.8,1.7-1.8
		C275.8,306.7,275.1,305.9,274.1,305.9z"/>
	<path class="st2" d="M291.3,318.8c0-3.3-1.1-6.7-5.6-6.7c-1.9,0-3.6,0.6-4.8,1.5l0.6,2c1-0.7,2.5-1.2,3.8-1.2c3,0,3.4,2.5,3.4,3.8
		v0.3c-5.7,0-8.9,2.1-8.9,6.1c0,2.4,1.5,4.7,4.5,4.7c2.1,0,3.7-1.2,4.5-2.5h0.1l0.2,2.1h2.4c-0.2-1.1-0.2-2.5-0.2-3.9V318.8z
		 M288.7,323.3c0,0.3-0.1,0.6-0.2,1c-0.4,1.4-1.6,2.8-3.6,2.8c-1.4,0-2.5-0.9-2.5-2.9c0-3.2,3.3-3.8,6.2-3.7V323.3z"/>
	<path class="st2" d="M309.2,305.8c-2.1,0-3.8,0.2-5.1,0.4v22.7h2.7v-9.2c0.6,0.2,1.3,0.2,2.1,0.2c2.6,0,4.9-0.8,6.3-2.5
		c1-1.2,1.6-2.8,1.6-4.9c0-2-0.7-3.7-1.8-4.8C313.8,306.5,311.9,305.8,309.2,305.8z M309,317.5c-0.9,0-1.6-0.1-2.2-0.2v-8.9
		c0.5-0.1,1.3-0.2,2.5-0.2c2.9,0,4.8,1.5,4.8,4.5C314.2,315.8,312.2,317.5,309,317.5z"/>
	<path class="st2" d="M323.2,315.6h-0.1l-0.1-3.2h-2.3c0.1,1.5,0.1,3.2,0.1,5.1v11.3h2.7v-8.8c0-0.5,0.1-1,0.1-1.4
		c0.4-2.2,1.7-3.8,3.6-3.8c0.4,0,0.6,0,0.9,0.1v-2.8c-0.2-0.1-0.5-0.1-0.8-0.1C325.5,312,323.9,313.4,323.2,315.6z"/>
	<rect x="331.9" y="312.4" class="st2" width="2.7" height="16.5"/>
	<path class="st2" d="M333.2,305.9c-1,0-1.7,0.8-1.7,1.9c0,1,0.7,1.8,1.6,1.8c1.1,0,1.7-0.8,1.7-1.8
		C334.9,306.7,334.2,305.9,333.2,305.9z"/>
	<path class="st2" d="M346.5,321.7c-0.5,1.5-0.9,2.9-1.2,4.2h-0.1c-0.3-1.4-0.7-2.7-1.2-4.2l-2.9-9.3h-2.9l5.6,16.5h2.6l5.8-16.5
		h-2.8L346.5,321.7z"/>
	<path class="st2" d="M365.9,318.8c0-3.3-1.1-6.7-5.6-6.7c-1.9,0-3.6,0.6-4.8,1.5l0.6,2c1-0.7,2.5-1.2,3.8-1.2c3,0,3.4,2.5,3.4,3.8
		v0.3c-5.7,0-8.9,2.1-8.9,6.1c0,2.4,1.5,4.7,4.5,4.7c2.1,0,3.7-1.2,4.5-2.5h0.1l0.2,2.1h2.4c-0.2-1.1-0.2-2.5-0.2-3.9V318.8z
		 M363.3,323.3c0,0.3-0.1,0.6-0.2,1c-0.4,1.4-1.6,2.8-3.6,2.8c-1.4,0-2.5-0.9-2.5-2.9c0-3.2,3.3-3.8,6.2-3.7V323.3z"/>
	<path class="st2" d="M374.3,307.7l-2.6,0.8v3.9h-2.3v2.3h2.3v9c0,1.9,0.3,3.4,1,4.3c0.6,0.8,1.6,1.3,2.9,1.3c1,0,1.9-0.2,2.4-0.4
		l-0.1-2.2c-0.3,0.1-0.9,0.2-1.6,0.2c-1.5,0-2-1.2-2-3.2v-8.9h3.8v-2.3h-3.8V307.7z"/>
	<path class="st2" d="M387.9,312c-4.3,0-6.9,3.9-6.9,8.9c0,5,2.7,8.3,7.3,8.3c2.3,0,4-0.5,4.9-1l-0.5-2.1c-1,0.5-2.2,0.9-4.1,0.9
		c-2.7,0-5-1.7-5.1-5.7h10.4c0-0.3,0.1-0.8,0.1-1.4C394,316.8,392.7,312,387.9,312z M383.5,319.1c0.2-2.1,1.4-4.9,4.1-4.9
		c3,0,3.7,3,3.7,4.9H383.5z"/>
	<polygon class="st2" points="408.5,305.9 405.8,305.9 405.8,328.9 417.3,328.9 417.3,326.4 408.5,326.4 	"/>
	<path class="st2" d="M424.2,307.7l-2.6,0.8v3.9h-2.3v2.3h2.3v9c0,1.9,0.3,3.4,1,4.3c0.6,0.8,1.6,1.3,2.9,1.3c1,0,1.9-0.2,2.4-0.4
		l-0.1-2.2c-0.3,0.1-0.9,0.2-1.6,0.2c-1.5,0-2-1.2-2-3.2v-8.9h3.8v-2.3h-3.8V307.7z"/>
	<path class="st2" d="M444.6,304.7H442v9.8h-0.1c-0.7-1.3-2.2-2.5-4.4-2.5c-3.6,0-6.6,3.4-6.6,8.8c0,5,2.7,8.4,6.3,8.4
		c2.4,0,4.2-1.4,5-3.2h0.1l0.1,2.9h2.4c-0.1-1.1-0.1-2.8-0.1-4.3V304.7z M442,322c0,0.5,0,0.9-0.1,1.3c-0.5,2.2-2.1,3.6-3.9,3.6
		c-2.9,0-4.4-2.8-4.4-6.1c0-3.6,1.6-6.4,4.4-6.4c2,0,3.5,1.6,3.9,3.5c0.1,0.4,0.1,0.9,0.1,1.3V322z"/>
	<path class="st2" d="M451,325c-1.1,0-1.8,0.9-1.8,2.1c0,1.2,0.7,2.1,1.8,2.1c1.1,0,1.8-0.9,1.8-2.1C452.8,325.9,452,325,451,325z"
		/>
</g>
<g>
	<g>
		<path class="st3" d="M347.3,498.8l0.9,4.5L338,553.2l-6.3,1.3l10.4-48.5l0-0.2l-21.9,4.4l-1.1-5.7L347.3,498.8z"/>
	</g>
	<g>
		<path class="st3" d="M422.8,468.7l-0.1,0.1l-3.7,9.6l-4.3-4.1l4.7-12l4.4-3.4l31.5,47.2l-5,3.9L422.8,468.7z"/>
	</g>
	<g>
		<polygon class="st4" points="195.3,462.2 189.1,457 152.9,500.1 159.1,505.3 195.3,462.2 		"/>
	</g>
	<g>
		<path class="st4" d="M217.7,497.2c1.2-1.4,3.5-6.2,3.7-10.5c0.3-7.9-5.9-11.9-7.7-13c-8.2-4.9-15.5-1.6-20.7,5.7
			c-5.2,7.5-4.5,13-1.9,17c3.1,4.7,9.7,8.7,10,13.4c0.2,3.4-2.4,7-5,8c-1.6,0.7-4.4,0.3-6.7-1c-2.4-1.3-4.5-3.5-4.6-6.7
			c-0.1-2.4,0.8-4.6,1.5-5.8l-6.8-4.1c-2.5,4.7-3.9,10.4-2.7,15.3c0.9,4.1,4.5,7.4,6.3,8.3c3.8,2.2,8.1,3.9,12.6,3
			c6.6-1.4,15.2-11.7,14.8-19.9c-0.3-4.4-3.5-8-5.1-9.5c-1.1-1.1-6.6-6.4-6.7-8.1c-1-1.8-1.4-2.9,0.8-6.1c2.6-3.8,6.1-4,9.4-1.9
			c4.7,3,4.8,7.9,2.4,11.8L217.7,497.2L217.7,497.2z"/>
	</g>
	<g>
		<path class="st5" d="M260.3,524.3c2.5-8.1,2.9-16.9,1-23.2c-1.7-5.6-5.7-9.1-10.5-10.5c-4.8-1.5-10-0.8-14.6,2.9
			c-5.1,4.2-9.7,11.6-12.1,19.8c-2.5,8.1-2.9,16.9-1,23.2c1.7,5.6,5.7,9.1,10.5,10.5c4.8,1.5,10,0.8,14.6-2.9
			C253.2,539.9,257.8,532.4,260.3,524.3L260.3,524.3z M236.5,537.3c-2.5-0.8-4.6-2.5-5.8-5.7c-1.5-4-0.9-10.2,0.8-16.1
			c1.8-5.8,4.9-11.3,8.3-13.7c2.8-2,5.5-2.3,8-1.5c2.5,0.8,4.6,2.5,5.8,5.7c1.5,4,0.9,10.2-0.8,16.1c-1.8,5.8-4.9,11.3-8.3,13.7
			C241.8,537.8,239,538,236.5,537.3L236.5,537.3z"/>
	</g>
	<g>
		<path class="st4" d="M314.7,546l-16.1,0c0.8-2.7,4.1-6.7,7.1-9.6c5.7-5.7,8.9-11,9.2-16.7c0.7-11.5-3.5-19.1-12.2-19.8
			c-9.1-0.8-13.7,7.5-13.3,20.1l7.2,0c-0.3-7.5,1.8-10.4,3.9-11c2.4-0.7,5.8,0.5,6.5,5.6c0.6,4.6,0,7.9-1.9,11
			c-1.4,2.2-6.6,8.1-10.4,11.8c-5.2,6.2-5.6,12.6-5.9,18.4l26,0L314.7,546L314.7,546z"/>
	</g>
	<g>
		<path class="st5" d="M386.1,547.6c3.7-1.1,6.4-4.4,7-8.6c1-6.5-1.6-16-5-24.3c-3-8.4-7.5-17.3-12.6-21.4c-3.3-2.7-7.5-3.3-11-1.7
			c-3.7,1.1-6.4,4.4-7,8.6c-1,6.5,1.6,16,5,24.3c3,8.4,7.5,17.3,12.6,21.4C378.4,548.6,382.6,549.2,386.1,547.6L386.1,547.6z
			 M382.4,538c-1.8,0.9-4.2,0.3-5.8-1.8c-1.7-2.4-4.1-7.5-6.8-14.5c-2.7-7-4.4-12.4-4.7-15.3c-0.3-2.6,1.1-4.6,3.1-5.2
			c1.8-0.9,4.2-0.3,5.8,1.8c1.7,2.4,4.1,7.5,6.8,14.5c2.7,7,4.4,12.4,4.7,15.3C385.7,535.4,384.3,537.4,382.4,538L382.4,538z"/>
	</g>
	<g>
		<path class="st5" d="M424.5,530.4c3.4-1.8,5.5-5.5,5.4-9.7c-0.1-6.6-4.4-15.5-9.1-23.1c-4.4-7.7-10.4-15.7-16.1-18.9
			c-3.7-2.1-8-1.9-11.1,0.2c-3.4,1.8-5.5,5.5-5.4,9.7c0.1,6.6,4.4,15.5,9.1,23.1c4.4,7.7,10.3,15.7,16.1,18.9
			C417.1,532.7,421.4,532.5,424.5,530.4L424.5,530.4z M419.2,521.6c-1.7,1.2-4.1,1.1-6-0.8c-2.1-2-5.3-6.6-9.2-13.1
			c-3.9-6.5-6.4-11.5-7.3-14.3c-0.7-2.6,0.3-4.8,2.1-5.7c1.7-1.2,4.1-1.1,6,0.8c2.1,2,5.3,6.6,9.2,13.1c3.9,6.5,6.4,11.5,7.3,14.3
			C422.1,518.4,421.1,520.6,419.2,521.6L419.2,521.6z"/>
	</g>
</g>
</svg>
