<?xml version="1.0" encoding="utf-8"?>
<!-- Generator: Adobe Illustrator 21.0.2, SVG Export Plug-In . SVG Version: 6.00 Build 0)  -->
<svg version="1.1" id="Layer_1" xmlns="http://www.w3.org/2000/svg" xmlns:xlink="http://www.w3.org/1999/xlink" x="0px" y="0px"
	 viewBox="0 0 170.9 30.1" style="enable-background:new 0 0 170.9 30.1;" xml:space="preserve">
<style type="text/css">
	.st0{fill:#052740;}
	.st1{fill:#042841;}
	.st2{fill:#017DC7;}
	.st3{fill:#04263F;}
	.st4{fill:#939598;}
	.st5{fill:#6D6E71;}
</style>
<path class="st0" d="M19.8,17.8c-4.3,5.1-10.5,8.7-13.6,7c0.1,0.2,0.2,0.4,0.4,0.5c0.4,0.3,0.9,0.6,1.3,0.8c2.9,0.9,8.5-1.9,12.8-7
	c4.3-5.1,5.7-10.8,4.3-13.4c-0.3-0.4-0.7-0.8-1-1.1c-0.2-0.1-0.4-0.2-0.6-0.3C25.2,6.5,24.1,12.7,19.8,17.8"/>
<path class="st1" d="M7.9,15.1C5.9,9,8.3,3.9,10.3,1.8C10,1.7,9.7,1.7,9.5,1.7C9.2,1.8,9,1.9,8.7,2.1C6.8,3.5,4.3,9.4,6.4,15.9
	c2.1,6.6,8.2,11.6,10.6,11.7c0.3-0.1,0.6-0.1,0.8-0.2c0.2-0.1,0.4-0.3,0.6-0.5C15.6,26.4,9.9,21.3,7.9,15.1"/>
<path class="st1" d="M27.1,19.2c-0.4-1.7-4.3-5.6-10-9.1c-5.6-3.5-11-5.4-12.7-4.9C4.3,5.4,4.1,5.6,3.9,5.8C3.9,5.9,4,6,4,6.2
	c-0.2,0.4-0.6,1-0.8,1.4C3.5,7.3,4.1,7,4.4,7c2.5-0.1,7.3,1.3,12,4.3c4.7,2.9,8.1,6.5,9.1,8.9c0.2,0.6-0.3,1.1-0.3,1.1l1.1-0.9
	l0-0.2c0.2,0,0.3-0.1,0.5-0.1C26.9,19.7,27,19.5,27.1,19.2"/>
<path class="st2" d="M20.9,3.7C27,7.4,29.1,15.2,25.6,21l0.5,0.3c3.9-6.4,1.8-14.8-4.6-18.6C15-1.1,6.7,0.9,2.8,7.3l0.5,0.3
	C6.9,1.8,14.7,0,20.9,3.7"/>
<path class="st2" d="M7.5,26c6.4,3.9,14.8,1.8,18.6-4.6L25.6,21c-3.5,5.9-11.2,7.5-17.4,3.7C2.1,21.1-0.2,13.5,3.3,7.6L2.8,7.3
	C-1,13.8,1.1,22.1,7.5,26"/>
<path class="st2" d="M23.2,4c-0.1-0.1-0.3-0.2-0.4-0.4c-0.3-0.2-0.7-0.5-1-0.7c-3.2-1.6-9.5,0.7-13.9,6c-4.4,5.3-5.5,11.7-3.4,14.6
	c0.3,0.3,0.6,0.6,0.9,0.9c0.1,0.1,0.3,0.2,0.4,0.4c0.3,0.2,0.5,0.4,0.8,0.6c-0.1-0.2-0.3-0.3-0.4-0.5c-1.4-2.6,0.8-8.4,5.1-13.6
	c4.3-5.1,9.2-7.8,12.1-6.9c0.2,0.1,0.4,0.2,0.6,0.3C23.7,4.4,23.5,4.2,23.2,4"/>
<path class="st2" d="M22.8,11.8C20.7,5.3,15.1,1,12.2,1c-0.4,0.1-0.7,0.1-1.1,0.2c-0.3,0.1-0.5,0.1-0.8,0.2C10,1.5,9.8,1.6,9.5,1.7
	c0.2,0,0.5,0,0.8,0.1c2.3,0.7,7.2,4.9,9.2,11.1c2,6.1,0.5,12.2-1,14.1c-0.2,0.2-0.4,0.4-0.6,0.5c0.3-0.1,0.5-0.1,0.8-0.2
	c0.3-0.1,0.5-0.2,0.8-0.3c0.4-0.1,0.7-0.3,1-0.5C22.8,24.8,24.9,18.3,22.8,11.8"/>
<path class="st2" d="M2.7,7.6C2.6,7.8,2.5,7.9,2.5,8c-0.7,2.1,2.4,7.9,8.4,11.7c6.1,3.8,13,4.1,14.5,2.6c0.1-0.1,0.2-0.2,0.3-0.4
	c0.1-0.1,0.2-0.3,0.3-0.4c0.3-0.5,0.6-1,0.8-1.5c-2.8,1.1-8.8-1.2-13.5-4.1C8.6,13,3.6,8,3.9,5.8c-0.4,0.4-0.7,0.9-1,1.4
	C2.8,7.3,2.8,7.5,2.7,7.6"/>
<path class="st3" d="M38.4,14.4L38.4,14.4c0-3.6,2.8-6.5,6.5-6.5c2.5,0,4.2,1.1,5.3,2.6l-2.6,2c-0.7-0.9-1.5-1.5-2.7-1.5
	c-1.7,0-3,1.5-3,3.3v0c0,1.9,1.2,3.3,3,3.3c1.3,0,2.1-0.6,2.8-1.5l2.6,1.8c-1.2,1.6-2.7,2.8-5.5,2.8C41.3,20.8,38.4,18.1,38.4,14.4"
	/>
<polygon class="st3" points="53.5,8.1 57.2,8.1 60.1,12.9 63.1,8.1 66.7,8.1 66.7,20.5 63.3,20.5 63.3,13.4 60.1,18.3 60.1,18.3 
	56.9,13.4 56.9,20.5 53.5,20.5 "/>
<polygon class="st3" points="70.7,8.1 74.3,8.1 77.3,12.9 80.2,8.1 83.9,8.1 83.9,20.5 80.4,20.5 80.4,13.4 77.3,18.3 77.2,18.3 
	74.1,13.4 74.1,20.5 70.7,20.5 "/>
<rect x="87.9" y="8.1" class="st3" width="3.4" height="12.4"/>
<path class="st3" d="M96.1,8.1h4.3c3.9,0,6.6,2.7,6.6,6.2v0c0,3.5-2.7,6.2-6.6,6.2h-4.3V8.1z M97.5,9.4v9.8h2.9
	c3.1,0,5.1-2.1,5.1-4.9v0c0-2.7-2-4.9-5.1-4.9H97.5z"/>
<polygon class="st3" points="111.7,8.1 120.6,8.1 120.6,9.4 113.1,9.4 113.1,13.7 119.8,13.7 119.8,14.9 113.1,14.9 113.1,19.3 
	120.7,19.3 120.7,20.5 111.7,20.5 "/>
<polygon class="st3" points="124.3,8.1 125.8,8.1 130.2,18.8 134.6,8.1 136.2,8.1 130.8,20.6 129.6,20.6 "/>
<path class="st3" d="M150.6,18.6l2.2-2.2c0.9,0.9,1.8,1.4,3,1.4c1,0,1.6-0.5,1.6-1.3v0c0-0.8-0.7-1.3-2-1.3h-1.5l-0.5-1.8l2.8-2.6
	h-4.7V8.1h8.9v2.4l-3,2.6c1.8,0.4,3.2,1.4,3.2,3.5v0c0,2.5-2,4.1-4.8,4.1C153.5,20.8,151.8,19.9,150.6,18.6"/>
<path class="st4" d="M163.4,10.6l0.3-0.3c0.3,0.3,0.7,0.4,1.1,0.4c0.4,0,0.7-0.2,0.7-0.5c0-0.3-0.2-0.4-0.8-0.6
	c-0.7-0.2-1.1-0.4-1.1-0.9c0-0.5,0.5-0.9,1.1-0.9c0.5,0,0.8,0.1,1.2,0.4l-0.3,0.3c-0.3-0.2-0.6-0.3-0.9-0.3c-0.4,0-0.7,0.2-0.7,0.5
	c0,0.3,0.2,0.4,0.8,0.6c0.7,0.2,1.1,0.4,1.1,0.9c0,0.6-0.5,0.9-1.2,0.9C164.2,11.1,163.8,10.9,163.4,10.6 M166.7,7.8h0.5l1.1,1.7
	l1.1-1.7h0.5V11h-0.5V8.6l-1.1,1.7h-0.1l-1.1-1.7V11h-0.4V7.8z"/>
<polygon class="st3" points="147.4,8.1 141.2,20.5 142.4,20.5 148.6,8.1 "/>
<g>
	<path class="st5" d="M40.1,26.2h-1.3v1.2h1.5v0.4h-1.9v-3.4h1.8v0.4h-1.4v1.1h1.3V26.2z"/>
	<path class="st5" d="M41,25.4l0.3,0.5c0.1,0.1,0.2,0.3,0.2,0.4h0c0.1-0.1,0.2-0.3,0.2-0.4l0.3-0.5h0.5l-0.8,1.2l0.9,1.3h-0.5
		l-0.4-0.5c-0.1-0.1-0.2-0.3-0.3-0.4h0c-0.1,0.1-0.2,0.3-0.3,0.4L41,27.8h-0.5l0.9-1.2l-0.8-1.2H41z"/>
	<path class="st5" d="M43.2,26.2c0-0.3,0-0.6,0-0.8h0.4l0,0.4h0c0.2-0.3,0.5-0.5,0.9-0.5c0.6,0,1,0.5,1,1.2c0,0.9-0.5,1.3-1.1,1.3
		c-0.3,0-0.6-0.1-0.8-0.4h0v1.3h-0.4V26.2z M43.6,26.8c0,0.1,0,0.1,0,0.2c0.1,0.3,0.3,0.5,0.7,0.5c0.5,0,0.7-0.4,0.7-0.9
		c0-0.5-0.3-0.9-0.7-0.9c-0.3,0-0.6,0.2-0.7,0.5c0,0.1,0,0.1,0,0.2V26.8z"/>
	<path class="st5" d="M45.9,27.6c0-0.2,0.1-0.3,0.3-0.3s0.3,0.1,0.3,0.3c0,0.2-0.1,0.3-0.3,0.3C46,27.9,45.9,27.7,45.9,27.6z"/>
	<path class="st5" d="M48,27.8v-0.3l0.3-0.3c0.8-0.8,1.2-1.2,1.2-1.7c0-0.3-0.2-0.6-0.6-0.6c-0.3,0-0.5,0.2-0.7,0.3l-0.1-0.3
		c0.2-0.2,0.5-0.3,0.9-0.3c0.7,0,1,0.5,1,1c0,0.6-0.4,1.1-1.1,1.8l-0.3,0.2v0h1.5v0.4H48z"/>
	<path class="st5" d="M52.7,26.1c0,1.1-0.4,1.7-1.1,1.7c-0.6,0-1.1-0.6-1.1-1.7c0-1.1,0.5-1.7,1.1-1.7
		C52.3,24.5,52.7,25.1,52.7,26.1z M51,26.2c0,0.9,0.3,1.3,0.7,1.3c0.5,0,0.7-0.5,0.7-1.4c0-0.8-0.2-1.3-0.7-1.3
		C51.2,24.8,51,25.3,51,26.2z"/>
	<path class="st5" d="M53.1,27.8v-0.3l0.3-0.3c0.8-0.8,1.2-1.2,1.2-1.7c0-0.3-0.2-0.6-0.6-0.6c-0.3,0-0.5,0.2-0.7,0.3l-0.1-0.3
		c0.2-0.2,0.5-0.3,0.9-0.3c0.7,0,1,0.5,1,1c0,0.6-0.4,1.1-1.1,1.8l-0.3,0.2v0h1.5v0.4H53.1z"/>
	<path class="st5" d="M57.9,26.1c0,1.1-0.4,1.7-1.1,1.7c-0.6,0-1.1-0.6-1.1-1.7c0-1.1,0.5-1.7,1.1-1.7
		C57.5,24.5,57.9,25.1,57.9,26.1z M56.1,26.2c0,0.9,0.3,1.3,0.7,1.3c0.5,0,0.7-0.5,0.7-1.4c0-0.8-0.2-1.3-0.7-1.3
		C56.4,24.8,56.1,25.3,56.1,26.2z"/>
	<path class="st5" d="M60.5,26.3v0.3h-1.2v-0.3H60.5z"/>
	<path class="st5" d="M64.2,26.1c0,1.1-0.4,1.7-1.1,1.7c-0.6,0-1.1-0.6-1.1-1.7c0-1.1,0.5-1.7,1.1-1.7
		C63.8,24.5,64.2,25.1,64.2,26.1z M62.4,26.2c0,0.9,0.3,1.3,0.7,1.3c0.5,0,0.7-0.5,0.7-1.4c0-0.8-0.2-1.3-0.7-1.3
		C62.7,24.8,62.4,25.3,62.4,26.2z"/>
	<path class="st5" d="M66.4,24.9c-0.1,0-0.2,0-0.3,0C65.4,25,65.1,25.5,65,26h0c0.2-0.2,0.4-0.4,0.8-0.4c0.6,0,1,0.4,1,1.1
		c0,0.6-0.4,1.2-1.1,1.2c-0.7,0-1.2-0.5-1.2-1.4c0-0.6,0.2-1.2,0.6-1.5c0.3-0.3,0.6-0.4,1-0.5c0.1,0,0.2,0,0.3,0V24.9z M66.3,26.7
		c0-0.5-0.3-0.8-0.7-0.8c-0.3,0-0.5,0.2-0.6,0.4c0,0.1-0.1,0.1-0.1,0.2c0,0.5,0.3,0.9,0.7,0.9C66.1,27.5,66.3,27.2,66.3,26.7z"/>
	<path class="st5" d="M69.4,26.3v0.3h-1.2v-0.3H69.4z"/>
	<path class="st5" d="M70.7,25L70.7,25l-0.6,0.3l-0.1-0.3l0.7-0.4h0.4v3.3h-0.4V25z"/>
	<path class="st5" d="M74.2,24.9c-0.1,0-0.2,0-0.3,0c-0.7,0.1-1.1,0.6-1.1,1.2h0c0.2-0.2,0.4-0.4,0.8-0.4c0.6,0,1,0.4,1,1.1
		c0,0.6-0.4,1.2-1.1,1.2c-0.7,0-1.2-0.5-1.2-1.4c0-0.6,0.2-1.2,0.6-1.5c0.3-0.3,0.6-0.4,1-0.5c0.1,0,0.2,0,0.3,0V24.9z M74.1,26.7
		c0-0.5-0.3-0.8-0.7-0.8c-0.3,0-0.5,0.2-0.6,0.4c0,0.1-0.1,0.1-0.1,0.2c0,0.5,0.3,0.9,0.7,0.9C73.9,27.5,74.1,27.2,74.1,26.7z"/>
	<path class="st5" d="M80.8,24v5h-0.3v-5H80.8z"/>
	<path class="st5" d="M88.6,26.7l-0.4,1.1h-0.5l1.2-3.4h0.5l1.2,3.4h-0.5l-0.4-1.1H88.6z M89.7,26.4l-0.3-1
		c-0.1-0.2-0.1-0.4-0.2-0.6h0c-0.1,0.2-0.1,0.4-0.2,0.6l-0.3,1H89.7z"/>
	<path class="st5" d="M91.1,26.2c0-0.3,0-0.6,0-0.8h0.4l0,0.4h0c0.2-0.3,0.5-0.5,0.9-0.5c0.6,0,1,0.5,1,1.2c0,0.9-0.5,1.3-1.1,1.3
		c-0.3,0-0.6-0.1-0.8-0.4h0v1.3h-0.4V26.2z M91.6,26.8c0,0.1,0,0.1,0,0.2c0.1,0.3,0.3,0.5,0.7,0.5c0.5,0,0.7-0.4,0.7-0.9
		c0-0.5-0.3-0.9-0.7-0.9c-0.3,0-0.6,0.2-0.7,0.5c0,0.1,0,0.1,0,0.2V26.8z"/>
	<path class="st5" d="M94,26.2c0-0.3,0-0.6,0-0.8h0.4l0,0.4h0c0.2-0.3,0.5-0.5,0.9-0.5c0.6,0,1,0.5,1,1.2c0,0.9-0.5,1.3-1.1,1.3
		c-0.3,0-0.6-0.1-0.8-0.4h0v1.3H94V26.2z M94.4,26.8c0,0.1,0,0.1,0,0.2c0.1,0.3,0.3,0.5,0.7,0.5c0.5,0,0.7-0.4,0.7-0.9
		c0-0.5-0.3-0.9-0.7-0.9c-0.3,0-0.6,0.2-0.7,0.5c0,0.1,0,0.1,0,0.2V26.8z"/>
	<path class="st5" d="M96.9,26.1c0-0.3,0-0.5,0-0.8h0.4l0,0.5h0c0.1-0.3,0.4-0.5,0.7-0.5c0.1,0,0.1,0,0.1,0v0.4c0,0-0.1,0-0.2,0
		c-0.3,0-0.5,0.2-0.6,0.6c0,0.1,0,0.1,0,0.2v1.3h-0.4V26.1z"/>
	<path class="st5" d="M99.7,27.8l0-0.3h0c-0.1,0.2-0.4,0.4-0.7,0.4c-0.5,0-0.7-0.3-0.7-0.7c0-0.6,0.5-0.9,1.5-0.9v-0.1
		c0-0.2-0.1-0.6-0.6-0.6c-0.2,0-0.5,0.1-0.6,0.2l-0.1-0.3c0.2-0.1,0.5-0.2,0.8-0.2c0.7,0,0.9,0.5,0.9,1v0.9c0,0.2,0,0.4,0,0.6H99.7z
		 M99.7,26.6c-0.5,0-1,0.1-1,0.5c0,0.3,0.2,0.4,0.4,0.4c0.3,0,0.5-0.2,0.6-0.4c0,0,0-0.1,0-0.1V26.6z"/>
	<path class="st5" d="M101.3,24.7c0,0.2-0.1,0.3-0.3,0.3c-0.2,0-0.3-0.1-0.3-0.3c0-0.2,0.1-0.3,0.3-0.3
		C101.2,24.4,101.3,24.5,101.3,24.7z M100.8,27.8v-2.4h0.4v2.4H100.8z"/>
	<path class="st5" d="M101.9,27.4c0.1,0.1,0.4,0.2,0.6,0.2c0.3,0,0.5-0.2,0.5-0.4c0-0.2-0.1-0.3-0.5-0.4c-0.4-0.2-0.6-0.4-0.6-0.7
		c0-0.4,0.3-0.7,0.8-0.7c0.2,0,0.5,0.1,0.6,0.2l-0.1,0.3c-0.1-0.1-0.3-0.1-0.5-0.1c-0.3,0-0.4,0.2-0.4,0.3c0,0.2,0.1,0.3,0.5,0.4
		c0.4,0.2,0.6,0.4,0.6,0.7c0,0.4-0.3,0.7-0.9,0.7c-0.3,0-0.5-0.1-0.7-0.2L101.9,27.4z"/>
	<path class="st5" d="M105.3,27.8l0-0.3h0c-0.1,0.2-0.4,0.4-0.7,0.4c-0.5,0-0.7-0.3-0.7-0.7c0-0.6,0.5-0.9,1.5-0.9v-0.1
		c0-0.2-0.1-0.6-0.6-0.6c-0.2,0-0.5,0.1-0.6,0.2l-0.1-0.3c0.2-0.1,0.5-0.2,0.8-0.2c0.7,0,0.9,0.5,0.9,1v0.9c0,0.2,0,0.4,0,0.6H105.3
		z M105.3,26.6c-0.5,0-1,0.1-1,0.5c0,0.3,0.2,0.4,0.4,0.4c0.3,0,0.5-0.2,0.6-0.4c0,0,0-0.1,0-0.1V26.6z"/>
	<path class="st5" d="M106.4,24.2h0.4v3.6h-0.4V24.2z"/>
	<path class="st5" d="M108.8,27.8l0.1-1h-0.4v-0.3h0.5l0.1-0.7h-0.4v-0.3h0.5l0.1-1h0.3l-0.1,1h0.5l0.1-1h0.3l-0.1,1h0.4v0.3h-0.5
		l-0.1,0.7h0.4v0.3H110l-0.1,1h-0.3l0.1-1h-0.5l-0.1,1H108.8z M109.8,26.5l0.1-0.7h-0.5l-0.1,0.7H109.8z"/>
	<path class="st5" d="M111,27.8v-0.3l0.3-0.3c0.8-0.8,1.2-1.2,1.2-1.7c0-0.3-0.2-0.6-0.6-0.6c-0.3,0-0.5,0.2-0.7,0.3l-0.1-0.3
		c0.2-0.2,0.5-0.3,0.9-0.3c0.7,0,1,0.5,1,1c0,0.6-0.4,1.1-1.1,1.8l-0.3,0.2v0h1.5v0.4H111z"/>
	<path class="st5" d="M113.9,27.5c0.1,0,0.2,0,0.4,0c0.3,0,0.5-0.1,0.7-0.3c0.2-0.2,0.4-0.5,0.4-0.9h0c-0.2,0.2-0.4,0.4-0.8,0.4
		c-0.6,0-1-0.4-1-1c0-0.6,0.4-1.2,1.1-1.2c0.7,0,1.1,0.5,1.1,1.4c0,0.7-0.2,1.2-0.6,1.5c-0.3,0.2-0.6,0.4-1,0.4c-0.2,0-0.3,0-0.4,0
		V27.5z M114,25.6c0,0.4,0.2,0.7,0.6,0.7c0.3,0,0.5-0.1,0.6-0.3c0,0,0-0.1,0-0.2c0-0.6-0.2-1-0.7-1C114.3,24.8,114,25.2,114,25.6z"
		/>
	<path class="st5" d="M118.3,24.5v0.3l-1.4,3h-0.5l1.4-2.9v0h-1.6v-0.4H118.3z"/>
	<path class="st5" d="M120.7,24.9h-1.2l-0.1,0.8c0.1,0,0.1,0,0.3,0c0.3,0,0.5,0.1,0.7,0.2c0.3,0.1,0.5,0.4,0.5,0.8
		c0,0.6-0.5,1.1-1.2,1.1c-0.4,0-0.7-0.1-0.8-0.2l0.1-0.3c0.1,0.1,0.4,0.2,0.7,0.2c0.4,0,0.8-0.3,0.8-0.7c0-0.4-0.3-0.7-0.9-0.7
		c-0.2,0-0.3,0-0.5,0l0.2-1.6h1.6V24.9z"/>
	<path class="st5" d="M123.5,24.5v0.3l-1.4,3h-0.5l1.4-2.9v0h-1.6v-0.4H123.5z"/>
</g>
</svg>
