<?xml version="1.0" encoding="utf-8"?>
<!-- Generator: Adobe Illustrator 22.0.1, SVG Export Plug-In . SVG Version: 6.00 Build 0)  -->
<svg version="1.1" id="Layer_1" xmlns="http://www.w3.org/2000/svg" xmlns:xlink="http://www.w3.org/1999/xlink" x="0px" y="0px"
	 viewBox="0 0 756.4 127.9" style="enable-background:new 0 0 756.4 127.9;" xml:space="preserve">
<style type="text/css">
	.st0{clip-path:url(#SVGID_2_);fill:#012740;}
	.st1{clip-path:url(#SVGID_2_);fill:#9A1C51;}
	.st2{clip-path:url(#SVGID_2_);fill:#007DC5;}
	.st3{fill:#012740;}
	.st4{fill:#939598;}
	.st5{fill:#6D6E71;}
</style>
<g>
	<defs>
		<rect id="SVGID_1_" x="7.6" y="2.5" width="743.1" height="119.3"/>
	</defs>
	<clipPath id="SVGID_2_">
		<use xlink:href="#SVGID_1_"  style="overflow:visible;"/>
	</clipPath>
	<path class="st0" d="M90.5,77.4c-18.9,22.5-46.2,38.3-59.8,30.8c0.4,0.8,1,1.6,1.6,2.3c1.9,1.3,3.8,2.6,5.7,3.7
		c12.6,3.8,37.6-8.3,56.3-30.6c18.8-22.3,25-47.4,19.1-59.1c-1.4-1.7-3-3.4-4.6-5c-0.8-0.5-1.6-0.8-2.5-1.1
		C114.4,27.5,109.5,54.9,90.5,77.4"/>
	<path class="st0" d="M38.4,65.7c-8.7-27,1.8-49.5,10.5-58.7c-1.2-0.4-2.3-0.5-3.4-0.3c-1.2,0.5-2.3,1-3.4,1.5
		c-8.2,6.5-19.6,32.1-10.2,61c9.4,28.9,36.2,51.1,46.7,51.6c1.2-0.2,2.4-0.5,3.6-0.8c1-0.5,1.8-1.3,2.6-2.3
		C72.3,115.3,47.1,92.7,38.4,65.7"/>
	<path class="st0" d="M123,83.6c-1.5-7.5-19-24.8-43.7-40.2C54.5,28.1,30.8,19.8,23.4,21.7c-0.9,0.9-1.7,1.9-2.5,2.9
		c0,0.5,0.1,1,0.3,1.6c-1,1.8-2.6,4.6-3.6,6.2c1.3-1.4,3.8-2.6,5.4-2.6c11.1-0.5,32.2,5.9,53,18.8c20.8,12.9,35.4,28.7,39.9,38.9
		c0.8,2.7-1.5,4.9-1.5,4.9l5-4.1l0.1-0.7c0.8-0.1,1.5-0.2,2-0.5C122,85.9,122.5,84.7,123,83.6"/>
	<path class="st1" d="M17.7,32.4c-0.3,0.3-0.6,0.7-0.7,1C16.7,34,17.1,33.4,17.7,32.4"/>
	<path class="st2" d="M95.5,15.3c27.1,16.3,36.4,50.4,20.8,76.3l2.1,1.3c17-28.2,7.9-64.9-20.3-81.9c-28.2-17-64.9-7.9-81.9,20.3
		l2.1,1.3C33.9,6.8,68.5-1,95.5,15.3"/>
	<path class="st2" d="M36.5,113.3c28.2,17,64.9,7.9,81.9-20.3l-2.1-1.3c-15.6,25.9-49.3,32.8-76.4,16.5
		c-27-16.3-37.2-49.6-21.6-75.4l-2.1-1.3C-0.8,59.6,8.3,96.3,36.5,113.3"/>
	<path class="st2" d="M105.7,16.5c-0.6-0.5-1.3-1-1.9-1.5c-1.4-1.1-2.9-2.1-4.4-3.1C85.3,5,57.7,14.9,38.2,38.1
		c-19.5,23.2-24.1,51.6-14.9,64.3c1.2,1.3,2.5,2.6,3.8,3.8c0.6,0.5,1.2,1.1,1.8,1.6c1.1,0.9,2.3,1.8,3.4,2.7
		c-0.6-0.7-1.1-1.5-1.6-2.3C24.6,96.6,34.4,71,53.3,48.5C72.3,26,93.8,14.2,106.4,18.3c0.9,0.3,1.7,0.7,2.5,1.1
		C107.9,18.4,106.8,17.4,105.7,16.5"/>
	<path class="st2" d="M104,51C94.8,22.4,69.9,3.6,57.2,3.4c-1.6,0.3-3.3,0.6-4.9,1.1c-1.1,0.3-2.2,0.6-3.4,1
		c-1.2,0.4-2.4,0.8-3.5,1.3c1.1-0.1,2.2,0,3.4,0.3c10.3,3,31.7,21.7,40.4,48.7c8.7,27,2,53.5-4.6,62c-0.8,1-1.6,1.8-2.6,2.3
		c1.2-0.3,2.4-0.6,3.6-1c1.1-0.4,2.2-0.8,3.3-1.2c1.6-0.6,3.1-1.3,4.6-2C103.8,108,113.3,79.5,104,51"/>
	<path class="st2" d="M15.5,32.7c-0.3,0.6-0.7,1.2-0.9,1.7c-3.1,9,10.4,34.7,37.1,51.3c26.8,16.6,57.2,18.2,64,11.5
		c0.4-0.5,0.8-1.1,1.1-1.6c0.4-0.6,0.8-1.3,1.3-1.9c1.3-2.1,2.5-4.3,3.5-6.6C109.3,91.8,83,81.9,62.3,69
		C41.5,56.1,19.7,34.2,21,24.6c-1.5,1.9-3,3.9-4.3,6.1C16.2,31.3,15.8,32,15.5,32.7"/>
	<path class="st0" d="M172.6,62.3v-0.2c0-15.9,12.1-28.4,28.7-28.4c11.1,0,18.3,4.7,23.1,11.3L213,53.9c-3.1-3.8-6.7-6.4-11.9-6.4
		c-7.6,0-13,6.6-13,14.5v0.2c0,8.2,5.4,14.6,13,14.6c5.7,0,9-2.6,12.3-6.6l11.4,8.1c-5.1,7.1-12.1,12.3-24.1,12.3
		C185.1,90.5,172.6,78.6,172.6,62.3"/>
	<polygon class="st0" points="239.1,34.9 255.1,34.9 268.1,56 281.1,34.9 297.1,34.9 297.1,89.4 282,89.4 282,58.1 268.1,79.4 
		267.8,79.4 253.9,58.2 253.9,89.4 239.1,89.4 	"/>
	<polygon class="st0" points="314.5,34.9 330.4,34.9 343.4,56 356.4,34.9 372.4,34.9 372.4,89.4 357.4,89.4 357.4,58.1 343.4,79.4 
		343.1,79.4 329.3,58.2 329.3,89.4 314.5,89.4 	"/>
	<rect x="390.3" y="34.9" class="st0" width="15.1" height="54.5"/>
	<path class="st0" d="M426,34.9h18.9c17.1,0,29,11.8,29,27.1v0.2c0,15.3-11.8,27.3-29,27.3H426V34.9z M432.1,40.6v43.1h12.8
		c13.8,0,22.6-9.3,22.6-21.4v-0.2c0-12.1-8.8-21.6-22.6-21.6H432.1z"/>
</g>
<polygon class="st3" points="494.7,34.9 534.1,34.9 534.1,40.5 500.9,40.5 500.9,59.1 530.6,59.1 530.6,64.7 500.9,64.7 500.9,83.8 
	534.5,83.8 534.5,89.4 494.7,89.4 "/>
<polygon class="st3" points="550,34.9 556.8,34.9 576.2,81.9 595.7,34.9 602.3,34.9 578.9,89.8 573.4,89.8 "/>
<path class="st4" d="M722,45.5l1.2-1.4c1.5,1.2,3,1.9,5,1.9c1.9,0,3.1-0.9,3.1-2.2c0-1.2-0.8-1.8-3.6-2.5c-3.1-0.7-4.9-1.6-4.9-4
	c0-2.3,2-4,5-4c2,0,3.7,0.6,5.1,1.8l-1.1,1.5c-1.2-1-2.6-1.5-4.1-1.5c-1.8,0-2.9,0.9-2.9,2.1c0,1.2,0.8,1.9,3.7,2.5
	c3.1,0.7,4.9,1.7,4.9,4c0,2.5-2.3,4.1-5.1,4.1C725.8,47.8,723.7,47,722,45.5 M736.6,33.6h2.1l4.9,7.7l5-7.7h2.1v14h-2V36.8l-5,7.6
	h-0.2l-5-7.6v10.7h-1.9V33.6z"/>
<polygon class="st3" points="651.6,34.9 624.3,89.4 629.9,89.4 657.2,34.9 "/>
<path class="st5" d="M188.5,107.5h-9.5v5.3h8.5v1.6h-8.5v5.4h9.6v1.6h-11.3v-15.5h11.2V107.5z"/>
<path class="st5" d="M201.8,121.4h-2l-3.5-4.7l-3.6,4.7h-1.9l4.5-5.8l-4.3-5.6h1.9l3.4,4.4l3.4-4.4h1.9l-4.3,5.6L201.8,121.4z"/>
<path class="st5" d="M215.7,118.2c-0.3,0.7-0.7,1.4-1.2,1.9c-0.5,0.5-1.1,0.9-1.8,1.2s-1.3,0.4-2,0.4c-0.5,0-1-0.1-1.5-0.2
	c-0.4-0.1-0.8-0.3-1.2-0.5s-0.7-0.5-1-0.8c-0.3-0.3-0.5-0.6-0.8-0.9v5.7h-1.7v-15h1.7v2.3c0.2-0.3,0.5-0.7,0.8-1
	c0.3-0.3,0.6-0.6,1-0.8c0.4-0.2,0.7-0.4,1.2-0.6c0.4-0.1,0.9-0.2,1.5-0.2c0.7,0,1.3,0.1,2,0.4c0.7,0.3,1.2,0.7,1.8,1.2
	c0.5,0.5,0.9,1.1,1.2,1.9c0.3,0.7,0.5,1.6,0.5,2.5C216.2,116.6,216,117.4,215.7,118.2z M214.1,113.8c-0.2-0.5-0.5-1-0.9-1.4
	c-0.4-0.4-0.8-0.7-1.3-0.9c-0.5-0.2-1-0.3-1.6-0.3c-0.5,0-1,0.1-1.5,0.3c-0.5,0.2-0.9,0.5-1.3,0.9c-0.4,0.4-0.7,0.8-0.9,1.4
	c-0.2,0.5-0.3,1.1-0.3,1.8c0,0.7,0.1,1.3,0.3,1.8c0.2,0.6,0.5,1,0.9,1.4c0.4,0.4,0.8,0.7,1.3,0.9c0.5,0.2,1,0.3,1.5,0.3
	c0.5,0,1.1-0.1,1.6-0.3s0.9-0.5,1.3-0.9c0.4-0.4,0.6-0.8,0.9-1.4c0.2-0.6,0.3-1.2,0.3-1.9C214.4,115,214.3,114.4,214.1,113.8z"/>
<path class="st5" d="M218.9,121.4v-2.3h2v2.3H218.9z"/>
<path class="st5" d="M233.8,107.9c-0.6,0.5-1.3,1.1-1.9,2l-1.3-0.9c0.4-0.5,0.7-1,1.1-1.4c0.4-0.4,0.8-0.8,1.2-1
	c0.4-0.3,0.9-0.5,1.5-0.6s1.1-0.2,1.8-0.2c0.7,0,1.4,0.1,1.9,0.3c0.6,0.2,1.1,0.5,1.5,0.9c0.4,0.4,0.8,0.9,1,1.4
	c0.2,0.5,0.4,1.1,0.4,1.8c0,0.6-0.1,1.1-0.2,1.6c-0.2,0.5-0.4,0.9-0.7,1.4c-0.3,0.5-0.7,0.9-1.2,1.4c-0.5,0.5-1.1,1-1.8,1.6
	l-4.1,3.7h8.2v1.6h-10.8V120l5.6-5c0.6-0.5,1.1-1,1.5-1.4c0.4-0.4,0.7-0.8,1-1.2c0.3-0.4,0.4-0.7,0.6-1.1c0.1-0.4,0.2-0.7,0.2-1.1
	c0-0.5-0.1-0.9-0.3-1.2s-0.4-0.7-0.7-0.9c-0.3-0.3-0.6-0.5-1-0.6c-0.4-0.1-0.8-0.2-1.2-0.2C235.2,107.2,234.5,107.4,233.8,107.9z"/>
<path class="st5" d="M256.6,116.7c-0.3,1-0.7,1.8-1.3,2.6c-0.6,0.7-1.3,1.3-2.1,1.7c-0.8,0.4-1.7,0.6-2.7,0.6c-1,0-1.9-0.2-2.7-0.6
	c-0.8-0.4-1.5-1-2.1-1.7c-0.6-0.7-1-1.6-1.3-2.5c-0.3-1-0.5-2-0.5-3.1s0.2-2.1,0.5-3.1s0.7-1.8,1.3-2.6c0.6-0.7,1.3-1.3,2.1-1.7
	c0.8-0.4,1.7-0.6,2.7-0.6c1,0,1.9,0.2,2.7,0.6c0.8,0.4,1.5,1,2.1,1.7s1,1.6,1.3,2.5c0.3,1,0.5,2,0.5,3.1
	C257,114.7,256.9,115.7,256.6,116.7z M254.9,111.2c-0.2-0.8-0.5-1.5-1-2s-0.9-1.1-1.5-1.4c-0.6-0.4-1.2-0.5-2-0.5s-1.4,0.2-2,0.5
	c-0.6,0.3-1.1,0.8-1.5,1.4c-0.4,0.6-0.7,1.3-0.9,2s-0.3,1.6-0.3,2.4c0,0.9,0.1,1.7,0.3,2.5c0.2,0.8,0.5,1.5,1,2.1
	c0.4,0.6,0.9,1.1,1.5,1.4s1.2,0.5,2,0.5s1.4-0.2,2-0.5c0.6-0.3,1.1-0.8,1.5-1.4c0.4-0.6,0.7-1.3,0.9-2c0.2-0.8,0.3-1.6,0.3-2.4
	S255.1,112,254.9,111.2z"/>
<path class="st5" d="M262.9,107.9c-0.6,0.5-1.3,1.1-1.9,2l-1.3-0.9c0.4-0.5,0.7-1,1.1-1.4c0.4-0.4,0.8-0.8,1.2-1
	c0.4-0.3,0.9-0.5,1.5-0.6s1.1-0.2,1.8-0.2c0.7,0,1.4,0.1,1.9,0.3c0.6,0.2,1.1,0.5,1.5,0.9c0.4,0.4,0.8,0.9,1,1.4
	c0.2,0.5,0.4,1.1,0.4,1.8c0,0.6-0.1,1.1-0.2,1.6c-0.2,0.5-0.4,0.9-0.7,1.4c-0.3,0.5-0.7,0.9-1.2,1.4c-0.5,0.5-1.1,1-1.8,1.6
	l-4.1,3.7h8.2v1.6h-10.8V120l5.6-5c0.6-0.5,1.1-1,1.5-1.4c0.4-0.4,0.7-0.8,1-1.2c0.3-0.4,0.4-0.7,0.6-1.1c0.1-0.4,0.2-0.7,0.2-1.1
	c0-0.5-0.1-0.9-0.3-1.2s-0.4-0.7-0.7-0.9c-0.3-0.3-0.6-0.5-1-0.6c-0.4-0.1-0.8-0.2-1.2-0.2C264.3,107.2,263.6,107.4,262.9,107.9z"/>
<path class="st5" d="M276.1,105.8h1.3v15.6h-1.8v-13.8l-2.9,0.9l-0.4-1.4L276.1,105.8z"/>
<path class="st5" d="M281.1,115.6v-1.8h6.2v1.8H281.1z"/>
<path class="st5" d="M302.7,116.7c-0.3,1-0.8,1.8-1.3,2.6c-0.6,0.7-1.3,1.3-2.1,1.7c-0.8,0.4-1.7,0.6-2.7,0.6c-1,0-1.9-0.2-2.7-0.6
	c-0.8-0.4-1.5-1-2.1-1.7c-0.6-0.7-1-1.6-1.3-2.5c-0.3-1-0.5-2-0.5-3.1s0.2-2.1,0.5-3.1s0.7-1.8,1.3-2.6c0.6-0.7,1.3-1.3,2.1-1.7
	c0.8-0.4,1.7-0.6,2.7-0.6c1,0,1.9,0.2,2.7,0.6c0.8,0.4,1.5,1,2.1,1.7s1,1.6,1.3,2.5c0.3,1,0.5,2,0.5,3.1
	C303.1,114.7,303,115.7,302.7,116.7z M301,111.2c-0.2-0.8-0.5-1.5-1-2s-0.9-1.1-1.5-1.4c-0.6-0.4-1.2-0.5-2-0.5s-1.4,0.2-2,0.5
	c-0.6,0.3-1.1,0.8-1.5,1.4c-0.4,0.6-0.7,1.3-0.9,2s-0.3,1.6-0.3,2.4c0,0.9,0.1,1.7,0.3,2.5c0.2,0.8,0.5,1.5,1,2.1
	c0.4,0.6,0.9,1.1,1.5,1.4s1.2,0.5,2,0.5s1.4-0.2,2-0.5c0.6-0.3,1.1-0.8,1.5-1.4c0.4-0.6,0.7-1.3,0.9-2c0.2-0.8,0.3-1.6,0.3-2.4
	S301.2,112,301,111.2z"/>
<path class="st5" d="M308.9,105.8h1.3v15.6h-1.8v-13.8l-2.9,0.9l-0.4-1.4L308.9,105.8z"/>
<path class="st5" d="M313.9,115.6v-1.8h6.2v1.8H313.9z"/>
<path class="st5" d="M326,107.9c-0.6,0.5-1.3,1.1-1.9,2l-1.3-0.9c0.4-0.5,0.7-1,1.1-1.4c0.4-0.4,0.8-0.8,1.2-1
	c0.4-0.3,0.9-0.5,1.5-0.6s1.1-0.2,1.8-0.2c0.7,0,1.4,0.1,1.9,0.3c0.6,0.2,1.1,0.5,1.5,0.9c0.4,0.4,0.8,0.9,1,1.4
	c0.2,0.5,0.4,1.1,0.4,1.8c0,0.6-0.1,1.1-0.2,1.6c-0.2,0.5-0.4,0.9-0.7,1.4c-0.3,0.5-0.7,0.9-1.2,1.4c-0.5,0.5-1.1,1-1.8,1.6
	l-4.1,3.7h8.2v1.6h-10.8V120l5.6-5c0.6-0.5,1.1-1,1.5-1.4c0.4-0.4,0.7-0.8,1-1.2c0.3-0.4,0.4-0.7,0.6-1.1c0.1-0.4,0.2-0.7,0.2-1.1
	c0-0.5-0.1-0.9-0.3-1.2s-0.4-0.7-0.7-0.9c-0.3-0.3-0.6-0.5-1-0.6c-0.4-0.1-0.8-0.2-1.2-0.2C327.4,107.2,326.6,107.4,326,107.9z"/>
<path class="st5" d="M337.4,105.9h8.9v1.6h-7.4l-0.3,5c0.5-0.2,0.9-0.4,1.4-0.5c0.5-0.1,1-0.2,1.7-0.2c0.8,0,1.5,0.1,2.1,0.3
	c0.6,0.2,1.2,0.5,1.7,0.9s0.9,0.9,1.1,1.5c0.3,0.6,0.4,1.3,0.4,2c0,0.8-0.1,1.5-0.4,2.1c-0.3,0.6-0.6,1.2-1.1,1.6s-1.1,0.8-1.7,1
	c-0.7,0.2-1.4,0.4-2.2,0.4c-1.1,0-2.1-0.2-3.1-0.7c-0.9-0.5-1.8-1.1-2.5-1.8l1.2-1.3c0.7,0.7,1.4,1.2,2.1,1.6
	c0.7,0.4,1.5,0.6,2.3,0.6c0.5,0,1.1-0.1,1.5-0.3s0.9-0.4,1.2-0.7c0.3-0.3,0.6-0.7,0.8-1.1s0.3-0.9,0.3-1.4c0-0.5-0.1-0.9-0.3-1.3
	c-0.2-0.4-0.4-0.7-0.8-1c-0.3-0.3-0.7-0.5-1.2-0.7c-0.5-0.2-1-0.2-1.6-0.2c-0.7,0-1.3,0.1-1.8,0.3c-0.5,0.2-1,0.4-1.5,0.6l-1.2-0.8
	L337.4,105.9z"/>
<path class="st5" d="M384.2,124.2v-20.5h1.4v20.5H384.2z"/>
<path class="st5" d="M444.7,121.4h-1.9l-1.8-4.1h-8.4l-1.8,4.1H429l7.1-15.6h1.6L444.7,121.4z M436.8,107.8l-3.5,7.9h7.1
	L436.8,107.8z"/>
<path class="st5" d="M458.6,118.2c-0.3,0.7-0.7,1.4-1.2,1.9c-0.5,0.5-1.1,0.9-1.8,1.2s-1.3,0.4-2,0.4c-0.5,0-1-0.1-1.5-0.2
	c-0.4-0.1-0.8-0.3-1.2-0.5s-0.7-0.5-1-0.8c-0.3-0.3-0.5-0.6-0.8-0.9v5.7h-1.7v-15h1.7v2.3c0.2-0.3,0.5-0.7,0.8-1
	c0.3-0.3,0.6-0.6,1-0.8c0.4-0.2,0.7-0.4,1.2-0.6c0.4-0.1,0.9-0.2,1.5-0.2c0.7,0,1.3,0.1,2,0.4c0.7,0.3,1.2,0.7,1.8,1.2
	c0.5,0.5,0.9,1.1,1.2,1.9c0.3,0.7,0.5,1.6,0.5,2.5C459.1,116.6,458.9,117.4,458.6,118.2z M457,113.8c-0.2-0.5-0.5-1-0.9-1.4
	c-0.4-0.4-0.8-0.7-1.3-0.9c-0.5-0.2-1-0.3-1.6-0.3c-0.5,0-1,0.1-1.5,0.3c-0.5,0.2-0.9,0.5-1.3,0.9c-0.4,0.4-0.7,0.8-0.9,1.4
	c-0.2,0.5-0.3,1.1-0.3,1.8c0,0.7,0.1,1.3,0.3,1.8c0.2,0.6,0.5,1,0.9,1.4c0.4,0.4,0.8,0.7,1.3,0.9c0.5,0.2,1,0.3,1.5,0.3
	c0.5,0,1.1-0.1,1.6-0.3s0.9-0.5,1.3-0.9c0.4-0.4,0.6-0.8,0.9-1.4c0.2-0.6,0.3-1.2,0.3-1.9C457.3,115,457.2,114.4,457,113.8z"/>
<path class="st5" d="M473.3,118.2c-0.3,0.7-0.7,1.4-1.2,1.9c-0.5,0.5-1.1,0.9-1.8,1.2s-1.3,0.4-2,0.4c-0.5,0-1-0.1-1.5-0.2
	c-0.4-0.1-0.8-0.3-1.2-0.5s-0.7-0.5-1-0.8c-0.3-0.3-0.5-0.6-0.8-0.9v5.7h-1.7v-15h1.7v2.3c0.2-0.3,0.5-0.7,0.8-1
	c0.3-0.3,0.6-0.6,1-0.8c0.4-0.2,0.7-0.4,1.2-0.6c0.4-0.1,0.9-0.2,1.5-0.2c0.7,0,1.3,0.1,2,0.4c0.7,0.3,1.2,0.7,1.8,1.2
	c0.5,0.5,0.9,1.1,1.2,1.9c0.3,0.7,0.5,1.6,0.5,2.5C473.8,116.6,473.6,117.4,473.3,118.2z M471.7,113.8c-0.2-0.5-0.5-1-0.9-1.4
	c-0.4-0.4-0.8-0.7-1.3-0.9c-0.5-0.2-1-0.3-1.6-0.3c-0.5,0-1,0.1-1.5,0.3c-0.5,0.2-0.9,0.5-1.3,0.9c-0.4,0.4-0.7,0.8-0.9,1.4
	c-0.2,0.5-0.3,1.1-0.3,1.8c0,0.7,0.1,1.3,0.3,1.8c0.2,0.6,0.5,1,0.9,1.4c0.4,0.4,0.8,0.7,1.3,0.9c0.5,0.2,1,0.3,1.5,0.3
	c0.5,0,1.1-0.1,1.6-0.3s0.9-0.5,1.3-0.9c0.4-0.4,0.6-0.8,0.9-1.4c0.2-0.6,0.3-1.2,0.3-1.9C472,115,471.9,114.4,471.7,113.8z"/>
<path class="st5" d="M478.6,121.4h-1.7v-11.5h1.7v3c0.2-0.5,0.5-0.9,0.8-1.3c0.3-0.4,0.7-0.7,1.1-1c0.4-0.3,0.8-0.5,1.3-0.7
	s1-0.2,1.5-0.2v1.8h-0.1c-0.6,0-1.2,0.1-1.8,0.3c-0.6,0.2-1,0.6-1.5,1c-0.4,0.4-0.7,1-1,1.7c-0.2,0.7-0.4,1.4-0.4,2.3V121.4z"/>
<path class="st5" d="M487.6,111.5c-0.6,0.2-1.1,0.4-1.6,0.6l-0.5-1.4c0.6-0.3,1.3-0.5,1.9-0.7c0.7-0.2,1.4-0.3,2.2-0.3
	c1.6,0,2.8,0.4,3.6,1.2s1.3,1.9,1.3,3.4v7h-1.6v-1.7c-0.4,0.5-0.9,1-1.6,1.4s-1.5,0.6-2.5,0.6c-0.5,0-1.1-0.1-1.6-0.2
	s-1-0.4-1.4-0.7c-0.4-0.3-0.7-0.7-1-1.1c-0.2-0.4-0.4-1-0.4-1.6c0-0.6,0.1-1.1,0.4-1.6c0.2-0.5,0.6-0.9,1-1.2c0.4-0.3,1-0.5,1.6-0.7
	c0.6-0.2,1.3-0.2,2-0.2c0.7,0,1.4,0,1.9,0.1c0.5,0.1,1.1,0.2,1.6,0.4v-0.4c0-1-0.3-1.8-0.9-2.3c-0.6-0.5-1.4-0.8-2.5-0.8
	C488.8,111.3,488.2,111.4,487.6,111.5z M487.1,116.2c-0.6,0.4-0.9,1-0.9,1.8c0,0.4,0.1,0.7,0.2,1c0.2,0.3,0.4,0.5,0.6,0.7
	s0.6,0.4,0.9,0.5c0.3,0.1,0.7,0.2,1.1,0.2c0.5,0,1-0.1,1.5-0.2c0.5-0.2,0.9-0.4,1.2-0.6c0.3-0.3,0.6-0.6,0.8-1
	c0.2-0.4,0.3-0.8,0.3-1.3v-1.1c-0.4-0.1-0.9-0.2-1.5-0.3c-0.6-0.1-1.2-0.2-1.9-0.2C488.5,115.6,487.7,115.8,487.1,116.2z"/>
<path class="st5" d="M498.2,107.4v-1.9h2v1.9H498.2z M498.3,121.4v-11.5h1.7v11.5H498.3z"/>
<path class="st5" d="M511.6,119.6c-0.2,0.4-0.5,0.8-0.9,1.1c-0.4,0.3-0.8,0.5-1.3,0.7c-0.5,0.2-1,0.2-1.6,0.2
	c-0.8,0-1.7-0.2-2.5-0.5s-1.6-0.7-2.2-1.2l0.9-1.2c0.6,0.5,1.3,0.8,1.9,1.1s1.3,0.4,2,0.4c0.7,0,1.3-0.2,1.7-0.5
	c0.4-0.3,0.7-0.8,0.7-1.3v0c0-0.3-0.1-0.5-0.2-0.7s-0.4-0.4-0.6-0.5c-0.3-0.2-0.6-0.3-0.9-0.4s-0.7-0.2-1.1-0.3
	c-0.4-0.1-0.9-0.3-1.3-0.4c-0.5-0.2-0.9-0.4-1.2-0.6c-0.4-0.2-0.7-0.5-0.9-0.9c-0.2-0.4-0.3-0.8-0.3-1.3v0c0-0.5,0.1-0.9,0.3-1.3
	c0.2-0.4,0.5-0.8,0.8-1c0.3-0.3,0.8-0.5,1.2-0.7c0.5-0.2,1-0.2,1.6-0.2c0.7,0,1.4,0.1,2.1,0.3c0.7,0.2,1.4,0.5,2,0.9l-0.8,1.3
	c-0.5-0.3-1.1-0.6-1.7-0.8c-0.6-0.2-1.2-0.3-1.7-0.3c-0.7,0-1.2,0.2-1.6,0.5s-0.6,0.7-0.6,1.2v0c0,0.3,0.1,0.5,0.2,0.7
	c0.2,0.2,0.4,0.4,0.7,0.5c0.3,0.1,0.6,0.3,0.9,0.4s0.7,0.2,1.1,0.4c0.4,0.1,0.9,0.3,1.3,0.4c0.4,0.2,0.8,0.4,1.2,0.6
	s0.6,0.6,0.9,0.9s0.3,0.8,0.3,1.3v0C511.9,118.7,511.8,119.2,511.6,119.6z"/>
<path class="st5" d="M517.3,111.5c-0.6,0.2-1.1,0.4-1.6,0.6l-0.5-1.4c0.6-0.3,1.3-0.5,1.9-0.7c0.7-0.2,1.4-0.3,2.2-0.3
	c1.6,0,2.8,0.4,3.6,1.2s1.3,1.9,1.3,3.4v7h-1.6v-1.7c-0.4,0.5-0.9,1-1.6,1.4s-1.5,0.6-2.5,0.6c-0.5,0-1.1-0.1-1.6-0.2
	s-1-0.4-1.4-0.7c-0.4-0.3-0.7-0.7-1-1.1c-0.2-0.4-0.4-1-0.4-1.6c0-0.6,0.1-1.1,0.4-1.6c0.2-0.5,0.6-0.9,1-1.2c0.4-0.3,1-0.5,1.6-0.7
	c0.6-0.2,1.3-0.2,2-0.2c0.7,0,1.4,0,1.9,0.1c0.5,0.1,1.1,0.2,1.6,0.4v-0.4c0-1-0.3-1.8-0.9-2.3c-0.6-0.5-1.4-0.8-2.5-0.8
	C518.5,111.3,517.9,111.4,517.3,111.5z M516.8,116.2c-0.6,0.4-0.9,1-0.9,1.8c0,0.4,0.1,0.7,0.2,1c0.2,0.3,0.4,0.5,0.6,0.7
	s0.6,0.4,0.9,0.5c0.3,0.1,0.7,0.2,1.1,0.2c0.5,0,1-0.1,1.5-0.2c0.5-0.2,0.9-0.4,1.2-0.6c0.3-0.3,0.6-0.6,0.8-1
	c0.2-0.4,0.3-0.8,0.3-1.3v-1.1c-0.4-0.1-0.9-0.2-1.5-0.3c-0.6-0.1-1.2-0.2-1.9-0.2C518.2,115.6,517.4,115.8,516.8,116.2z"/>
<path class="st5" d="M528,121.4v-16.2h1.7v16.2H528z"/>
<path class="st5" d="M550.3,111.3l-0.8,4.7h2.6v1.6h-2.9l-0.7,3.9H547l0.7-3.9h-4.2l-0.7,3.9h-1.6l0.7-3.9h-2.4v-1.6h2.7l0.8-4.7
	h-2.6v-1.6h2.9l0.7-3.8h1.6l-0.6,3.8h4.2l0.7-3.8h1.6l-0.6,3.8h2.4v1.6H550.3z M544.5,111.3l-0.8,4.7h4.2l0.8-4.7H544.5z"/>
<path class="st5" d="M562.5,107.4v-1.6h9.9v1.3l-4.9,5.4c0.7,0.1,1.3,0.2,2,0.4c0.6,0.2,1.2,0.5,1.6,0.8c0.5,0.4,0.8,0.8,1.1,1.3
	c0.3,0.5,0.4,1.2,0.4,1.9c0,0.7-0.1,1.3-0.4,1.9c-0.3,0.6-0.6,1.1-1.1,1.5c-0.5,0.4-1,0.7-1.6,1c-0.6,0.2-1.3,0.3-2,0.3
	c-1.3,0-2.4-0.3-3.4-0.8c-1-0.5-1.8-1.2-2.4-2l1.3-1.1c0.6,0.7,1.3,1.3,2,1.7c0.7,0.4,1.6,0.6,2.5,0.6c0.5,0,0.9-0.1,1.3-0.2
	c0.4-0.1,0.8-0.3,1.1-0.6c0.3-0.3,0.5-0.6,0.7-1c0.2-0.4,0.3-0.8,0.3-1.3c0-1-0.4-1.7-1.2-2.2c-0.8-0.5-1.8-0.8-3.1-0.8h-1l-0.4-1
	l4.9-5.5H562.5z"/>
<path class="st5" d="M578.6,105.8h1.3v15.6h-1.8v-13.8l-2.9,0.9l-0.4-1.4L578.6,105.8z"/>
<path class="st5" d="M593.5,108.7c-0.6-0.5-1.2-0.9-1.7-1.1c-0.6-0.3-1.2-0.4-1.9-0.4s-1.3,0.2-1.9,0.5c-0.6,0.3-1,0.8-1.4,1.4
	s-0.7,1.3-0.9,2.2c-0.2,0.8-0.3,1.8-0.3,2.8c0.2-0.3,0.4-0.6,0.7-0.9s0.6-0.5,1-0.8c0.4-0.2,0.8-0.4,1.2-0.5c0.5-0.1,1-0.2,1.5-0.2
	c0.7,0,1.4,0.1,2.1,0.3c0.7,0.2,1.2,0.5,1.7,1s0.9,0.9,1.2,1.5s0.4,1.2,0.4,2c0,0.8-0.1,1.4-0.4,2.1c-0.3,0.6-0.7,1.2-1.2,1.6
	c-0.5,0.5-1.1,0.8-1.8,1.1c-0.7,0.3-1.4,0.4-2.2,0.4c-0.9,0-1.6-0.1-2.3-0.4c-0.7-0.3-1.3-0.7-1.8-1.2c-0.3-0.3-0.6-0.7-0.8-1
	c-0.2-0.4-0.4-0.8-0.6-1.3c-0.2-0.5-0.3-1-0.4-1.6c-0.1-0.6-0.1-1.3-0.1-2.1c0-1.2,0.1-2.3,0.4-3.3s0.7-1.9,1.3-2.7s1.2-1.4,2-1.8
	s1.7-0.7,2.7-0.7c0.9,0,1.8,0.2,2.5,0.5c0.7,0.3,1.4,0.7,2.1,1.3L593.5,108.7z M593,115.2c-0.2-0.4-0.4-0.8-0.8-1.1
	c-0.3-0.3-0.7-0.5-1.2-0.7c-0.5-0.2-1-0.3-1.5-0.3c-0.6,0-1.1,0.1-1.6,0.3c-0.5,0.2-0.9,0.4-1.2,0.8c-0.3,0.3-0.6,0.7-0.8,1.1
	s-0.3,0.8-0.3,1.3c0,0.5,0.1,1,0.3,1.4c0.2,0.4,0.5,0.8,0.8,1.1c0.3,0.3,0.8,0.6,1.2,0.7c0.5,0.2,1,0.3,1.6,0.3s1.1-0.1,1.6-0.3
	s0.8-0.4,1.2-0.8c0.3-0.3,0.6-0.7,0.8-1.1c0.2-0.4,0.3-0.9,0.3-1.4C593.2,116.1,593.1,115.6,593,115.2z"/>
<path class="st5" d="M607.7,105.8v10.5h2.4v1.5h-2.4v3.7H606v-3.7h-8.2l-0.4-1.3l8.8-10.7H607.7z M606,108.3l-6.5,8h6.5V108.3z"/>
<path class="st5" d="M615.8,107.9c-0.6,0.5-1.3,1.1-1.9,2l-1.3-0.9c0.4-0.5,0.7-1,1.1-1.4s0.8-0.8,1.2-1c0.4-0.3,0.9-0.5,1.5-0.6
	s1.1-0.2,1.8-0.2c0.7,0,1.4,0.1,1.9,0.3c0.6,0.2,1.1,0.5,1.5,0.9c0.4,0.4,0.8,0.9,1,1.4s0.4,1.1,0.4,1.8c0,0.6-0.1,1.1-0.2,1.6
	c-0.2,0.5-0.4,0.9-0.7,1.4c-0.3,0.5-0.7,0.9-1.2,1.4c-0.5,0.5-1.1,1-1.8,1.6l-4.1,3.7h8.2v1.6h-10.8V120l5.6-5
	c0.6-0.5,1.1-1,1.5-1.4c0.4-0.4,0.7-0.8,1-1.2c0.3-0.4,0.4-0.7,0.6-1.1c0.1-0.4,0.2-0.7,0.2-1.1c0-0.5-0.1-0.9-0.3-1.2
	s-0.4-0.7-0.7-0.9s-0.6-0.5-1-0.6c-0.4-0.1-0.8-0.2-1.2-0.2C617.2,107.2,616.5,107.4,615.8,107.9z"/>
<g>
	<path d="M675.8,35.4h35.9v11.3h-24.9l-0.7,10.1c2.3-0.6,4.4-1,7.7-1c11.5,0,20.5,5.5,20.5,18.8c0,12.4-8.8,20.3-22.2,20.3
		c-9.4,0-16.2-3.3-21.9-8.8l7.8-9.3c4.4,4,8.8,6.3,14,6.3c6,0,9.8-2.9,9.8-8.2c0-5.1-4.1-8-10.4-8c-3.7,0-7,1-9.8,2.2l-7.4-4.9
		L675.8,35.4z"/>
</g>
</svg>
