<?xml version="1.0" encoding="utf-8"?>
<!-- Generator: Adobe Illustrator 21.0.2, SVG Export Plug-In . SVG Version: 6.00 Build 0)  -->
<svg version="1.1" id="Layer_1" xmlns="http://www.w3.org/2000/svg" xmlns:xlink="http://www.w3.org/1999/xlink" x="0px" y="0px"
	 viewBox="0 0 640 423" style="enable-background:new 0 0 640 423;" xml:space="preserve">
<style type="text/css">
	.st0{fill:#589842;}
	.st1{fill:#F58332;}
	.st2{fill:#010101;}
	.st3{clip-path:url(#SVGID_2_);fill:#FEDC00;}
	.st4{clip-path:url(#SVGID_4_);fill:#127DC2;}
	.st5{clip-path:url(#SVGID_6_);fill:#63A744;}
	.st6{clip-path:url(#SVGID_8_);fill:#E33527;}
	.st7{clip-path:url(#SVGID_10_);fill:#F58332;}
	.st8{clip-path:url(#SVGID_12_);fill:#F58332;}
	.st9{clip-path:url(#SVGID_14_);fill:#FFFFFF;}
	.st10{clip-path:url(#SVGID_16_);fill:#7CB0DF;}
</style>
<path class="st0" d="M323.4,233.2C309.7,253,303,279.5,303,308.1c0,27.4,6.4,50.2,17.3,67.2c14.3-21,20.4-48.7,20.4-73.9
	C341.1,279.8,336.8,253.9,323.4,233.2L323.4,233.2z"/>
<path class="st1" d="M187.1,244.5l2.4-21.9c-6.1,6.4-11,13.7-14.9,21.9H187.1L187.1,244.5z"/>
<path class="st1" d="M164.3,275.5c-1.8,10-3,20.7-3,31.6c0,30.4,7.6,54.8,21,72.4c9.7-12.8,15.5-29.5,15.5-46.2
	C197.8,307.8,185,287.4,164.3,275.5L164.3,275.5z"/>
<polygon class="st2" points="77.1,181 77.1,145 98.6,145 98.6,55 77.1,55 77.1,16.4 191.6,16.4 191.6,55 170,55 170,145 191.6,145 
	191.6,181 "/>
<path class="st2" d="M294.8,181v-35.7h16.7v-37.6c0-11.3-8-16.4-18.3-16.4c-13.2,0-23.2,9.6-23.2,22.8v31.2h17V181h-89.7v-36h16.1
	V91h-16.1V55.3h70.4v24.8c1.3-1,2.3-2.3,3.2-3.5c12.9-14.8,27.7-19.9,47-19.9c27.3,0,49.2,10.9,49.2,41.2V145h14.5v35.7L294.8,181
	L294.8,181z"/>
<path class="st2" d="M524.4,108l-48.2,5.5c-0.6-13.5-3.2-27.7-19.6-27.7c-20.9,0-22.5,17.4-22.5,33.8l0,0v0.6
	c0,16.7,1.6,33.8,22.5,33.8c10.9,0,20.6-6.1,20.6-19.3h1.6h46.6l-0.3,4.2c-8,39.2-43.1,45.3-68.5,45.3c-39.9,0-79.1-19.6-79.1-64
	l0,0c0-44.4,39.2-64,79.1-64C455.9,55.9,518.6,51.8,524.4,108L524.4,108z"/>
<path class="st2" d="M561.7,161.1c0,11.3-9,20.3-20.3,20.3s-20.3-9-20.3-20.3c0-11.3,9-20.3,20.3-20.3S561.7,149.8,561.7,161.1
	L561.7,161.1z"/>
<g>
	<defs>
		<rect id="SVGID_1_" x="11.3" y="192.2" width="616.4" height="218.5"/>
	</defs>
	<clipPath id="SVGID_2_">
		<use xlink:href="#SVGID_1_"  style="overflow:visible;"/>
	</clipPath>
	<path class="st3" d="M248.6,366.5c-13.7,0-22.8-10-26.5-26.2c-2.4-11-2.7-22.5-2.7-33.5c0-20.7,1.2-47.5,9.1-60.8
		c5.8-9.4,14.6-13.1,21.6-13.1c14.6,0,22.2,11.9,25.3,24.9c3,13.1,3.7,35.6,3.7,45C278.7,332.7,274.1,366.5,248.6,366.5
		 M322.2,228.7c-13.1-20.7-35-36.2-70-36.5c-28.9-0.3-50.8,9.4-66.3,25.9l-2.4,22.2h-12.8c-4.9,9.7-8.2,20.1-10.3,31.6
		c21,11.9,34.1,32.6,34.1,58.7c0,16.7-5.8,33.8-15.8,46.9c15.8,21,39.6,32.3,67.5,32.3c34.7,0,58.1-14.9,72.7-36.5
		c-11.3-17.3-17.6-40.5-17.6-68.2C301.5,275.5,308.2,248.8,322.2,228.7"/>
</g>
<g>
	<defs>
		<rect id="SVGID_3_" x="11.3" y="192.2" width="616.4" height="218.5"/>
	</defs>
	<clipPath id="SVGID_4_">
		<use xlink:href="#SVGID_3_"  style="overflow:visible;"/>
	</clipPath>
	<path class="st4" d="M392.8,367.4c-13.7,0-22.8-10-26.5-26.2c-2.4-11-2.7-22.5-2.7-33.5c0-20.7,1.2-47.5,9.1-60.8
		c5.8-9.4,14.6-13.1,21.6-13.1c14.6,0,22.2,11.9,25.3,24.9c3,13.1,3.7,35.6,3.7,45C422.6,333.3,418,367.4,392.8,367.4 M396.4,192.8
		c-34.4-0.6-58.7,13.7-74.2,35.9c13.4,21,18,47.5,18,69.1c0,25.9-6.1,53.5-20.7,75.1c15.8,24,40.8,37.4,71.2,37.4
		c69.4,0,93.4-59.9,93.4-111.7C484.1,255.8,466.7,193.7,396.4,192.8"/>
</g>
<g>
	<defs>
		<rect id="SVGID_5_" x="11.3" y="192.2" width="616.4" height="218.5"/>
	</defs>
	<clipPath id="SVGID_6_">
		<use xlink:href="#SVGID_5_"  style="overflow:visible;"/>
	</clipPath>
	<path class="st5" d="M322.2,228.7c-14,20.1-20.7,47.2-20.7,75.8c0,28,6.4,50.8,17.6,68.2c14.6-21.3,20.7-49.3,20.7-75.1
		C340.2,276.1,335.6,249.7,322.2,228.7"/>
</g>
<g>
	<defs>
		<rect id="SVGID_7_" x="11.3" y="192.2" width="616.4" height="218.5"/>
	</defs>
	<clipPath id="SVGID_8_">
		<use xlink:href="#SVGID_7_"  style="overflow:visible;"/>
	</clipPath>
	<path class="st6" d="M160.7,271.6c-12.8-7.3-28-11.3-45-11.3c-11.3,0-24.9,2.1-33.8,5.8c-2.1,0.9-4.3,2.1-6.4,3.3l3-29.2h92.8
		c4-8.2,9.1-15.8,15.2-22.2l2.1-21H34.4L22.8,309.6l51.7,6.4c3.7-5.5,8.5-13.4,25.6-13.4c21.6,0,31.6,13.7,31.6,32.3
		c0,16.4-8.8,32.3-30.7,32.3c-12.5,0-22.5-5.8-26.2-17.6c-1.5-4.9-1.5-10-1.5-15.2l-61.8,6.4c3.3,15.8,6.4,30.1,19.8,44.1
		c23.7,24,58.1,24,69.4,24c17.6,0,49.9-1.5,72.7-24.9c2.1-2.1,4.3-4.6,6.1-7c-13.4-18-21.3-42.6-21.3-73.3
		C157.6,292.6,158.5,281.9,160.7,271.6"/>
</g>
<g>
	<defs>
		<rect id="SVGID_9_" x="11.3" y="192.2" width="616.4" height="218.5"/>
	</defs>
	<clipPath id="SVGID_10_">
		<use xlink:href="#SVGID_9_"  style="overflow:visible;"/>
	</clipPath>
	<path class="st7" d="M183.8,240.2l2.4-22.2c-6.1,6.4-11,14-15.2,22.2H183.8z"/>
</g>
<g>
	<defs>
		<rect id="SVGID_11_" x="11.3" y="192.2" width="616.4" height="218.5"/>
	</defs>
	<clipPath id="SVGID_12_">
		<use xlink:href="#SVGID_11_"  style="overflow:visible;"/>
	</clipPath>
	<path class="st8" d="M160.7,271.6c-1.8,10.3-3,21-3,31.9c0,30.7,7.9,55.7,21.3,73.3c10-13.1,15.8-30.1,15.8-46.9
		C194.7,304.4,181.3,283.7,160.7,271.6"/>
</g>
<g>
	<defs>
		<rect id="SVGID_13_" x="11.3" y="192.2" width="616.4" height="218.5"/>
	</defs>
	<clipPath id="SVGID_14_">
		<use xlink:href="#SVGID_13_"  style="overflow:visible;"/>
	</clipPath>
	<path class="st9" d="M536.4,368c-13.7,0-22.8-10-26.8-26.2c-2.4-11-2.7-22.5-2.7-33.5c0-20.7,1.2-47.5,9.1-60.8
		c5.8-9.4,14.6-13.1,21.6-13.1c14.6,0,22.2,11.9,25.3,24.9c3,13.1,3.7,35.6,3.7,45C566.2,334,561.7,368,536.4,368 M540.1,193.4
		c-34.4-0.6-58.7,13.7-74.2,35.9c13.4,21,18,47.5,18,69.1c0,28.3-6.1,53.5-20.7,75.1c15.8,24,40.8,37.4,71.2,37.4
		c69.4,0,93.4-59.9,93.4-111.7C627.7,256.4,610.3,194.3,540.1,193.4"/>
</g>
<g>
	<defs>
		<rect id="SVGID_15_" x="11.3" y="192.2" width="616.4" height="218.5"/>
	</defs>
	<clipPath id="SVGID_16_">
		<use xlink:href="#SVGID_15_"  style="overflow:visible;"/>
	</clipPath>
	<path class="st10" d="M466.1,229c-14,20.4-20.7,47.2-20.7,76.4c0,28,6.4,51.1,18,68.8c14.6-21.6,20.7-49.6,20.7-75.5
		C484.1,276.8,479.5,250,466.1,229"/>
</g>
</svg>
