<?xml version="1.0" encoding="utf-8"?>
<!-- Generator: Adobe Illustrator 21.0.2, SVG Export Plug-In . SVG Version: 6.00 Build 0)  -->
<svg version="1.1" id="Layer_1" xmlns="http://www.w3.org/2000/svg" xmlns:xlink="http://www.w3.org/1999/xlink" x="0px" y="0px"
	 viewBox="0 0 230 67.5" style="enable-background:new 0 0 230 67.5;" xml:space="preserve">
<style type="text/css">
	.st0{fill:#010101;}
	.st1{fill:#716E6F;}
	.st2{fill:#F05423;}
	.st3{fill:#84C441;}
	.st4{fill:#2DABE2;}
	.st5{fill:#F9BC15;}
	.st6{fill:none;stroke:#303131;stroke-width:0.3639;stroke-miterlimit:10;}
	.st7{fill:#9D742B;}
</style>
<g>
	<path class="st0" d="M20.6,18.9h-2.1v-8.2c0-0.7,0-1.5,0.1-2.5l0,0c-0.1,0.6-0.2,1-0.3,1.2l-3.8,9.5H13L9.1,9.4
		C9,9.1,8.9,8.7,8.8,8.1l0,0c0,0.5,0.1,1.3,0.1,2.5v8.2h-2V6.1h3l3.3,8.5c0.3,0.7,0.4,1.1,0.5,1.5l0,0c0.2-0.7,0.4-1.2,0.5-1.5
		l3.4-8.4h2.9v12.7H20.6z"/>
	<path class="st0" d="M24.5,7.8c-0.3,0-0.6-0.1-0.9-0.3S23.3,7,23.3,6.7s0.1-0.6,0.4-0.8c0.2-0.2,0.5-0.3,0.9-0.3
		c0.3,0,0.6,0.1,0.9,0.3c0.2,0.2,0.4,0.5,0.4,0.8s-0.1,0.6-0.4,0.8S24.9,7.8,24.5,7.8z M25.5,18.9h-2.1V9.8h2.1V18.9z"/>
	<path class="st0" d="M34.7,18.4C34,18.8,33.1,19,32.1,19c-1.4,0-2.4-0.4-3.3-1.3c-0.8-0.8-1.2-1.9-1.2-3.3c0-1.5,0.4-2.7,1.3-3.6
		s2.1-1.4,3.6-1.4c0.8,0,1.6,0.1,2.2,0.4v1.9c-0.6-0.5-1.3-0.7-2-0.7c-0.9,0-1.6,0.3-2.1,0.9c-0.6,0.6-0.8,1.4-0.8,2.3
		c0,0.9,0.3,1.7,0.8,2.2c0.5,0.5,1.2,0.8,2.1,0.8c0.7,0,1.4-0.3,2.1-0.8L34.7,18.4L34.7,18.4z"/>
	<path class="st0" d="M42.1,11.7c-0.2-0.2-0.6-0.3-1.1-0.3c-0.6,0-1.1,0.3-1.5,0.8c-0.4,0.6-0.6,1.3-0.6,2.2v4.4h-2.1v-9h2.1v1.9
		l0,0c0.2-0.6,0.5-1.1,0.9-1.5s0.9-0.5,1.4-0.5c0.4,0,0.7,0.1,0.9,0.2C42.1,9.9,42.1,11.7,42.1,11.7z"/>
	<path class="st0" d="M47.4,19.1c-1.4,0-2.5-0.4-3.4-1.3c-0.8-0.8-1.3-2-1.3-3.4c0-1.5,0.4-2.7,1.3-3.6c0.9-0.9,2.1-1.3,3.5-1.3
		s2.5,0.4,3.3,1.3c0.8,0.8,1.2,2,1.2,3.5s-0.4,2.6-1.3,3.5S48.8,19.1,47.4,19.1z M47.5,11.2c-0.8,0-1.4,0.3-1.9,0.8
		c-0.5,0.6-0.7,1.3-0.7,2.3s0.2,1.7,0.7,2.3c0.5,0.5,1.1,0.8,1.9,0.8c0.8,0,1.4-0.3,1.9-0.8c0.4-0.5,0.7-1.3,0.7-2.3
		s-0.2-1.8-0.7-2.3S48.3,11.2,47.5,11.2z"/>
	<path class="st0" d="M53.7,18.6v-1.9c0.8,0.6,1.6,0.9,2.5,0.9c1.2,0,1.9-0.4,1.9-1.1c0-0.2-0.1-0.4-0.2-0.5
		c-0.1-0.1-0.3-0.3-0.4-0.4c-0.2-0.1-0.4-0.2-0.6-0.3S56.3,15,56,14.9c-0.4-0.1-0.7-0.3-1-0.5s-0.5-0.4-0.7-0.6
		c-0.2-0.2-0.3-0.4-0.4-0.7s-0.2-0.6-0.2-0.9c0-0.4,0.1-0.8,0.3-1.2c0.2-0.3,0.5-0.6,0.8-0.8s0.7-0.4,1.2-0.5
		c0.4-0.1,0.9-0.2,1.4-0.2c0.8,0,1.6,0.1,2.3,0.4v1.8c-0.6-0.4-1.4-0.7-2.2-0.7c-0.3,0-0.5,0-0.7,0.1s-0.4,0.1-0.5,0.2
		S56,11.5,56,11.6c-0.1,0.1-0.1,0.3-0.1,0.4c0,0.2,0,0.4,0.1,0.5s0.2,0.3,0.4,0.4c0.2,0.1,0.4,0.2,0.6,0.3s0.5,0.2,0.8,0.3
		c0.4,0.2,0.7,0.3,1.1,0.5c0.3,0.2,0.6,0.4,0.8,0.6c0.2,0.2,0.4,0.5,0.5,0.7c0.1,0.3,0.2,0.6,0.2,1c0,0.5-0.1,0.9-0.3,1.2
		c-0.2,0.3-0.5,0.6-0.9,0.9s-0.8,0.4-1.2,0.5s-1,0.2-1.5,0.2C55.2,19.1,54.4,18.9,53.7,18.6z"/>
	<path class="st0" d="M66.1,19.1c-1.4,0-2.5-0.4-3.4-1.3c-0.8-0.8-1.3-2-1.3-3.4c0-1.5,0.4-2.7,1.3-3.6c0.9-0.9,2.1-1.3,3.5-1.3
		s2.5,0.4,3.3,1.3c0.8,0.8,1.2,2,1.2,3.5s-0.4,2.6-1.3,3.5S67.5,19.1,66.1,19.1z M66.2,11.2c-0.8,0-1.4,0.3-1.9,0.8
		c-0.5,0.6-0.7,1.3-0.7,2.3s0.2,1.7,0.7,2.3c0.5,0.5,1.1,0.8,1.9,0.8s1.4-0.3,1.9-0.8c0.4-0.5,0.7-1.3,0.7-2.3s-0.2-1.8-0.7-2.3
		S67,11.2,66.2,11.2z"/>
	<path class="st0" d="M77.8,7.1c-0.3-0.2-0.6-0.2-1-0.2c-1,0-1.5,0.6-1.5,1.7v1.2h2.1v1.6h-2.1v7.5h-2.1v-7.5h-1.6V9.8h1.6V8.3
		c0-1,0.3-1.7,0.9-2.3s1.4-0.8,2.4-0.8c0.5,0,0.9,0.1,1.2,0.2L77.8,7.1L77.8,7.1z"/>
	<path class="st0" d="M84,18.8c-0.4,0.2-0.9,0.3-1.6,0.3c-1.8,0-2.6-0.8-2.6-2.5v-5.1h-1.5V9.8h1.5V7.7l2.1-0.6v2.7H84v1.6h-2.2v4.5
		c0,0.5,0.1,0.9,0.3,1.2c0.2,0.2,0.5,0.3,1,0.3c0.3,0,0.7-0.1,0.9-0.3C84,17.1,84,18.8,84,18.8z"/>
	<path class="st0" d="M27.7,36.1v4.6h-2.1V27.9h3.9c1.5,0,2.6,0.3,3.4,1c0.8,0.7,1.2,1.6,1.2,2.9s-0.4,2.3-1.3,3
		c-0.8,0.8-2,1.2-3.4,1.2L27.7,36.1L27.7,36.1z M27.7,29.7v4.7h1.4c0.9,0,1.6-0.2,2.1-0.6c0.5-0.4,0.7-1,0.7-1.8
		c0-1.5-0.9-2.2-2.6-2.2h-1.6V29.7z"/>
	<path class="st0" d="M42.5,40.7h-2v-1.4l0,0c-0.6,1.1-1.5,1.6-2.8,1.6c-0.9,0-1.6-0.2-2.1-0.7s-0.8-1.1-0.8-1.9c0-1.7,1-2.7,3-3
		l2.7-0.4c0-1.3-0.6-1.9-1.8-1.9c-1.1,0-2.1,0.4-2.9,1.1v-1.8c1-0.6,2.1-0.9,3.3-0.9c2.3,0,3.4,1.1,3.4,3.4
		C42.5,34.8,42.5,40.7,42.5,40.7z M40.5,36.2l-1.9,0.3c-0.6,0.1-1,0.2-1.3,0.4s-0.4,0.6-0.4,1.1c0,0.4,0.1,0.7,0.4,0.9
		s0.6,0.4,1.1,0.4c0.6,0,1.1-0.2,1.6-0.7c0.4-0.4,0.6-1,0.6-1.7L40.5,36.2L40.5,36.2z"/>
	<path class="st0" d="M50.2,33.6c-0.2-0.2-0.6-0.3-1.1-0.3c-0.6,0-1.1,0.3-1.5,0.8c-0.4,0.6-0.6,1.3-0.6,2.2v4.4h-2v-9.1h2v1.9l0,0
		c0.2-0.6,0.5-1.1,0.9-1.5c0.4-0.4,0.9-0.5,1.4-0.5c0.4,0,0.7,0.1,0.9,0.2C50.2,31.7,50.2,33.6,50.2,33.6z"/>
	<path class="st0" d="M57,40.6c-0.4,0.2-0.9,0.3-1.6,0.3c-1.8,0-2.6-0.8-2.6-2.5v-5.1h-1.5v-1.6h1.5v-2.1l2.1-0.6v2.7H57v1.6h-2.2
		v4.5c0,0.5,0.1,0.9,0.3,1.2c0.2,0.2,0.5,0.3,1,0.3c0.3,0,0.7-0.1,0.9-0.3V40.6z"/>
	<path class="st0" d="M66.9,40.7h-2.1v-5.1c0-1.7-0.6-2.5-1.8-2.5c-0.6,0-1.1,0.2-1.6,0.7c-0.4,0.5-0.6,1.1-0.6,1.8v5.2h-2.1v-9.1
		h2.1v1.5l0,0c0.7-1.1,1.7-1.7,2.9-1.7c1,0,1.7,0.3,2.3,1c0.5,0.6,0.8,1.6,0.8,2.8L66.9,40.7L66.9,40.7z"/>
	<path class="st0" d="M77.1,36.7h-6.2c0,0.8,0.3,1.5,0.8,1.9c0.5,0.5,1.2,0.7,2,0.7c1,0,1.9-0.3,2.7-0.9v1.7
		c-0.8,0.5-1.9,0.8-3.3,0.8c-1.3,0-2.4-0.4-3.1-1.2c-0.8-0.8-1.1-2-1.1-3.5c0-1.4,0.4-2.6,1.3-3.5c0.8-0.9,1.9-1.3,3.1-1.3
		s2.2,0.4,2.9,1.2c0.7,0.8,1,1.9,1,3.3v0.8H77.1z M75.1,35.2c0-0.7-0.2-1.3-0.5-1.7s-0.8-0.6-1.4-0.6s-1.1,0.2-1.5,0.6
		s-0.7,1-0.8,1.7H75.1z"/>
	<path class="st0" d="M84.4,33.6c-0.2-0.2-0.6-0.3-1.1-0.3c-0.6,0-1.1,0.3-1.5,0.8c-0.4,0.6-0.6,1.3-0.6,2.2v4.4h-2.1v-9.1h2.1v1.9
		l0,0c0.2-0.6,0.5-1.1,0.9-1.5c0.4-0.4,0.9-0.5,1.4-0.5c0.4,0,0.7,0.1,0.9,0.2C84.4,31.7,84.4,33.6,84.4,33.6z"/>
</g>
<g>
	<path class="st1" d="M84.3,57.8v-1h-1.2v-1.5l0,0L82,55.6l0,0v1.1h-1.8v-0.6c0-0.3,0.1-0.5,0.2-0.7c0.1-0.1,0.3-0.2,0.5-0.2
		s0.3,0,0.5,0.1l0,0v-1l0,0c-0.2-0.1-0.4-0.1-0.7-0.1c-0.3,0-0.7,0.1-0.9,0.2c-0.3,0.2-0.5,0.4-0.6,0.6C79,55.3,79,55.6,79,55.9v0.7
		h-0.8v1H79v4h1.2v-4H82v2.6c0,1.1,0.5,1.6,1.5,1.6c0.2,0,0.3,0,0.5-0.1c0.2,0,0.3-0.1,0.4-0.1l0,0v-1l0,0c-0.1,0-0.1,0.1-0.2,0.1
		s-0.2,0-0.2,0c-0.2,0-0.4-0.1-0.5-0.2c-0.1-0.1-0.2-0.3-0.2-0.6v-2.4h1V57.8z M75.4,61c-0.4,0-0.8-0.1-1-0.4
		c-0.2-0.3-0.4-0.7-0.4-1.2s0.1-0.9,0.4-1.2c0.2-0.3,0.6-0.4,1-0.4s0.7,0.1,1,0.4c0.2,0.3,0.4,0.7,0.4,1.2s-0.1,1-0.3,1.2
		C76.2,60.8,75.9,61,75.4,61 M75.5,56.7c-0.8,0-1.5,0.2-2,0.7s-0.7,1.1-0.7,2c0,0.8,0.2,1.4,0.7,1.9s1.1,0.7,1.8,0.7
		c0.8,0,1.4-0.2,1.9-0.7s0.7-1.1,0.7-1.9c0-0.8-0.2-1.4-0.7-1.9C76.9,56.9,76.3,56.7,75.5,56.7 M70.9,56.7c-0.6,0-1,0.1-1.4,0.4
		c-0.4,0.3-0.5,0.7-0.5,1.1c0,0.2,0,0.4,0.1,0.6c0.1,0.2,0.2,0.3,0.4,0.5c0.2,0.1,0.4,0.3,0.7,0.4c0.3,0.1,0.5,0.2,0.6,0.3
		s0.2,0.1,0.3,0.2c0,0.1,0.1,0.2,0.1,0.3c0,0.3-0.3,0.5-0.8,0.5c-0.2,0-0.4,0-0.7-0.1c-0.2-0.1-0.5-0.2-0.7-0.3l0,0v1.1l0,0
		c0.2,0.1,0.4,0.1,0.6,0.2c0.3,0.1,0.5,0.1,0.7,0.1c0.6,0,1.1-0.1,1.5-0.4c0.4-0.3,0.5-0.7,0.5-1.1c0-0.3-0.1-0.6-0.3-0.9
		c-0.2-0.2-0.5-0.4-1-0.6c-0.4-0.1-0.6-0.3-0.7-0.4c-0.1-0.1-0.1-0.2-0.1-0.4c0-0.1,0.1-0.3,0.2-0.4c0.1-0.1,0.3-0.1,0.5-0.1
		s0.4,0,0.6,0.1s0.4,0.1,0.5,0.2l0,0v-1.1l0,0c-0.1-0.1-0.3-0.1-0.5-0.1C71.3,56.7,71.1,56.7,70.9,56.7 M65.9,61
		c-0.4,0-0.8-0.1-1-0.4c-0.2-0.3-0.4-0.7-0.4-1.2s0.1-0.9,0.4-1.2c0.2-0.3,0.6-0.4,1-0.4s0.7,0.1,1,0.4c0.2,0.3,0.4,0.7,0.4,1.2
		s-0.1,1-0.3,1.2C66.7,60.8,66.3,61,65.9,61 M65.9,56.7c-0.8,0-1.5,0.2-1.9,0.7c-0.5,0.5-0.7,1.1-0.7,2c0,0.8,0.2,1.4,0.7,1.9
		s1.1,0.7,1.8,0.7c0.8,0,1.4-0.2,1.9-0.7s0.7-1.1,0.7-1.9c0-0.8-0.2-1.4-0.7-1.9C67.3,56.9,66.7,56.7,65.9,56.7 M61.5,57.7v-0.9
		h-1.2v5h1.2v-2.6c0-0.4,0.1-0.8,0.3-1.1s0.4-0.4,0.8-0.4c0.1,0,0.2,0,0.4,0.1c0.1,0,0.2,0.1,0.3,0.1l0,0v-1.2l0,0
		c-0.1,0-0.3-0.1-0.5-0.1c-0.3,0-0.6,0.1-0.8,0.3C61.7,57.2,61.6,57.4,61.5,57.7L61.5,57.7z M58.2,56.7c-0.5,0-1,0.1-1.4,0.3
		s-0.7,0.6-0.9,1s-0.3,0.9-0.3,1.4s0.1,0.9,0.3,1.3c0.2,0.4,0.5,0.7,0.9,0.9s0.8,0.3,1.3,0.3c0.6,0,1-0.1,1.4-0.3l0,0v-1.1l0,0
		c-0.2,0.1-0.4,0.2-0.6,0.3c-0.2,0.1-0.4,0.1-0.6,0.1c-0.5,0-0.8-0.1-1.1-0.4c-0.3-0.3-0.4-0.7-0.4-1.2s0.1-0.9,0.4-1.2
		c0.3-0.3,0.7-0.5,1.1-0.5c0.4,0,0.8,0.1,1.1,0.4l0,0v-1l0,0c-0.1-0.1-0.3-0.1-0.5-0.2C58.6,56.7,58.4,56.7,58.2,56.7 M54.7,56.8
		h-1.2v5h1.2V56.8L54.7,56.8z M54.1,54.7c-0.2,0-0.4,0.1-0.5,0.2c-0.1,0.1-0.2,0.3-0.2,0.5s0.1,0.4,0.2,0.5c0.1,0.1,0.3,0.2,0.5,0.2
		s0.4-0.1,0.5-0.2c0.1-0.1,0.2-0.3,0.2-0.5s-0.1-0.4-0.2-0.5C54.5,54.8,54.3,54.7,54.1,54.7 M51.2,56.4v5.4h1.2v-7h-1.7L48.6,60
		l-2.1-5.2h-1.7v7h1.1v-5.4l0,0l2.2,5.4H49L51.2,56.4L51.2,56.4L51.2,56.4z"/>
	<path class="st2" d="M35.2,58h-5.5v-5.5h5.5V58z"/>
	<path class="st3" d="M41.3,58h-5.5v-5.5h5.5V58L41.3,58z"/>
	<path class="st4" d="M35.2,64.2h-5.5v-5.5h5.5V64.2z"/>
	<path class="st5" d="M41.3,64.2h-5.5v-5.5h5.5V64.2L41.3,64.2z"/>
</g>
<line class="st6" x1="92.2" y1="2.8" x2="92.2" y2="64.1"/>
<text transform="matrix(1 0 0 1 750 500)" style="font-family:'ArialMT'; font-size:12px;">9d742b</text>
<g>
	<g>
		<path class="st7" d="M107.3,22.3c-0.6,0.3-1.3,0.5-2.1,0.5c-0.9,0-1.6-0.3-2.2-0.8c-0.6-0.6-0.8-1.3-0.8-2.2
			c0-0.9,0.3-1.7,0.9-2.3s1.4-0.9,2.3-0.9c0.7,0,1.3,0.1,1.7,0.3v1c-0.5-0.3-1-0.5-1.7-0.5s-1.2,0.2-1.6,0.6s-0.6,1-0.6,1.7
			c0,0.7,0.2,1.3,0.5,1.7c0.4,0.4,0.8,0.6,1.5,0.6c0.4,0,0.8-0.1,1.1-0.2v-1.6H105v-0.8h2.3V22.3z"/>
		<path class="st7" d="M110.5,22.8c-0.7,0-1.2-0.2-1.6-0.6s-0.6-0.9-0.6-1.6s0.2-1.3,0.6-1.7s1-0.6,1.7-0.6s1.2,0.2,1.6,0.6
			c0.4,0.4,0.6,1,0.6,1.7c0,0.7-0.2,1.3-0.6,1.7C111.7,22.5,111.2,22.8,110.5,22.8z M110.5,19c-0.4,0-0.7,0.1-0.9,0.4
			c-0.2,0.3-0.3,0.6-0.3,1.1s0.1,0.8,0.3,1.1c0.2,0.3,0.5,0.4,0.9,0.4s0.7-0.1,0.9-0.4c0.2-0.3,0.3-0.6,0.3-1.1s-0.1-0.9-0.3-1.1
			C111.2,19.1,110.9,19,110.5,19z"/>
		<path class="st7" d="M114.7,22.6h-1v-6.5h1V22.6z"/>
		<path class="st7" d="M120,22.6h-1V22l0,0c-0.3,0.6-0.8,0.8-1.5,0.8c-0.5,0-1-0.2-1.3-0.6c-0.3-0.4-0.5-0.9-0.5-1.6
			c0-0.7,0.2-1.3,0.5-1.7c0.4-0.4,0.8-0.7,1.4-0.7s1,0.2,1.3,0.7l0,0v-2.7h1L120,22.6L120,22.6z M119,20.6V20c0-0.3-0.1-0.6-0.3-0.8
			c-0.2-0.2-0.5-0.3-0.8-0.3c-0.4,0-0.7,0.1-0.9,0.4c-0.2,0.3-0.3,0.7-0.3,1.1s0.1,0.8,0.3,1.1c0.2,0.3,0.5,0.4,0.8,0.4
			s0.6-0.1,0.8-0.4C118.9,21.4,119,21,119,20.6z"/>
		<path class="st7" d="M128.8,22.6h-1.1l-0.6-1.6h-2.4l-0.5,1.6h-1.1l2.3-6.1h1.1L128.8,22.6z M126.9,20.3l-0.9-2.4
			c0-0.1-0.1-0.2-0.1-0.4l0,0c0,0.2-0.1,0.3-0.1,0.4l-0.8,2.4H126.9z"/>
		<path class="st7" d="M130.5,22L130.5,22v2.7h-1v-6.5h1V19l0,0c0.3-0.6,0.8-0.9,1.5-0.9c0.6,0,1,0.2,1.3,0.6s0.5,0.9,0.5,1.6
			c0,0.7-0.2,1.3-0.5,1.7s-0.8,0.7-1.4,0.7C131.3,22.8,130.9,22.5,130.5,22z M130.5,20.3v0.6c0,0.3,0.1,0.6,0.3,0.8
			c0.2,0.2,0.5,0.3,0.8,0.3c0.4,0,0.7-0.1,0.9-0.4c0.2-0.3,0.3-0.7,0.3-1.2c0-0.4-0.1-0.8-0.3-1c-0.2-0.2-0.5-0.4-0.8-0.4
			c-0.4,0-0.6,0.1-0.9,0.4C130.6,19.6,130.5,20,130.5,20.3z"/>
		<path class="st7" d="M135.8,22L135.8,22v2.7h-1v-6.5h1V19l0,0c0.3-0.6,0.8-0.9,1.5-0.9c0.6,0,1,0.2,1.3,0.6s0.5,0.9,0.5,1.6
			c0,0.7-0.2,1.3-0.5,1.7s-0.8,0.7-1.4,0.7C136.5,22.8,136.1,22.5,135.8,22z M135.8,20.3v0.6c0,0.3,0.1,0.6,0.3,0.8
			c0.2,0.2,0.5,0.3,0.8,0.3c0.4,0,0.7-0.1,0.9-0.4c0.2-0.3,0.3-0.7,0.3-1.2c0-0.4-0.1-0.8-0.3-1c-0.2-0.2-0.5-0.4-0.8-0.4
			c-0.4,0-0.6,0.1-0.9,0.4C135.9,19.6,135.8,20,135.8,20.3z"/>
		<path class="st7" d="M141.1,22.6h-1v-6.5h1V22.6z"/>
		<path class="st7" d="M142.8,17.4c-0.2,0-0.3-0.1-0.4-0.2c-0.1-0.1-0.2-0.2-0.2-0.4s0.1-0.3,0.2-0.4c0.1-0.1,0.3-0.2,0.4-0.2
			c0.2,0,0.3,0.1,0.4,0.2c0.1,0.1,0.2,0.2,0.2,0.4s-0.1,0.3-0.2,0.4C143.2,17.4,143,17.4,142.8,17.4z M143.3,22.6h-1v-4.4h1V22.6z"
			/>
		<path class="st7" d="M147.7,22.5c-0.3,0.2-0.8,0.3-1.2,0.3c-0.6,0-1.2-0.2-1.6-0.6c-0.4-0.4-0.6-0.9-0.6-1.6
			c0-0.7,0.2-1.3,0.6-1.7s1-0.7,1.7-0.7c0.4,0,0.7,0.1,1.1,0.2v0.9c-0.3-0.2-0.6-0.3-1-0.3s-0.8,0.1-1,0.4c-0.2,0.3-0.4,0.7-0.4,1.1
			c0,0.5,0.1,0.8,0.4,1.1c0.3,0.3,0.6,0.4,1,0.4s0.7-0.1,1-0.4V22.5z"/>
		<path class="st7" d="M152.1,22.6h-1V22l0,0c-0.3,0.5-0.7,0.8-1.3,0.8c-0.4,0-0.8-0.1-1-0.3c-0.2-0.2-0.4-0.5-0.4-0.9
			c0-0.8,0.5-1.3,1.4-1.4l1.3-0.2c0-0.6-0.3-0.9-0.9-0.9c-0.5,0-1,0.2-1.4,0.5v-0.9c0.5-0.3,1-0.4,1.6-0.4c1.1,0,1.7,0.5,1.7,1.6
			L152.1,22.6L152.1,22.6z M151.1,20.5l-0.9,0.1c-0.3,0-0.5,0.1-0.6,0.2s-0.2,0.3-0.2,0.5c0,0.2,0.1,0.3,0.2,0.5
			c0.1,0.1,0.3,0.2,0.5,0.2c0.3,0,0.6-0.1,0.7-0.3c0.2-0.2,0.3-0.5,0.3-0.8V20.5z"/>
		<path class="st7" d="M155.6,22.6c-0.2,0.1-0.4,0.1-0.8,0.1c-0.8,0-1.3-0.4-1.3-1.2V19h-0.7v-0.8h0.7v-1l1-0.3v1.3h1V19h-1v2.2
			c0,0.3,0,0.4,0.1,0.6s0.3,0.2,0.5,0.2s0.3,0,0.4-0.1v0.7H155.6z"/>
		<path class="st7" d="M156.9,17.4c-0.2,0-0.3-0.1-0.4-0.2c-0.1-0.1-0.2-0.2-0.2-0.4s0.1-0.3,0.2-0.4c0.1-0.1,0.3-0.2,0.4-0.2
			c0.2,0,0.3,0.1,0.4,0.2c0.1,0.1,0.2,0.2,0.2,0.4s-0.1,0.3-0.2,0.4C157.3,17.4,157.1,17.4,156.9,17.4z M157.4,22.6h-1v-4.4h1V22.6z
			"/>
		<path class="st7" d="M160.7,22.8c-0.7,0-1.2-0.2-1.6-0.6c-0.4-0.4-0.6-0.9-0.6-1.6s0.2-1.3,0.6-1.7s1-0.6,1.7-0.6s1.2,0.2,1.6,0.6
			c0.4,0.4,0.6,1,0.6,1.7c0,0.7-0.2,1.3-0.6,1.7C161.9,22.5,161.4,22.8,160.7,22.8z M160.7,19c-0.4,0-0.7,0.1-0.9,0.4
			c-0.2,0.3-0.3,0.6-0.3,1.1s0.1,0.8,0.3,1.1c0.2,0.3,0.5,0.4,0.9,0.4s0.7-0.1,0.9-0.4c0.2-0.3,0.3-0.6,0.3-1.1s-0.1-0.9-0.3-1.1
			C161.4,19.1,161.1,19,160.7,19z"/>
		<path class="st7" d="M167.8,22.6h-1v-2.4c0-0.8-0.3-1.2-0.9-1.2c-0.3,0-0.5,0.1-0.7,0.3c-0.2,0.2-0.3,0.5-0.3,0.9v2.5h-1v-4.5h1
			V19l0,0c0.3-0.6,0.8-0.8,1.4-0.8c0.5,0,0.8,0.2,1.1,0.5s0.4,0.8,0.4,1.3V22.6z"/>
		<path class="st7" d="M171.5,22.6v-6.1h1.8c2.3,0,3.4,1,3.4,3c0,0.9-0.3,1.7-0.9,2.3s-1.5,0.9-2.5,0.9h-1.8V22.6z M172.5,17.5v4.4
			h0.8c0.7,0,1.3-0.2,1.7-0.6s0.6-0.9,0.6-1.7c0-1.4-0.7-2.1-2.2-2.1H172.5z"/>
		<path class="st7" d="M181.4,20.8h-3c0,0.4,0.1,0.7,0.4,0.9c0.3,0.2,0.6,0.3,1,0.3c0.5,0,0.9-0.1,1.3-0.4v0.8
			c-0.4,0.3-0.9,0.4-1.6,0.4c-0.6,0-1.1-0.2-1.5-0.6c-0.4-0.4-0.5-1-0.5-1.7c0-0.7,0.2-1.2,0.6-1.7c0.4-0.4,0.9-0.6,1.5-0.6
			s1.1,0.2,1.4,0.6c0.3,0.4,0.5,0.9,0.5,1.6L181.4,20.8L181.4,20.8z M180.4,20c0-0.4-0.1-0.6-0.3-0.8s-0.4-0.3-0.7-0.3
			s-0.5,0.1-0.7,0.3s-0.3,0.5-0.4,0.8H180.4z"/>
		<path class="st7" d="M186.1,18.3l-1.7,4.4h-1.1l-1.6-4.4h1.1l1,3.1c0.1,0.2,0.1,0.4,0.1,0.6l0,0c0-0.2,0.1-0.4,0.1-0.6l1-3.1
			H186.1z"/>
		<path class="st7" d="M190.4,20.8h-3c0,0.4,0.1,0.7,0.4,0.9c0.3,0.2,0.6,0.3,1,0.3c0.5,0,0.9-0.1,1.3-0.4v0.8
			c-0.4,0.3-0.9,0.4-1.6,0.4c-0.6,0-1.1-0.2-1.5-0.6c-0.4-0.4-0.5-1-0.5-1.7c0-0.7,0.2-1.2,0.6-1.7c0.4-0.4,0.9-0.6,1.5-0.6
			s1.1,0.2,1.4,0.6c0.3,0.4,0.5,0.9,0.5,1.6L190.4,20.8L190.4,20.8z M189.4,20c0-0.4-0.1-0.6-0.3-0.8s-0.4-0.3-0.7-0.3
			s-0.5,0.1-0.7,0.3s-0.3,0.5-0.4,0.8H189.4z"/>
		<path class="st7" d="M192.3,22.6h-1v-6.5h1V22.6z"/>
		<path class="st7" d="M195.5,22.8c-0.7,0-1.2-0.2-1.6-0.6c-0.4-0.4-0.6-0.9-0.6-1.6s0.2-1.3,0.6-1.7s1-0.6,1.7-0.6s1.2,0.2,1.6,0.6
			c0.4,0.4,0.6,1,0.6,1.7c0,0.7-0.2,1.3-0.6,1.7C196.8,22.5,196.2,22.8,195.5,22.8z M195.6,19c-0.4,0-0.7,0.1-0.9,0.4
			c-0.2,0.3-0.3,0.6-0.3,1.1s0.1,0.8,0.3,1.1c0.2,0.3,0.5,0.4,0.9,0.4s0.7-0.1,0.9-0.4c0.2-0.3,0.3-0.6,0.3-1.1s-0.1-0.9-0.3-1.1
			C196.3,19.1,196,19,195.6,19z"/>
		<path class="st7" d="M199.8,22L199.8,22v2.7h-1v-6.5h1V19l0,0c0.3-0.6,0.8-0.9,1.5-0.9c0.6,0,1,0.2,1.3,0.6s0.5,0.9,0.5,1.6
			c0,0.7-0.2,1.3-0.5,1.7s-0.8,0.7-1.4,0.7C200.6,22.8,200.1,22.5,199.8,22z M199.8,20.3v0.6c0,0.3,0.1,0.6,0.3,0.8
			c0.2,0.2,0.5,0.3,0.8,0.3c0.4,0,0.7-0.1,0.9-0.4s0.3-0.7,0.3-1.2c0-0.4-0.1-0.8-0.3-1c-0.2-0.2-0.5-0.4-0.8-0.4
			c-0.4,0-0.6,0.1-0.8,0.4C199.9,19.6,199.8,20,199.8,20.3z"/>
		<path class="st7" d="M210.6,22.6h-1v-2.4c0-0.5-0.1-0.8-0.2-1c-0.1-0.2-0.3-0.3-0.7-0.3c-0.3,0-0.5,0.1-0.7,0.4
			c-0.2,0.3-0.3,0.6-0.3,0.9v2.4h-1v-2.4c0-0.8-0.3-1.2-0.9-1.2c-0.3,0-0.5,0.1-0.7,0.4c-0.2,0.2-0.3,0.6-0.3,1v2.4h-1v-4.6h1V19
			l0,0c0.3-0.5,0.8-0.8,1.4-0.8c0.3,0,0.6,0.1,0.8,0.2c0.2,0.2,0.4,0.4,0.5,0.7c0.3-0.6,0.8-0.9,1.5-0.9c1,0,1.4,0.6,1.4,1.8v2.7
			H210.6z"/>
		<path class="st7" d="M215.5,20.8h-3c0,0.4,0.1,0.7,0.4,0.9c0.3,0.2,0.6,0.3,1,0.3c0.5,0,0.9-0.1,1.3-0.4v0.8
			c-0.4,0.3-0.9,0.4-1.6,0.4c-0.6,0-1.1-0.2-1.5-0.6c-0.4-0.4-0.5-1-0.5-1.7c0-0.7,0.2-1.2,0.6-1.7c0.4-0.4,0.9-0.6,1.5-0.6
			s1.1,0.2,1.4,0.6c0.3,0.4,0.5,0.9,0.5,1.6L215.5,20.8L215.5,20.8z M214.6,20c0-0.4-0.1-0.6-0.3-0.8s-0.4-0.3-0.7-0.3
			s-0.5,0.1-0.7,0.3s-0.3,0.5-0.4,0.8H214.6z"/>
		<path class="st7" d="M220.3,22.6h-1v-2.4c0-0.8-0.3-1.2-0.9-1.2c-0.3,0-0.5,0.1-0.7,0.3c-0.2,0.2-0.3,0.5-0.3,0.9v2.5h-1v-4.5h1
			V19l0,0c0.3-0.6,0.8-0.8,1.4-0.8c0.5,0,0.8,0.2,1.1,0.5s0.4,0.8,0.4,1.3V22.6z"/>
		<path class="st7" d="M223.8,22.6c-0.2,0.1-0.4,0.1-0.8,0.1c-0.8,0-1.3-0.4-1.3-1.2V19H221v-0.8h0.7v-1l1-0.3v1.3h1V19h-1v2.2
			c0,0.3,0,0.4,0.1,0.6s0.3,0.2,0.5,0.2s0.3,0,0.4-0.1v0.7H223.8z"/>
	</g>
	<g>
		<path class="st7" d="M107.3,48.8c-0.6,0.3-1.3,0.5-2.1,0.5c-0.9,0-1.6-0.3-2.2-0.8c-0.6-0.6-0.8-1.3-0.8-2.2s0.3-1.7,0.9-2.3
			s1.4-0.9,2.3-0.9c0.7,0,1.3,0.1,1.7,0.3v1c-0.5-0.3-1-0.5-1.7-0.5s-1.2,0.2-1.6,0.6c-0.4,0.4-0.6,1-0.6,1.7s0.2,1.3,0.5,1.7
			c0.4,0.4,0.8,0.6,1.5,0.6c0.4,0,0.8-0.1,1.1-0.2v-1.5H105v-0.9h2.3V48.8z"/>
		<path class="st7" d="M110.5,49.3c-0.7,0-1.2-0.2-1.6-0.6c-0.4-0.4-0.6-0.9-0.6-1.6c0-0.7,0.2-1.3,0.6-1.7s1-0.6,1.7-0.6
			s1.2,0.2,1.6,0.6c0.4,0.4,0.6,1,0.6,1.7s-0.2,1.3-0.6,1.7C111.7,49.1,111.2,49.3,110.5,49.3z M110.5,45.5c-0.4,0-0.7,0.1-0.9,0.4
			c-0.2,0.3-0.3,0.6-0.3,1.1s0.1,0.8,0.3,1.1c0.2,0.3,0.5,0.4,0.9,0.4s0.7-0.1,0.9-0.4s0.3-0.6,0.3-1.1s-0.1-0.9-0.3-1.1
			C111.2,45.8,110.9,45.5,110.5,45.5z"/>
		<path class="st7" d="M114.7,49.3h-1v-6.5h1V49.3z"/>
		<path class="st7" d="M120,49.3h-1v-0.7l0,0c-0.3,0.6-0.8,0.8-1.5,0.8c-0.5,0-1-0.2-1.3-0.6c-0.3-0.4-0.5-0.9-0.5-1.6
			c0-0.7,0.2-1.3,0.5-1.7c0.4-0.4,0.8-0.7,1.4-0.7s1,0.2,1.3,0.7l0,0v-2.7h1L120,49.3L120,49.3z M119,47.3v-0.6
			c0-0.3-0.1-0.6-0.3-0.8c-0.2-0.2-0.5-0.3-0.8-0.3c-0.4,0-0.7,0.1-0.9,0.4c-0.2,0.3-0.3,0.7-0.3,1.1c0,0.4,0.1,0.8,0.3,1.1
			c0.2,0.3,0.5,0.4,0.8,0.4s0.6-0.1,0.8-0.4C118.9,47.9,119,47.6,119,47.3z"/>
		<path class="st7" d="M123.8,49.3v-6.1h1.8c2.3,0,3.4,1,3.4,3c0,0.9-0.3,1.7-0.9,2.3c-0.6,0.6-1.5,0.9-2.5,0.9h-1.8V49.3z
			 M124.8,44v4.4h0.8c0.7,0,1.3-0.2,1.7-0.6c0.4-0.4,0.6-0.9,0.6-1.7c0-1.4-0.7-2.1-2.2-2.1C125.7,44.1,124.8,44.1,124.8,44z"/>
		<path class="st7" d="M133.7,47.3h-3c0,0.4,0.1,0.7,0.4,0.9c0.2,0.2,0.6,0.3,1,0.3c0.5,0,0.9-0.1,1.3-0.4v0.8
			c-0.4,0.3-0.9,0.4-1.6,0.4c-0.6,0-1.1-0.2-1.5-0.6s-0.5-1-0.5-1.7s0.2-1.2,0.6-1.7s0.9-0.6,1.5-0.6s1.1,0.2,1.4,0.6
			c0.3,0.4,0.5,0.9,0.5,1.6L133.7,47.3L133.7,47.3z M132.7,46.6c0-0.4-0.1-0.6-0.3-0.8s-0.4-0.3-0.7-0.3s-0.5,0.1-0.7,0.3
			s-0.3,0.5-0.4,0.8H132.7z"/>
		<path class="st7" d="M138.4,44.8l-1.7,4.4h-1.1l-1.6-4.4h1.1l1,3.1c0.1,0.2,0.1,0.4,0.1,0.6l0,0c0-0.2,0.1-0.4,0.1-0.6l1-3.1
			H138.4z"/>
		<path class="st7" d="M141.7,49.3c-0.9,0-1.6-0.3-2.1-0.9s-0.8-1.3-0.8-2.2c0-1,0.3-1.8,0.8-2.4c0.5-0.6,1.3-0.9,2.2-0.9
			s1.5,0.3,2.1,0.9c0.6,0.6,0.8,1.3,0.8,2.2c0,1-0.3,1.8-0.8,2.4S142.6,49.3,141.7,49.3z M141.7,43.9c-0.6,0-1,0.2-1.4,0.6
			s-0.5,1-0.5,1.7s0.2,1.2,0.5,1.6c0.3,0.4,0.8,0.6,1.3,0.6c0.6,0,1-0.2,1.4-0.6c0.3-0.4,0.5-0.9,0.5-1.7c0-0.7-0.2-1.3-0.5-1.7
			C142.7,44.1,142.3,43.9,141.7,43.9z"/>
		<path class="st7" d="M146.6,48.6L146.6,48.6v2.7h-1v-6.5h1v0.8l0,0c0.3-0.6,0.8-0.9,1.5-0.9c0.6,0,1,0.2,1.3,0.6
			c0.3,0.4,0.5,0.9,0.5,1.6c0,0.7-0.2,1.3-0.5,1.7s-0.8,0.7-1.4,0.7C147.4,49.3,146.9,49.1,146.6,48.6z M146.6,46.8v0.5
			c0,0.3,0.1,0.6,0.3,0.8s0.5,0.3,0.8,0.3c0.4,0,0.7-0.1,0.9-0.4c0.2-0.3,0.3-0.7,0.3-1.2c0-0.4-0.1-0.8-0.3-1s-0.5-0.4-0.8-0.4
			c-0.4,0-0.6,0.1-0.9,0.4C146.7,46.3,146.6,46.5,146.6,46.8z"/>
		<path class="st7" d="M150.6,49.1v-0.9c0.4,0.3,0.8,0.4,1.2,0.4c0.6,0,0.9-0.2,0.9-0.5c0-0.1,0-0.2-0.1-0.3s-0.1-0.1-0.2-0.2
			c-0.1-0.1-0.2-0.1-0.3-0.1s-0.2-0.1-0.4-0.1c-0.2-0.1-0.3-0.1-0.5-0.2c-0.1-0.1-0.3-0.2-0.4-0.3s-0.2-0.2-0.2-0.3
			s-0.1-0.3-0.1-0.4c0-0.2,0-0.4,0.1-0.6c0.1-0.2,0.2-0.3,0.4-0.4c0.2-0.1,0.4-0.2,0.6-0.2c0.2-0.1,0.4-0.1,0.7-0.1
			c0.4,0,0.8,0.1,1.1,0.2v0.7c-0.3-0.2-0.7-0.3-1.1-0.3c-0.1,0-0.2,0-0.3,0s-0.2,0.1-0.3,0.1s-0.1,0.1-0.2,0.2
			c0,0.1-0.1,0.1-0.1,0.2c0,0.1,0,0.2,0.1,0.2s0.1,0.1,0.2,0.2c0.1,0,0.2,0.1,0.3,0.1s0.2,0.1,0.4,0.1c0.2,0.1,0.4,0.2,0.5,0.2
			c0.1,0.1,0.3,0.2,0.4,0.3c0.1,0.1,0.2,0.2,0.2,0.3c0.1,0.1,0.1,0.3,0.1,0.5s-0.1,0.4-0.2,0.6c-0.1,0.2-0.2,0.3-0.4,0.4
			c-0.2,0.1-0.4,0.2-0.6,0.2s-0.5,0.1-0.7,0.1C151.4,49.3,151,49.3,150.6,49.1z"/>
	</g>
	<g>
		<path class="st7" d="M107.2,35.5c-0.6,0.4-1.4,0.5-2.2,0.5c-0.9,0-1.7-0.3-2.2-0.9c-0.6-0.6-0.9-1.3-0.9-2.3s0.3-1.8,0.9-2.4
			s1.4-0.9,2.4-0.9c0.7,0,1.3,0.1,1.7,0.3V31c-0.5-0.3-1-0.5-1.7-0.5s-1.2,0.2-1.6,0.7c-0.4,0.4-0.6,1-0.6,1.7s0.2,1.3,0.5,1.7
			c0.4,0.4,0.9,0.6,1.5,0.6c0.4,0,0.8-0.1,1.1-0.2v-1.5h-1.3v-0.9h2.3L107.2,35.5L107.2,35.5z"/>
		<path class="st7" d="M110.4,36c-0.7,0-1.2-0.2-1.6-0.6c-0.4-0.4-0.6-1-0.6-1.7s0.2-1.3,0.6-1.8c0.4-0.4,1-0.6,1.7-0.6
			s1.2,0.2,1.6,0.6c0.4,0.4,0.6,1,0.6,1.7s-0.2,1.3-0.6,1.7C111.7,35.8,111.1,36,110.4,36z M110.5,32.3c-0.4,0-0.7,0.1-0.9,0.4
			s-0.3,0.7-0.3,1.1c0,0.5,0.1,0.8,0.3,1.1c0.2,0.3,0.5,0.4,0.9,0.4s0.7-0.1,0.9-0.4c0.2-0.3,0.3-0.6,0.3-1.1s-0.1-0.9-0.3-1.1
			C111.2,32.3,110.9,32.3,110.5,32.3z"/>
		<path class="st7" d="M114.8,36h-1v-6.6h1V36z"/>
		<path class="st7" d="M120.1,36h-1v-0.8l0,0c-0.3,0.6-0.8,0.9-1.5,0.9c-0.5,0-1-0.2-1.3-0.6c-0.3-0.4-0.5-0.9-0.5-1.6
			s0.2-1.3,0.5-1.8c0.4-0.4,0.8-0.7,1.5-0.7c0.6,0,1,0.2,1.3,0.7l0,0v-2.8h1V36z M119.2,34v-0.6c0-0.3-0.1-0.6-0.3-0.8
			c-0.2-0.2-0.5-0.3-0.8-0.3c-0.4,0-0.7,0.1-0.9,0.4s-0.3,0.7-0.3,1.2s0.1,0.8,0.3,1.1c0.2,0.3,0.5,0.4,0.8,0.4s0.6-0.1,0.8-0.4
			C119,34.6,119.2,34.3,119.2,34z"/>
		<path class="st7" d="M124,36v-6.2h1.8c2.3,0,3.4,1,3.4,3c0,1-0.3,1.7-1,2.3c-0.6,0.6-1.5,0.9-2.6,0.9H124z M125.1,30.6v4.5h0.8
			c0.7,0,1.3-0.2,1.7-0.6c0.4-0.4,0.6-1,0.6-1.7c0-1.5-0.8-2.2-2.3-2.2C125.9,30.6,125.1,30.6,125.1,30.6z"/>
		<path class="st7" d="M133.7,36h-1v-0.7l0,0c-0.3,0.5-0.8,0.8-1.4,0.8c-0.4,0-0.8-0.1-1-0.4c-0.2-0.2-0.4-0.6-0.4-0.9
			c0-0.8,0.5-1.3,1.5-1.5l1.3-0.2c0-0.6-0.3-1-0.9-1c-0.5,0-1,0.2-1.4,0.5v-0.7c0.5-0.3,1-0.4,1.6-0.4c1.1,0,1.7,0.6,1.7,1.7
			L133.7,36L133.7,36z M132.7,33.8l-0.9,0.1c-0.3,0-0.5,0.1-0.7,0.2c-0.1,0.1-0.2,0.3-0.2,0.5s0.1,0.3,0.2,0.5
			c0.1,0.1,0.3,0.2,0.5,0.2c0.3,0,0.6-0.1,0.8-0.3s0.3-0.5,0.3-0.8L132.7,33.8L132.7,33.8z"/>
		<path class="st7" d="M137.3,36c-0.2,0.1-0.5,0.1-0.8,0.1c-0.9,0-1.3-0.4-1.3-1.2v-2.5h-0.7v-0.8h0.7v-1l1-0.3v1.3h1.1v0.8h-1.1
			v2.2c0,0.3,0,0.5,0.1,0.6c0.1,0.1,0.3,0.2,0.5,0.2s0.3,0,0.4-0.1V36H137.3z"/>
		<path class="st7" d="M141.6,36h-1v-0.7l0,0c-0.3,0.5-0.8,0.8-1.4,0.8c-0.4,0-0.8-0.1-1-0.4c-0.2-0.2-0.4-0.6-0.4-0.9
			c0-0.8,0.5-1.3,1.5-1.5l1.3-0.2c0-0.6-0.3-1-0.9-1c-0.5,0-1,0.2-1.4,0.5v-0.7c0.5-0.3,1-0.4,1.6-0.4c1.1,0,1.7,0.6,1.7,1.7
			L141.6,36L141.6,36z M140.6,33.8l-0.9,0.1c-0.3,0-0.5,0.1-0.7,0.2c-0.1,0.1-0.2,0.3-0.2,0.5s0.1,0.3,0.2,0.5
			c0.1,0.1,0.3,0.2,0.5,0.2c0.3,0,0.6-0.1,0.8-0.3s0.3-0.5,0.3-0.8L140.6,33.8L140.6,33.8z"/>
		<path class="st7" d="M150.5,36h-1.1l-0.6-1.6h-2.4l-0.5,1.6h-1.1l2.3-6.2h1.2L150.5,36z M148.5,33.5l-0.9-2.5
			c0-0.1-0.1-0.2-0.1-0.4l0,0c0,0.2-0.1,0.3-0.1,0.4l-0.9,2.5H148.5z"/>
		<path class="st7" d="M155.2,36h-1v-2.5c0-0.8-0.3-1.2-0.9-1.2c-0.3,0-0.6,0.1-0.8,0.3s-0.3,0.5-0.3,0.9v2.5h-1v-4.4h1v0.7l0,0
			c0.3-0.6,0.8-0.8,1.4-0.8c0.5,0,0.9,0.2,1.1,0.5c0.3,0.3,0.4,0.8,0.4,1.4V36H155.2z"/>
		<path class="st7" d="M159.8,36h-1v-0.7l0,0c-0.3,0.5-0.8,0.8-1.4,0.8c-0.4,0-0.8-0.1-1-0.4c-0.2-0.2-0.4-0.6-0.4-0.9
			c0-0.8,0.5-1.3,1.5-1.5l1.3-0.2c0-0.6-0.3-1-0.9-1c-0.5,0-1,0.2-1.4,0.5v-0.7c0.5-0.3,1-0.4,1.6-0.4c1.1,0,1.7,0.6,1.7,1.7
			L159.8,36L159.8,36z M158.8,33.8l-0.9,0.1c-0.3,0-0.5,0.1-0.7,0.2c-0.1,0.1-0.2,0.3-0.2,0.5s0.1,0.3,0.2,0.5
			c0.1,0.1,0.3,0.2,0.5,0.2c0.3,0,0.6-0.1,0.8-0.3s0.3-0.5,0.3-0.8L158.8,33.8L158.8,33.8z"/>
		<path class="st7" d="M162,36h-1v-6.6h1V36z"/>
		<path class="st7" d="M167.2,31.6l-2,5.2c-0.4,0.9-1,1.4-1.8,1.4c-0.2,0-0.4,0-0.5-0.1v-0.8c0.2,0.1,0.3,0.1,0.4,0.1
			c0.4,0,0.7-0.2,0.8-0.6l0.3-0.7l-1.8-4.4h1.1l1.1,3.2c0,0,0,0.1,0.1,0.3l0,0c0-0.1,0-0.2,0.1-0.3l1.1-3.2h1.1V31.6z"/>
		<path class="st7" d="M170.2,36c-0.2,0.1-0.5,0.1-0.8,0.1c-0.9,0-1.3-0.4-1.3-1.2v-2.5h-0.7v-0.8h0.7v-1l1-0.3v1.3h1.1v0.8h-1.1
			v2.2c0,0.3,0,0.5,0.1,0.6c0.1,0.1,0.3,0.2,0.5,0.2s0.3,0,0.4-0.1V36H170.2z"/>
		<path class="st7" d="M171.6,30.6c-0.2,0-0.3-0.1-0.4-0.2c-0.1-0.1-0.2-0.2-0.2-0.4s0.1-0.3,0.2-0.4c0.1-0.1,0.3-0.2,0.4-0.2
			c0.2,0,0.3,0.1,0.4,0.2c0.1,0.1,0.2,0.2,0.2,0.4c0,0.2-0.1,0.3-0.2,0.4C171.9,30.6,171.8,30.6,171.6,30.6z M172.1,36h-1v-4.4h1V36
			z"/>
		<path class="st7" d="M176.6,35.8c-0.4,0.2-0.8,0.3-1.3,0.3c-0.7,0-1.2-0.2-1.6-0.6c-0.4-0.4-0.6-0.9-0.6-1.6s0.2-1.3,0.7-1.8
			c0.4-0.4,1-0.7,1.7-0.7c0.4,0,0.8,0.1,1.1,0.2v0.9c-0.3-0.2-0.6-0.3-1-0.3s-0.8,0.1-1,0.4c-0.3,0.3-0.4,0.7-0.4,1.1
			c0,0.5,0.1,0.8,0.4,1.1c0.3,0.3,0.6,0.4,1,0.4s0.7-0.1,1-0.4L176.6,35.8L176.6,35.8z"/>
		<path class="st7" d="M177.3,35.8V35c0.4,0.3,0.8,0.4,1.2,0.4c0.6,0,0.9-0.2,0.9-0.5c0-0.1,0-0.2-0.1-0.3s-0.1-0.1-0.2-0.2
			c-0.1-0.1-0.2-0.1-0.3-0.1s-0.3-0.1-0.4-0.1c-0.2-0.1-0.3-0.1-0.5-0.2c-0.1-0.1-0.3-0.2-0.4-0.3c-0.1-0.1-0.2-0.2-0.2-0.3
			s-0.1-0.3-0.1-0.5s0.1-0.4,0.2-0.6c0.1-0.2,0.2-0.3,0.4-0.4s0.4-0.2,0.6-0.3c0.2-0.1,0.4-0.1,0.7-0.1c0.4,0,0.8,0.1,1.1,0.2v0.9
			c-0.3-0.2-0.7-0.3-1.1-0.3c-0.1,0-0.2,0-0.3,0s-0.2,0.1-0.3,0.1s-0.1,0.1-0.2,0.2c0,0.1-0.1,0.1-0.1,0.2c0,0.1,0,0.2,0.1,0.2
			s0.1,0.1,0.2,0.2c0.1,0.1,0.2,0.1,0.3,0.1s0.2,0.1,0.4,0.1c0.2,0.1,0.4,0.2,0.5,0.2c0.2,0.1,0.3,0.2,0.4,0.3
			c0.1,0.1,0.2,0.2,0.2,0.4c0.1,0.1,0.1,0.3,0.1,0.5s-0.1,0.4-0.2,0.6c-0.1,0.2-0.2,0.3-0.4,0.4c-0.2,0.1-0.4,0.2-0.6,0.2
			c-0.2,0.1-0.5,0.1-0.7,0.1C178.1,36,177.7,36,177.3,35.8z"/>
	</g>
</g>
</svg>
