<?xml version="1.0" encoding="utf-8"?>
<!-- Generator: Adobe Illustrator 21.0.2, SVG Export Plug-In . SVG Version: 6.00 Build 0)  -->
<svg version="1.1" id="Layer_1" xmlns="http://www.w3.org/2000/svg" xmlns:xlink="http://www.w3.org/1999/xlink" x="0px" y="0px"
	 viewBox="0 0 236 67.5" style="enable-background:new 0 0 236 67.5;" xml:space="preserve">
<style type="text/css">
	.st0{fill:#010101;}
	.st1{fill:#716E6F;}
	.st2{fill:#F05423;}
	.st3{fill:#84C441;}
	.st4{fill:#2DABE2;}
	.st5{fill:#F9BC15;}
	.st6{fill:none;stroke:#303131;stroke-width:0.3639;stroke-miterlimit:10;}
	.st7{fill:#9D742B;}
</style>
<g>
	<g>
		<path class="st0" d="M19.6,19.9h-2.1v-8.2c0-0.7,0-1.5,0.1-2.5l0,0c-0.1,0.6-0.2,1-0.3,1.2l-3.8,9.5H12l-3.9-9.5
			C8,10.1,7.9,9.7,7.8,9.1l0,0c0,0.5,0.1,1.3,0.1,2.5v8.2h-2V7.1h3l3.3,8.5c0.3,0.7,0.4,1.1,0.5,1.5l0,0c0.2-0.7,0.4-1.2,0.5-1.5
			l3.4-8.4h2.9v12.7C19.5,19.9,19.6,19.9,19.6,19.9z"/>
		<path class="st0" d="M23.5,8.8c-0.3,0-0.6-0.1-0.9-0.3S22.3,8,22.3,7.7s0.1-0.6,0.4-0.8c0.2-0.2,0.5-0.3,0.9-0.3
			c0.3,0,0.6,0.1,0.9,0.3c0.2,0.2,0.4,0.5,0.4,0.8s-0.1,0.6-0.4,0.8S23.9,8.8,23.5,8.8z M24.5,19.9h-2.1v-9.1h2.1V19.9z"/>
		<path class="st0" d="M33.7,19.4C33,19.8,32.1,20,31.1,20c-1.4,0-2.4-0.4-3.3-1.3c-0.8-0.8-1.2-1.9-1.2-3.3c0-1.5,0.4-2.7,1.3-3.6
			s2.1-1.4,3.6-1.4c0.8,0,1.6,0.1,2.2,0.4v1.9c-0.6-0.5-1.3-0.7-2-0.7c-0.9,0-1.6,0.3-2.1,0.9c-0.6,0.6-0.8,1.4-0.8,2.3
			c0,0.9,0.3,1.7,0.8,2.2s1.2,0.8,2.1,0.8c0.7,0,1.4-0.3,2.1-0.8L33.7,19.4L33.7,19.4z"/>
		<path class="st0" d="M41.1,12.7c-0.2-0.2-0.6-0.3-1.1-0.3c-0.6,0-1.1,0.3-1.5,0.8c-0.4,0.6-0.6,1.3-0.6,2.2v4.4h-2.1v-9h2.1v1.9
			l0,0c0.2-0.6,0.5-1.1,0.9-1.5s0.9-0.5,1.4-0.5c0.4,0,0.7,0.1,0.9,0.2C41.1,10.9,41.1,12.7,41.1,12.7z"/>
		<path class="st0" d="M46.4,20.1c-1.4,0-2.5-0.4-3.4-1.3c-0.8-0.8-1.3-2-1.3-3.4c0-1.5,0.4-2.7,1.3-3.6c0.9-0.9,2.1-1.3,3.5-1.3
			s2.5,0.4,3.3,1.3c0.8,0.8,1.2,2,1.2,3.5s-0.4,2.6-1.3,3.5S47.8,20.1,46.4,20.1z M46.5,12.2c-0.8,0-1.4,0.3-1.9,0.8
			c-0.5,0.6-0.7,1.3-0.7,2.3s0.2,1.7,0.7,2.3c0.5,0.5,1.1,0.8,1.9,0.8c0.8,0,1.4-0.3,1.9-0.8c0.4-0.5,0.7-1.3,0.7-2.3
			s-0.2-1.8-0.7-2.3S47.3,12.2,46.5,12.2z"/>
		<path class="st0" d="M52.7,19.6v-1.9c0.8,0.6,1.6,0.9,2.5,0.9c1.2,0,1.9-0.4,1.9-1.1c0-0.2-0.1-0.4-0.2-0.5
			c-0.1-0.1-0.3-0.3-0.4-0.4c-0.2-0.1-0.4-0.2-0.6-0.3S55.3,16,55,15.9c-0.4-0.1-0.7-0.3-1-0.5s-0.5-0.4-0.7-0.6
			c-0.2-0.2-0.3-0.4-0.4-0.7s-0.2-0.6-0.2-0.9c0-0.4,0.1-0.8,0.3-1.2c0.2-0.3,0.5-0.6,0.8-0.8s0.7-0.4,1.2-0.5
			c0.4-0.1,0.9-0.2,1.4-0.2c0.8,0,1.6,0.1,2.3,0.4v1.8c-0.6-0.4-1.4-0.7-2.2-0.7c-0.3,0-0.5,0-0.7,0.1s-0.4,0.1-0.5,0.2
			S55,12.5,55,12.6c-0.1,0.1-0.1,0.3-0.1,0.4c0,0.2,0,0.4,0.1,0.5s0.2,0.3,0.4,0.4c0.2,0.1,0.4,0.2,0.6,0.3s0.5,0.2,0.8,0.3
			c0.4,0.2,0.7,0.3,1.1,0.5c0.3,0.2,0.6,0.4,0.8,0.6c0.2,0.2,0.4,0.5,0.5,0.7c0.1,0.3,0.2,0.6,0.2,1c0,0.5-0.1,0.9-0.3,1.2
			c-0.2,0.3-0.5,0.6-0.9,0.9s-0.8,0.4-1.2,0.5s-1,0.2-1.5,0.2C54.2,20.1,53.4,19.9,52.7,19.6z"/>
		<path class="st0" d="M65.1,20.1c-1.4,0-2.5-0.4-3.4-1.3c-0.8-0.8-1.3-2-1.3-3.4c0-1.5,0.4-2.7,1.3-3.6c0.9-0.9,2.1-1.3,3.5-1.3
			s2.5,0.4,3.3,1.3c0.8,0.8,1.2,2,1.2,3.5s-0.4,2.6-1.3,3.5S66.5,20.1,65.1,20.1z M65.2,12.2c-0.8,0-1.4,0.3-1.9,0.8
			c-0.5,0.6-0.7,1.3-0.7,2.3s0.2,1.7,0.7,2.3c0.5,0.5,1.1,0.8,1.9,0.8s1.4-0.3,1.9-0.8c0.4-0.5,0.7-1.3,0.7-2.3s-0.2-1.8-0.7-2.3
			S66,12.2,65.2,12.2z"/>
		<path class="st0" d="M76.8,8.1c-0.3-0.2-0.6-0.2-1-0.2c-1,0-1.5,0.6-1.5,1.7v1.2h2.1v1.6h-2.1v7.5h-2.1v-7.5h-1.6v-1.6h1.6V9.3
			c0-1,0.3-1.7,0.9-2.3s1.4-0.8,2.4-0.8c0.5,0,0.9,0.1,1.2,0.2L76.8,8.1L76.8,8.1z"/>
		<path class="st0" d="M83,19.8c-0.4,0.2-0.9,0.3-1.6,0.3c-1.8,0-2.6-0.8-2.6-2.5v-5.1h-1.5v-1.7h1.5V8.7l2.1-0.6v2.7H83v1.6h-2.2
			v4.5c0,0.5,0.1,0.9,0.3,1.2c0.2,0.2,0.5,0.3,1,0.3c0.3,0,0.7-0.1,0.9-0.3C83,18.1,83,19.8,83,19.8z"/>
		<path class="st0" d="M26.7,37.1v4.6h-2.1V28.9h3.9c1.5,0,2.6,0.3,3.4,1c0.8,0.7,1.2,1.6,1.2,2.9s-0.4,2.3-1.3,3
			c-0.8,0.8-2,1.2-3.4,1.2L26.7,37.1L26.7,37.1z M26.7,30.7v4.7h1.4c0.9,0,1.6-0.2,2.1-0.6c0.5-0.4,0.7-1,0.7-1.8
			c0-1.5-0.9-2.2-2.6-2.2h-1.6V30.7z"/>
		<path class="st0" d="M41.5,41.7h-2v-1.4l0,0c-0.6,1.1-1.5,1.6-2.8,1.6c-0.9,0-1.6-0.2-2.1-0.7s-0.8-1.1-0.8-1.9c0-1.7,1-2.7,3-3
			l2.7-0.4c0-1.3-0.6-1.9-1.8-1.9c-1.1,0-2.1,0.4-2.9,1.1v-1.8c1-0.6,2.1-0.9,3.3-0.9c2.3,0,3.4,1.1,3.4,3.4
			C41.5,35.8,41.5,41.7,41.5,41.7z M39.5,37.2l-1.9,0.3c-0.6,0.1-1,0.2-1.3,0.4s-0.4,0.6-0.4,1.1c0,0.4,0.1,0.7,0.4,0.9
			s0.6,0.4,1.1,0.4c0.6,0,1.1-0.2,1.6-0.7c0.4-0.4,0.6-1,0.6-1.7L39.5,37.2L39.5,37.2z"/>
		<path class="st0" d="M49.2,34.6c-0.2-0.2-0.6-0.3-1.1-0.3c-0.6,0-1.1,0.3-1.5,0.8c-0.4,0.6-0.6,1.3-0.6,2.2v4.4h-2v-9.1h2v1.9l0,0
			c0.2-0.6,0.5-1.1,0.9-1.5s0.9-0.5,1.4-0.5c0.4,0,0.7,0.1,0.9,0.2C49.2,32.7,49.2,34.6,49.2,34.6z"/>
		<path class="st0" d="M56,41.6c-0.4,0.2-0.9,0.3-1.6,0.3c-1.8,0-2.6-0.8-2.6-2.5v-5.1h-1.5v-1.6h1.5v-2.1l2.1-0.6v2.7H56v1.6h-2.2
			v4.5c0,0.5,0.1,0.9,0.3,1.2c0.2,0.2,0.5,0.3,1,0.3c0.3,0,0.7-0.1,0.9-0.3V41.6z"/>
		<path class="st0" d="M65.9,41.7h-2.1v-5.1c0-1.7-0.6-2.5-1.8-2.5c-0.6,0-1.1,0.2-1.6,0.7c-0.4,0.5-0.6,1.1-0.6,1.8v5.2h-2.1v-9.1
			h2.1v1.5l0,0c0.7-1.1,1.7-1.7,2.9-1.7c1,0,1.7,0.3,2.3,1c0.5,0.6,0.8,1.6,0.8,2.8L65.9,41.7L65.9,41.7z"/>
		<path class="st0" d="M76.1,37.7h-6.2c0,0.8,0.3,1.5,0.8,1.9c0.5,0.5,1.2,0.7,2,0.7c1,0,1.9-0.3,2.7-0.9v1.7
			c-0.8,0.5-1.9,0.8-3.3,0.8c-1.3,0-2.4-0.4-3.1-1.2c-0.8-0.8-1.1-2-1.1-3.5c0-1.4,0.4-2.6,1.3-3.5c0.8-0.9,1.9-1.3,3.1-1.3
			s2.2,0.4,2.9,1.2c0.7,0.8,1,1.9,1,3.3v0.8H76.1z M74.1,36.2c0-0.7-0.2-1.3-0.5-1.7s-0.8-0.6-1.4-0.6s-1.1,0.2-1.5,0.6
			s-0.7,1-0.8,1.7H74.1z"/>
		<path class="st0" d="M83.4,34.6c-0.2-0.2-0.6-0.3-1.1-0.3c-0.6,0-1.1,0.3-1.5,0.8c-0.4,0.6-0.6,1.3-0.6,2.2v4.4h-2.1v-9.1h2.1v1.9
			l0,0c0.2-0.6,0.5-1.1,0.9-1.5s0.9-0.5,1.4-0.5c0.4,0,0.7,0.1,0.9,0.2C83.4,32.7,83.4,34.6,83.4,34.6z"/>
	</g>
	<g>
		<path class="st1" d="M83.3,58.8v-1h-1.2v-1.5l0,0L81,56.6l0,0v1.1h-1.8v-0.6c0-0.3,0.1-0.5,0.2-0.7c0.1-0.1,0.3-0.2,0.5-0.2
			s0.3,0,0.5,0.1l0,0v-1l0,0c-0.2-0.1-0.4-0.1-0.7-0.1c-0.3,0-0.7,0.1-0.9,0.2c-0.3,0.2-0.5,0.4-0.6,0.6C78,56.3,78,56.6,78,56.9
			v0.7h-0.8v1H78v4h1.2v-4H81v2.6c0,1.1,0.5,1.6,1.5,1.6c0.2,0,0.3,0,0.5-0.1c0.2,0,0.3-0.1,0.4-0.1l0,0v-1l0,0
			c-0.1,0-0.1,0.1-0.2,0.1s-0.2,0-0.2,0c-0.2,0-0.4-0.1-0.5-0.2c-0.1-0.1-0.2-0.3-0.2-0.6v-2.4h1C83.3,58.5,83.3,58.8,83.3,58.8z
			 M74.4,62c-0.4,0-0.8-0.1-1-0.4c-0.2-0.3-0.4-0.7-0.4-1.2s0.1-0.9,0.4-1.2c0.2-0.3,0.6-0.4,1-0.4s0.7,0.1,1,0.4
			c0.2,0.3,0.4,0.7,0.4,1.2s-0.1,1-0.3,1.2C75.2,61.8,74.9,62,74.4,62 M74.5,57.7c-0.8,0-1.5,0.2-2,0.7s-0.7,1.1-0.7,2
			c0,0.8,0.2,1.4,0.7,1.9s1.1,0.7,1.8,0.7c0.8,0,1.4-0.2,1.9-0.7s0.7-1.1,0.7-1.9c0-0.8-0.2-1.4-0.7-1.9
			C75.9,57.9,75.3,57.7,74.5,57.7 M69.9,57.7c-0.6,0-1,0.1-1.4,0.4c-0.4,0.3-0.5,0.7-0.5,1.1c0,0.2,0,0.4,0.1,0.6
			c0.1,0.2,0.2,0.3,0.4,0.5c0.2,0.1,0.4,0.3,0.7,0.4c0.3,0.1,0.5,0.2,0.6,0.3s0.2,0.1,0.3,0.2c0,0.1,0.1,0.2,0.1,0.3
			c0,0.3-0.3,0.5-0.8,0.5c-0.2,0-0.4,0-0.7-0.1c-0.2-0.1-0.5-0.2-0.7-0.3l0,0v1.1l0,0c0.2,0.1,0.4,0.1,0.6,0.2
			c0.3,0.1,0.5,0.1,0.7,0.1c0.6,0,1.1-0.1,1.5-0.4c0.4-0.3,0.5-0.7,0.5-1.1c0-0.3-0.1-0.6-0.3-0.9c-0.2-0.2-0.5-0.4-1-0.6
			c-0.4-0.1-0.6-0.3-0.7-0.4c-0.1-0.1-0.1-0.2-0.1-0.4c0-0.1,0.1-0.3,0.2-0.4c0.1-0.1,0.3-0.1,0.5-0.1s0.4,0,0.6,0.1
			s0.4,0.1,0.5,0.2l0,0v-1.1l0,0c-0.1-0.1-0.3-0.1-0.5-0.1C70.3,57.7,70.1,57.7,69.9,57.7 M64.9,62c-0.4,0-0.8-0.1-1-0.4
			c-0.2-0.3-0.4-0.7-0.4-1.2s0.1-0.9,0.4-1.2c0.2-0.3,0.6-0.4,1-0.4s0.7,0.1,1,0.4c0.2,0.3,0.4,0.7,0.4,1.2s-0.1,1-0.3,1.2
			C65.7,61.8,65.3,62,64.9,62 M64.9,57.7c-0.8,0-1.5,0.2-1.9,0.7c-0.5,0.5-0.7,1.1-0.7,2c0,0.8,0.2,1.4,0.7,1.9s1.1,0.7,1.8,0.7
			c0.8,0,1.4-0.2,1.9-0.7s0.7-1.1,0.7-1.9c0-0.8-0.2-1.4-0.7-1.9C66.3,57.9,65.7,57.7,64.9,57.7 M60.5,58.7v-0.9h-1.2v5h1.2v-2.6
			c0-0.4,0.1-0.8,0.3-1.1s0.4-0.4,0.8-0.4c0.1,0,0.2,0,0.4,0.1c0.1,0,0.2,0.1,0.3,0.1l0,0v-1.2l0,0c-0.1,0-0.3-0.1-0.5-0.1
			c-0.3,0-0.6,0.1-0.8,0.3C60.7,58.2,60.6,58.4,60.5,58.7L60.5,58.7z M57.2,57.7c-0.5,0-1,0.1-1.4,0.3s-0.7,0.6-0.9,1
			s-0.3,0.9-0.3,1.4s0.1,0.9,0.3,1.3c0.2,0.4,0.5,0.7,0.9,0.9s0.8,0.3,1.3,0.3c0.6,0,1-0.1,1.4-0.3l0,0v-1.1l0,0
			c-0.2,0.1-0.4,0.2-0.6,0.3c-0.2,0.1-0.4,0.1-0.6,0.1c-0.5,0-0.8-0.1-1.1-0.4c-0.3-0.3-0.4-0.7-0.4-1.2s0.1-0.9,0.4-1.2
			c0.3-0.3,0.7-0.5,1.1-0.5c0.4,0,0.8,0.1,1.1,0.4l0,0v-1l0,0c-0.1-0.1-0.3-0.1-0.5-0.2C57.6,57.7,57.4,57.7,57.2,57.7 M53.7,57.8
			h-1.2v5h1.2V57.8L53.7,57.8z M53.1,55.7c-0.2,0-0.4,0.1-0.5,0.2c-0.1,0.1-0.2,0.3-0.2,0.5s0.1,0.4,0.2,0.5
			c0.1,0.1,0.3,0.2,0.5,0.2s0.4-0.1,0.5-0.2c0.1-0.1,0.2-0.3,0.2-0.5s-0.1-0.4-0.2-0.5C53.5,55.8,53.3,55.7,53.1,55.7 M50.2,57.4
			v5.4h1.2v-7h-1.7L47.6,61l-2.1-5.2h-1.7v7h1.1v-5.4l0,0l2.2,5.4H48L50.2,57.4L50.2,57.4L50.2,57.4z"/>
		<path class="st2" d="M34.2,59h-5.5v-5.5h5.5V59z"/>
		<path class="st3" d="M40.3,59h-5.5v-5.5h5.5V59L40.3,59z"/>
		<path class="st4" d="M34.2,65.2h-5.5v-5.5h5.5V65.2z"/>
		<path class="st5" d="M40.3,65.2h-5.5v-5.5h5.5V65.2L40.3,65.2z"/>
	</g>
	<line class="st6" x1="91.2" y1="3.8" x2="91.2" y2="65.1"/>
</g>
<g>
	<path class="st7" d="M106.3,23.9c-0.6,0.3-1.3,0.5-2.1,0.5c-0.9,0-1.6-0.3-2.2-0.8c-0.6-0.6-0.8-1.3-0.8-2.2s0.3-1.7,0.9-2.3
		s1.4-0.9,2.3-0.9c0.7,0,1.3,0.1,1.7,0.3v1c-0.5-0.3-1-0.5-1.7-0.5s-1.2,0.2-1.6,0.6s-0.6,1-0.6,1.7s0.2,1.3,0.5,1.7
		c0.4,0.4,0.8,0.6,1.5,0.6c0.4,0,0.8-0.1,1.1-0.2v-1.6H104V21h2.3V23.9z"/>
	<path class="st7" d="M109.5,24.4c-0.7,0-1.2-0.2-1.6-0.6s-0.6-0.9-0.6-1.6s0.2-1.3,0.6-1.7s1-0.6,1.7-0.6s1.2,0.2,1.6,0.6
		s0.6,1,0.6,1.7s-0.2,1.3-0.6,1.7C110.7,24.2,110.2,24.4,109.5,24.4z M109.5,20.6c-0.4,0-0.7,0.1-0.9,0.4c-0.2,0.3-0.3,0.6-0.3,1.1
		s0.1,0.8,0.3,1.1c0.2,0.3,0.5,0.4,0.9,0.4s0.7-0.1,0.9-0.4c0.2-0.3,0.3-0.6,0.3-1.1s-0.1-0.9-0.3-1.1S109.9,20.6,109.5,20.6z"/>
	<path class="st7" d="M113.7,24.3h-1v-6.5h1V24.3z"/>
	<path class="st7" d="M119,24.3h-1v-0.7l0,0c-0.3,0.6-0.8,0.8-1.5,0.8c-0.5,0-1-0.2-1.3-0.6s-0.5-0.9-0.5-1.6s0.2-1.3,0.5-1.7
		c0.4-0.4,0.8-0.7,1.4-0.7s1,0.2,1.3,0.7l0,0v-2.7h1L119,24.3L119,24.3z M118,22.3v-0.6c0-0.3-0.1-0.6-0.3-0.8
		c-0.2-0.2-0.5-0.3-0.8-0.3c-0.4,0-0.7,0.1-0.9,0.4c-0.2,0.3-0.3,0.7-0.3,1.1s0.1,0.8,0.3,1.1c0.2,0.3,0.5,0.4,0.8,0.4
		s0.6-0.1,0.8-0.4C117.9,23,118,22.7,118,22.3z"/>
</g>
<g>
	<path class="st7" d="M106.3,37.1c-0.6,0.3-1.3,0.5-2.1,0.5c-0.9,0-1.6-0.3-2.2-0.8c-0.6-0.6-0.8-1.3-0.8-2.2s0.3-1.7,0.9-2.3
		s1.4-0.9,2.3-0.9c0.7,0,1.3,0.1,1.7,0.3v1c-0.5-0.3-1-0.5-1.7-0.5s-1.2,0.2-1.6,0.6c-0.4,0.4-0.6,1-0.6,1.7s0.2,1.3,0.5,1.7
		c0.4,0.4,0.8,0.6,1.5,0.6c0.4,0,0.8-0.1,1.1-0.2V35H104v-0.8h2.3V37.1z"/>
	<path class="st7" d="M109.5,37.6c-0.7,0-1.2-0.2-1.6-0.6c-0.4-0.4-0.6-0.9-0.6-1.6s0.2-1.3,0.6-1.7s1-0.6,1.7-0.6s1.2,0.2,1.6,0.6
		c0.4,0.4,0.6,1,0.6,1.7s-0.2,1.3-0.6,1.7C110.7,37.4,110.2,37.6,109.5,37.6z M109.5,33.8c-0.4,0-0.7,0.1-0.9,0.4
		c-0.2,0.3-0.3,0.6-0.3,1.1s0.1,0.8,0.3,1.1c0.2,0.3,0.5,0.4,0.9,0.4s0.7-0.1,0.9-0.4c0.2-0.3,0.3-0.6,0.3-1.1s-0.1-0.9-0.3-1.1
		S109.9,33.8,109.5,33.8z"/>
	<path class="st7" d="M113.7,37.5h-1V31h1V37.5z"/>
	<path class="st7" d="M119,37.5h-1v-0.7l0,0c-0.3,0.6-0.8,0.8-1.5,0.8c-0.5,0-1-0.2-1.3-0.6c-0.3-0.4-0.5-0.9-0.5-1.6
		s0.2-1.3,0.5-1.7c0.4-0.4,0.8-0.7,1.4-0.7s1,0.2,1.3,0.7l0,0V31h1L119,37.5L119,37.5z M118,35.5v-0.6c0-0.3-0.1-0.6-0.3-0.8
		c-0.2-0.2-0.5-0.3-0.8-0.3c-0.4,0-0.7,0.1-0.9,0.4c-0.2,0.3-0.3,0.7-0.3,1.1c0,0.4,0.1,0.8,0.3,1.1c0.2,0.3,0.5,0.4,0.8,0.4
		s0.6-0.1,0.8-0.4C117.9,36.2,118,35.9,118,35.5z"/>
</g>
<g>
	<path class="st7" d="M106.3,50.8c-0.6,0.3-1.3,0.5-2.1,0.5c-0.9,0-1.6-0.3-2.2-0.8c-0.6-0.6-0.8-1.3-0.8-2.2s0.3-1.7,0.9-2.3
		s1.4-0.9,2.3-0.9c0.7,0,1.3,0.1,1.7,0.3v1c-0.5-0.3-1-0.5-1.7-0.5s-1.2,0.2-1.6,0.6c-0.4,0.4-0.6,1-0.6,1.7s0.2,1.3,0.5,1.7
		c0.4,0.4,0.8,0.6,1.5,0.6c0.4,0,0.8-0.1,1.1-0.2v-1.6H104v-0.8h2.3V50.8z"/>
	<path class="st7" d="M109.5,51.3c-0.7,0-1.2-0.2-1.6-0.6c-0.4-0.4-0.6-0.9-0.6-1.6s0.2-1.3,0.6-1.7s1-0.6,1.7-0.6s1.2,0.2,1.6,0.6
		c0.4,0.4,0.6,1,0.6,1.7s-0.2,1.3-0.6,1.7C110.7,51.1,110.2,51.3,109.5,51.3z M109.5,47.5c-0.4,0-0.7,0.1-0.9,0.4
		c-0.2,0.3-0.3,0.6-0.3,1.1s0.1,0.8,0.3,1.1c0.2,0.3,0.5,0.4,0.9,0.4s0.7-0.1,0.9-0.4c0.2-0.3,0.3-0.6,0.3-1.1s-0.1-0.9-0.3-1.1
		S109.9,47.5,109.5,47.5z"/>
	<path class="st7" d="M113.7,51.2h-1v-6.5h1V51.2z"/>
	<path class="st7" d="M119,51.2h-1v-0.7l0,0c-0.3,0.6-0.8,0.8-1.5,0.8c-0.5,0-1-0.2-1.3-0.6c-0.3-0.4-0.5-0.9-0.5-1.6
		s0.2-1.3,0.5-1.7c0.4-0.4,0.8-0.7,1.4-0.7s1,0.2,1.3,0.7l0,0v-2.7h1L119,51.2L119,51.2z M118,49.2v-0.6c0-0.3-0.1-0.6-0.3-0.8
		c-0.2-0.2-0.5-0.3-0.8-0.3c-0.4,0-0.7,0.1-0.9,0.4c-0.2,0.3-0.3,0.7-0.3,1.1c0,0.4,0.1,0.8,0.3,1.1c0.2,0.3,0.5,0.4,0.8,0.4
		s0.6-0.1,0.8-0.4C117.9,49.9,118,49.6,118,49.2z"/>
</g>
<path class="st7" d="M127.1,24.1c-0.5,0.2-1,0.4-1.7,0.4c-0.9,0-1.6-0.3-2.1-0.8c-0.5-0.6-0.8-1.3-0.8-2.2c0-1,0.3-1.8,0.9-2.4
	s1.4-0.9,2.3-0.9c0.6,0,1.1,0.1,1.5,0.3v1c-0.4-0.2-0.9-0.4-1.4-0.4c-0.7,0-1.2,0.2-1.6,0.6s-0.6,1-0.6,1.7s0.2,1.2,0.6,1.6
	s0.9,0.6,1.5,0.6s1.1-0.1,1.5-0.4v0.9C127.2,24.1,127.1,24.1,127.1,24.1z"/>
<path class="st7" d="M129.1,24.3h-1v-6.5h1V24.3z"/>
<path class="st7" d="M132.3,24.4c-0.7,0-1.2-0.2-1.6-0.6c-0.4-0.4-0.6-0.9-0.6-1.6s0.2-1.3,0.6-1.7c0.4-0.4,1-0.6,1.7-0.6
	s1.2,0.2,1.6,0.6s0.6,1,0.6,1.7s-0.2,1.3-0.6,1.7C133.6,24.2,133,24.4,132.3,24.4z M132.4,20.6c-0.4,0-0.7,0.1-0.9,0.4
	s-0.3,0.6-0.3,1.1s0.1,0.8,0.3,1.1c0.2,0.3,0.5,0.4,0.9,0.4s0.7-0.1,0.9-0.4s0.3-0.6,0.3-1.1s-0.1-0.9-0.3-1.1
	C133.1,20.8,132.8,20.6,132.4,20.6z"/>
<path class="st7" d="M139.4,24.3h-1v-0.7l0,0c-0.3,0.5-0.7,0.8-1.3,0.8c-1,0-1.5-0.6-1.5-1.9v-2.6h1v2.6c0,0.8,0.3,1.2,0.9,1.2
	c0.3,0,0.5-0.1,0.7-0.3c0.2-0.2,0.3-0.5,0.3-0.8v-2.7h1L139.4,24.3L139.4,24.3z"/>
<path class="st7" d="M144.7,24.3h-1v-0.7l0,0c-0.3,0.6-0.8,0.8-1.5,0.8c-0.5,0-1-0.2-1.3-0.6s-0.5-0.9-0.5-1.6s0.2-1.3,0.5-1.7
	c0.4-0.4,0.8-0.7,1.4-0.7c0.6,0,1,0.2,1.3,0.7l0,0v-2.7h1v6.5C144.6,24.3,144.7,24.3,144.7,24.3z M143.7,22.3v-0.6
	c0-0.3-0.1-0.6-0.3-0.8c-0.2-0.2-0.5-0.3-0.8-0.3c-0.4,0-0.7,0.1-0.9,0.4s-0.3,0.7-0.3,1.1s0.1,0.8,0.3,1.1c0.2,0.3,0.5,0.4,0.8,0.4
	s0.6-0.1,0.8-0.4C143.6,23,143.7,22.7,143.7,22.3z"/>
<path class="st7" d="M149.5,22.1v2.2h-1v-6.1h1.9c0.7,0,1.2,0.2,1.6,0.5c0.4,0.3,0.6,0.8,0.6,1.4s-0.2,1.1-0.6,1.5
	c-0.4,0.4-0.9,0.6-1.6,0.6h-0.9V22.1z M149.5,19v2.2h0.7c0.4,0,0.8-0.1,1-0.3c0.2-0.2,0.3-0.5,0.3-0.9c0-0.7-0.4-1.1-1.3-1.1
	L149.5,19L149.5,19z"/>
<path class="st7" d="M156,20.9c-0.1-0.1-0.3-0.1-0.5-0.1c-0.3,0-0.5,0.1-0.7,0.4s-0.3,0.6-0.3,1.1v2.1h-1v-4.5h1v0.9l0,0
	c0.1-0.3,0.2-0.5,0.4-0.7s0.4-0.3,0.7-0.3c0.2,0,0.3,0,0.4,0.1L156,20.9L156,20.9z"/>
<path class="st7" d="M158.5,24.4c-0.7,0-1.2-0.2-1.6-0.6c-0.4-0.4-0.6-0.9-0.6-1.6s0.2-1.3,0.6-1.7c0.4-0.4,1-0.6,1.7-0.6
	s1.2,0.2,1.6,0.6s0.6,1,0.6,1.7s-0.2,1.3-0.6,1.7C159.8,24.2,159.2,24.4,158.5,24.4z M158.6,20.6c-0.4,0-0.7,0.1-0.9,0.4
	s-0.3,0.6-0.3,1.1s0.1,0.8,0.3,1.1c0.2,0.3,0.5,0.4,0.9,0.4s0.7-0.1,0.9-0.4s0.3-0.6,0.3-1.1s-0.1-0.9-0.3-1.1S159,20.6,158.6,20.6z
	"/>
<path class="st7" d="M165.8,24.3h-1v-0.7l0,0c-0.3,0.6-0.8,0.8-1.5,0.8c-0.5,0-1-0.2-1.3-0.6s-0.5-0.9-0.5-1.6s0.2-1.3,0.5-1.7
	s0.8-0.7,1.4-0.7c0.6,0,1,0.2,1.3,0.7l0,0v-2.7h1v6.5C165.7,24.3,165.8,24.3,165.8,24.3z M164.8,22.3v-0.6c0-0.3-0.1-0.6-0.3-0.8
	c-0.2-0.2-0.5-0.3-0.8-0.3c-0.4,0-0.7,0.1-0.9,0.4s-0.3,0.7-0.3,1.1s0.1,0.8,0.3,1.1c0.2,0.3,0.5,0.4,0.8,0.4s0.6-0.1,0.8-0.4
	C164.7,23,164.8,22.7,164.8,22.3z"/>
<path class="st7" d="M170.9,24.3h-1v-0.7l0,0c-0.3,0.5-0.7,0.8-1.3,0.8c-1,0-1.5-0.6-1.5-1.9v-2.6h1v2.6c0,0.8,0.3,1.2,0.9,1.2
	c0.3,0,0.5-0.1,0.7-0.3c0.2-0.2,0.3-0.5,0.3-0.8v-2.7h1L170.9,24.3L170.9,24.3z"/>
<path class="st7" d="M175.3,24.1c-0.3,0.2-0.8,0.3-1.2,0.3c-0.6,0-1.2-0.2-1.6-0.6c-0.4-0.4-0.6-0.9-0.6-1.6s0.2-1.3,0.6-1.7
	c0.4-0.4,1-0.7,1.7-0.7c0.4,0,0.7,0.1,1.1,0.2v0.9c-0.3-0.2-0.6-0.3-1-0.3s-0.8,0.1-1,0.4c-0.3,0.3-0.4,0.7-0.4,1.1
	c0,0.5,0.1,0.8,0.4,1.1c0.3,0.3,0.6,0.4,1,0.4s0.7-0.1,1-0.4V24.1z"/>
<path class="st7" d="M178.6,24.3c-0.2,0.1-0.4,0.1-0.8,0.1c-0.8,0-1.3-0.4-1.3-1.2v-2.5h-0.7v-0.8h0.7v-1l1-0.3v1.3h1v0.8h-1v2.2
	c0,0.3,0,0.4,0.1,0.6c0.1,0.1,0.3,0.2,0.5,0.2s0.3,0,0.4-0.1v0.7C178.5,24.3,178.6,24.3,178.6,24.3z"/>
<path class="st7" d="M179.9,19c-0.2,0-0.3-0.1-0.4-0.2c-0.1-0.1-0.2-0.2-0.2-0.4c0-0.2,0.1-0.3,0.2-0.4c0.1-0.1,0.3-0.2,0.4-0.2
	c0.2,0,0.3,0.1,0.4,0.2c0.1,0.1,0.2,0.2,0.2,0.4c0,0.2-0.1,0.3-0.2,0.4C180.2,19,180.1,19,179.9,19z M180.4,24.3h-1v-4.4h1V24.3z"/>
<path class="st7" d="M185.5,19.9l-1.7,4.4h-1.1l-1.6-4.4h1.1l1,3.1c0.1,0.2,0.1,0.4,0.1,0.6l0,0c0-0.2,0.1-0.4,0.1-0.6l1-3.1H185.5z
	"/>
<path class="st7" d="M186.6,19c-0.2,0-0.3-0.1-0.4-0.2c-0.1-0.1-0.2-0.2-0.2-0.4c0-0.2,0.1-0.3,0.2-0.4c0.1-0.1,0.3-0.2,0.4-0.2
	c0.2,0,0.3,0.1,0.4,0.2c0.1,0.1,0.2,0.2,0.2,0.4c0,0.2-0.1,0.3-0.2,0.4C187,19,186.8,19,186.6,19z M187.1,24.3h-1v-4.4h1V24.3z"/>
<path class="st7" d="M190.7,24.3c-0.2,0.1-0.4,0.1-0.8,0.1c-0.8,0-1.3-0.4-1.3-1.2v-2.5H188v-0.8h0.7v-1l1-0.3v1.3h1v0.8h-1v2.2
	c0,0.3,0,0.4,0.1,0.6c0.1,0.1,0.3,0.2,0.5,0.2s0.3,0,0.4-0.1V24.3z"/>
<path class="st7" d="M195.4,19.9l-2,5.1c-0.4,0.9-1,1.4-1.7,1.4c-0.2,0-0.4,0-0.5-0.1v-0.8c0.2,0.1,0.3,0.1,0.4,0.1
	c0.4,0,0.6-0.2,0.8-0.5l0.3-0.7l-1.7-4.5h1.1l1,3.2c0,0,0,0.1,0.1,0.3l0,0c0-0.1,0-0.2,0.1-0.3l1.1-3.2
	C194.4,19.9,195.4,19.9,195.4,19.9z"/>
<g>
	<path class="st7" d="M127.4,37.3c-0.5,0.2-1,0.4-1.7,0.4c-0.9,0-1.6-0.3-2.1-0.8c-0.5-0.6-0.8-1.3-0.8-2.2c0-1,0.3-1.8,0.9-2.4
		c0.6-0.6,1.4-0.9,2.3-0.9c0.6,0,1.1,0.1,1.5,0.3v1c-0.4-0.2-0.9-0.4-1.4-0.4c-0.7,0-1.2,0.2-1.6,0.6c-0.4,0.4-0.6,1-0.6,1.7
		s0.2,1.2,0.6,1.6c0.4,0.4,0.9,0.6,1.5,0.6s1.1-0.1,1.5-0.4v0.9C127.5,37.2,127.4,37.2,127.4,37.3z"/>
	<path class="st7" d="M129.5,37.4h-1v-6.5h1V37.4z"/>
	<path class="st7" d="M132.7,37.5c-0.7,0-1.2-0.2-1.6-0.6c-0.4-0.4-0.6-0.9-0.6-1.6s0.2-1.3,0.6-1.7c0.4-0.4,1-0.6,1.7-0.6
		c0.7,0,1.2,0.2,1.6,0.6c0.4,0.4,0.6,1,0.6,1.7s-0.2,1.3-0.6,1.7C133.9,37.3,133.4,37.5,132.7,37.5z M132.7,33.8
		c-0.4,0-0.7,0.1-0.9,0.4c-0.2,0.3-0.3,0.6-0.3,1.1s0.1,0.8,0.3,1.1c0.2,0.3,0.5,0.4,0.9,0.4s0.7-0.1,0.9-0.4
		c0.2-0.3,0.3-0.6,0.3-1.1s-0.1-0.9-0.3-1.1C133.4,34,133.1,33.8,132.7,33.8z"/>
	<path class="st7" d="M139.8,37.4h-1v-0.7l0,0c-0.3,0.5-0.7,0.8-1.3,0.8c-1,0-1.5-0.6-1.5-1.9V33h1v2.5c0,0.8,0.3,1.2,0.9,1.2
		c0.3,0,0.5-0.1,0.7-0.3s0.3-0.5,0.3-0.8v-2.5h1L139.8,37.4L139.8,37.4z"/>
	<path class="st7" d="M145,37.4h-1v-0.7l0,0c-0.3,0.6-0.8,0.8-1.5,0.8c-0.5,0-1-0.2-1.3-0.6c-0.3-0.4-0.5-0.9-0.5-1.6
		s0.2-1.3,0.5-1.7c0.4-0.4,0.8-0.7,1.4-0.7c0.6,0,1,0.2,1.3,0.7l0,0v-2.7h1L145,37.4L145,37.4z M144.1,35.4v-0.6
		c0-0.3-0.1-0.6-0.3-0.8c-0.2-0.2-0.5-0.3-0.8-0.3c-0.4,0-0.7,0.1-0.9,0.4c-0.2,0.3-0.3,0.7-0.3,1.1c0,0.4,0.1,0.8,0.3,1.1
		s0.5,0.4,0.8,0.4s0.6-0.1,0.8-0.4C143.9,36.1,144.1,35.8,144.1,35.4z"/>
	<path class="st7" d="M149.8,35.3v2.2h-1v-6.1h1.9c0.7,0,1.2,0.2,1.6,0.5c0.4,0.3,0.6,0.8,0.6,1.4c0,0.6-0.2,1.1-0.6,1.5
		c-0.4,0.4-0.9,0.6-1.6,0.6L149.8,35.3L149.8,35.3z M149.8,32.1v2.2h0.7c0.4,0,0.8-0.1,1-0.3c0.2-0.2,0.3-0.5,0.3-0.9
		c0-0.7-0.4-1.1-1.3-1.1L149.8,32.1L149.8,32.1z"/>
	<path class="st7" d="M154.8,37.4h-1v-6.5h1V37.4z"/>
	<path class="st7" d="M159.5,37.4h-1v-0.7l0,0c-0.3,0.5-0.7,0.8-1.3,0.8c-0.4,0-0.8-0.1-1-0.4c-0.2-0.2-0.4-0.5-0.4-0.9
		c0-0.8,0.5-1.3,1.4-1.4l1.3-0.2c0-0.6-0.3-0.9-0.9-0.9c-0.5,0-1,0.2-1.4,0.5v-0.9c0.5-0.3,1-0.4,1.6-0.4c1.1,0,1.7,0.5,1.7,1.6
		V37.4L159.5,37.4z M158.5,35.3l-0.9,0.1c-0.3,0-0.5,0.1-0.6,0.2c-0.1,0.1-0.2,0.3-0.2,0.5s0.1,0.3,0.2,0.5c0.1,0.1,0.3,0.2,0.5,0.2
		c0.3,0,0.6-0.1,0.7-0.3c0.2-0.2,0.3-0.5,0.3-0.8V35.3z"/>
	<path class="st7" d="M163,37.4c-0.2,0.1-0.4,0.1-0.8,0.1c-0.8,0-1.3-0.4-1.3-1.2v-2.5h-0.7V33h0.7v-1l1-0.3V33h1v0.8h-1V36
		c0,0.3,0,0.4,0.1,0.6s0.3,0.2,0.5,0.2c0.2,0,0.3,0,0.4-0.1v0.7C162.9,37.5,163,37.5,163,37.4z"/>
	<path class="st7" d="M166.3,31.8c-0.1-0.1-0.3-0.1-0.5-0.1c-0.5,0-0.7,0.3-0.7,0.8V33h1v0.8h-1v3.6h-1v-3.6h-0.7V33h0.7v-0.7
		c0-0.5,0.2-0.8,0.5-1.1c0.3-0.3,0.7-0.4,1.1-0.4c0.2,0,0.4,0,0.6,0.1L166.3,31.8L166.3,31.8z"/>
	<path class="st7" d="M168.8,37.5c-0.7,0-1.2-0.2-1.6-0.6c-0.4-0.4-0.6-0.9-0.6-1.6s0.2-1.3,0.6-1.7s1-0.6,1.7-0.6
		c0.7,0,1.2,0.2,1.6,0.6c0.4,0.4,0.6,1,0.6,1.7s-0.2,1.3-0.6,1.7C170,37.3,169.5,37.5,168.8,37.5z M168.8,33.8
		c-0.4,0-0.7,0.1-0.9,0.4c-0.2,0.3-0.3,0.6-0.3,1.1s0.1,0.8,0.3,1.1c0.2,0.3,0.5,0.4,0.9,0.4s0.7-0.1,0.9-0.4
		c0.2-0.3,0.3-0.6,0.3-1.1s-0.1-0.9-0.3-1.1C169.5,34,169.2,33.8,168.8,33.8z"/>
	<path class="st7" d="M174.6,34c-0.1-0.1-0.3-0.1-0.5-0.1c-0.3,0-0.5,0.1-0.7,0.4c-0.2,0.3-0.3,0.6-0.3,1.1v2.1h-1v-4.4h1V34l0,0
		c0.1-0.3,0.2-0.5,0.4-0.7c0.2-0.2,0.4-0.3,0.7-0.3c0.2,0,0.3,0,0.4,0.1L174.6,34L174.6,34z"/>
	<path class="st7" d="M181.8,37.4h-1V35c0-0.5-0.1-0.8-0.2-1c-0.1-0.2-0.3-0.3-0.7-0.3c-0.3,0-0.5,0.1-0.7,0.4
		c-0.2,0.3-0.3,0.6-0.3,0.9v2.4h-1V35c0-0.8-0.3-1.2-0.9-1.2c-0.3,0-0.5,0.1-0.7,0.4c-0.2,0.2-0.3,0.6-0.3,1v2.4h-1v-4.4h1v0.7l0,0
		c0.3-0.5,0.8-0.8,1.4-0.8c0.3,0,0.6,0.1,0.8,0.2c0.2,0.2,0.4,0.4,0.5,0.7c0.3-0.6,0.8-0.9,1.5-0.9c1,0,1.4,0.6,1.4,1.8v2.6H181.8z"
		/>
</g>
<g>
	<path class="st7" d="M127.4,50.9c-0.5,0.2-1,0.4-1.7,0.4c-0.9,0-1.6-0.3-2.1-0.8c-0.5-0.6-0.8-1.3-0.8-2.2c0-1,0.3-1.8,0.9-2.4
		c0.6-0.6,1.4-0.9,2.3-0.9c0.6,0,1.1,0.1,1.5,0.3v1c-0.4-0.2-0.9-0.4-1.4-0.4c-0.7,0-1.2,0.2-1.6,0.6c-0.4,0.4-0.6,1-0.6,1.7
		s0.2,1.2,0.6,1.6c0.4,0.4,0.9,0.6,1.5,0.6c0.6,0,1.1-0.1,1.5-0.4v0.9C127.5,50.9,127.4,50.9,127.4,50.9z"/>
	<path class="st7" d="M130.4,51.3c-0.7,0-1.2-0.2-1.6-0.6c-0.4-0.4-0.6-0.9-0.6-1.6c0-0.7,0.2-1.3,0.6-1.7c0.4-0.4,1-0.6,1.7-0.6
		s1.2,0.2,1.6,0.6c0.4,0.4,0.6,1,0.6,1.7s-0.2,1.3-0.6,1.7C131.6,51.1,131.1,51.3,130.4,51.3z M130.4,47.5c-0.4,0-0.7,0.1-0.9,0.4
		c-0.2,0.3-0.3,0.6-0.3,1.1s0.1,0.8,0.3,1.1s0.5,0.4,0.9,0.4c0.4,0,0.7-0.1,0.9-0.4c0.2-0.3,0.3-0.6,0.3-1.1s-0.1-0.9-0.3-1.1
		C131.1,47.7,130.8,47.5,130.4,47.5z"/>
	<path class="st7" d="M134.6,51.2h-1v-6.5h1V51.2z"/>
	<path class="st7" d="M136.9,51.2h-1v-6.5h1V51.2z"/>
	<path class="st7" d="M141.6,51.2h-1v-0.7l0,0c-0.3,0.5-0.7,0.8-1.3,0.8c-0.4,0-0.8-0.1-1-0.3s-0.4-0.5-0.4-0.9
		c0-0.8,0.5-1.3,1.4-1.4l1.3-0.2c0-0.6-0.3-0.9-0.9-0.9c-0.5,0-1,0.2-1.4,0.5v-0.9c0.5-0.3,1-0.4,1.6-0.4c1.1,0,1.7,0.5,1.7,1.6
		C141.6,48.4,141.6,51.2,141.6,51.2z M140.6,49.1l-0.9,0.1c-0.3,0-0.5,0.1-0.6,0.2c-0.1,0.1-0.2,0.3-0.2,0.5s0.1,0.3,0.2,0.5
		c0.1,0.1,0.3,0.2,0.5,0.2c0.3,0,0.6-0.1,0.7-0.3c0.2-0.2,0.3-0.5,0.3-0.8V49.1z"/>
	<path class="st7" d="M143.8,50.6L143.8,50.6v0.6h-1v-6.5h1v2.9l0,0c0.3-0.6,0.8-0.9,1.5-0.9c0.6,0,1,0.2,1.3,0.6
		c0.3,0.4,0.5,0.9,0.5,1.6c0,0.7-0.2,1.3-0.5,1.8s-0.8,0.7-1.4,0.7C144.4,51.3,144.1,51.1,143.8,50.6z M143.8,48.8v0.5
		c0,0.3,0.1,0.6,0.3,0.8c0.2,0.2,0.5,0.3,0.8,0.3c0.4,0,0.7-0.1,0.9-0.4c0.2-0.3,0.3-0.7,0.3-1.2c0-0.4-0.1-0.8-0.3-1
		c-0.2-0.2-0.5-0.4-0.8-0.4c-0.4,0-0.6,0.1-0.9,0.4C143.9,48.2,143.8,48.5,143.8,48.8z"/>
	<path class="st7" d="M149.9,51.3c-0.7,0-1.2-0.2-1.6-0.6c-0.4-0.4-0.6-0.9-0.6-1.6c0-0.7,0.2-1.3,0.6-1.7c0.4-0.4,1-0.6,1.7-0.6
		c0.7,0,1.2,0.2,1.6,0.6c0.4,0.4,0.6,1,0.6,1.7s-0.2,1.3-0.6,1.7C151.2,51.1,150.7,51.3,149.9,51.3z M149.9,47.5
		c-0.4,0-0.7,0.1-0.9,0.4c-0.2,0.3-0.3,0.6-0.3,1.1s0.1,0.8,0.3,1.1c0.2,0.3,0.5,0.4,0.9,0.4c0.4,0,0.7-0.1,0.9-0.4s0.3-0.6,0.3-1.1
		s-0.1-0.9-0.3-1.1C150.7,47.7,150.4,47.5,149.9,47.5z"/>
	<path class="st7" d="M155.8,47.8c-0.1-0.1-0.3-0.1-0.5-0.1c-0.3,0-0.5,0.1-0.7,0.4c-0.2,0.3-0.3,0.6-0.3,1.1v2.1h-1v-4.5h1v0.9l0,0
		c0.1-0.3,0.2-0.5,0.4-0.7s0.4-0.3,0.7-0.3c0.2,0,0.3,0,0.4,0.1L155.8,47.8L155.8,47.8z"/>
	<path class="st7" d="M159.9,51.2h-1v-0.7l0,0c-0.3,0.5-0.7,0.8-1.3,0.8c-0.4,0-0.8-0.1-1-0.3s-0.4-0.5-0.4-0.9
		c0-0.8,0.5-1.3,1.4-1.4l1.3-0.2c0-0.6-0.3-0.9-0.9-0.9c-0.5,0-1,0.2-1.4,0.5v-0.9c0.5-0.3,1-0.4,1.6-0.4c1.1,0,1.7,0.5,1.7,1.6
		L159.9,51.2L159.9,51.2z M158.9,49.1l-0.9,0.1c-0.3,0-0.5,0.1-0.6,0.2c-0.1,0.1-0.2,0.3-0.2,0.5s0.1,0.3,0.2,0.5
		c0.1,0.1,0.3,0.2,0.5,0.2c0.3,0,0.6-0.1,0.7-0.3c0.2-0.2,0.3-0.5,0.3-0.8V49.1z"/>
	<path class="st7" d="M163.4,51.2c-0.2,0.1-0.4,0.1-0.8,0.1c-0.8,0-1.3-0.4-1.3-1.2v-2.5h-0.7v-0.8h0.7v-1l1-0.3v1.3h1v0.8h-1v2.2
		c0,0.3,0,0.4,0.1,0.6c0.1,0.1,0.3,0.2,0.5,0.2s0.3,0,0.4-0.1v0.7H163.4z"/>
	<path class="st7" d="M164.7,45.9c-0.2,0-0.3-0.1-0.4-0.2c-0.1-0.1-0.2-0.2-0.2-0.4s0.1-0.3,0.2-0.4c0.1-0.1,0.3-0.2,0.4-0.2
		c0.2,0,0.3,0.1,0.4,0.2c0.1,0.1,0.2,0.2,0.2,0.4s-0.1,0.3-0.2,0.4C164.9,45.9,164.9,45.9,164.7,45.9z M165.2,51.2h-1v-4.4h1V51.2z"
		/>
	<path class="st7" d="M168.4,51.3c-0.7,0-1.2-0.2-1.6-0.6c-0.4-0.4-0.6-0.9-0.6-1.6c0-0.7,0.2-1.3,0.6-1.7c0.4-0.4,1-0.6,1.7-0.6
		s1.2,0.2,1.6,0.6c0.4,0.4,0.6,1,0.6,1.7s-0.2,1.3-0.6,1.7C169.7,51.1,169.1,51.3,168.4,51.3z M168.4,47.5c-0.4,0-0.7,0.1-0.9,0.4
		c-0.2,0.3-0.3,0.6-0.3,1.1s0.1,0.8,0.3,1.1s0.5,0.4,0.9,0.4s0.7-0.1,0.9-0.4s0.3-0.6,0.3-1.1s-0.1-0.9-0.3-1.1
		C169.2,47.7,168.9,47.5,168.4,47.5z"/>
	<path class="st7" d="M175.6,51.2h-1v-2.5c0-0.8-0.3-1.2-0.9-1.2c-0.3,0-0.5,0.1-0.7,0.3s-0.3,0.5-0.3,0.9v2.5h-1v-4.4h1v0.7l0,0
		c0.3-0.6,0.8-0.8,1.4-0.8c0.5,0,0.8,0.2,1.1,0.5s0.4,0.8,0.4,1.3V51.2z"/>
	<path class="st7" d="M182.6,51.2h-1v-0.7l0,0c-0.3,0.5-0.7,0.8-1.3,0.8c-0.4,0-0.8-0.1-1-0.3s-0.4-0.5-0.4-0.9
		c0-0.8,0.5-1.3,1.4-1.4l1.3-0.2c0-0.6-0.3-0.9-0.9-0.9c-0.5,0-1,0.2-1.4,0.5v-0.9c0.5-0.3,1-0.4,1.6-0.4c1.1,0,1.7,0.5,1.7,1.6
		L182.6,51.2L182.6,51.2z M181.6,49.1l-0.9,0.1c-0.3,0-0.5,0.1-0.6,0.2c-0.1,0.1-0.2,0.3-0.2,0.5s0.1,0.3,0.2,0.5s0.3,0.2,0.5,0.2
		c0.3,0,0.6-0.1,0.7-0.3c0.2-0.2,0.3-0.5,0.3-0.8V49.1z"/>
	<path class="st7" d="M187.7,51.2h-1v-2.5c0-0.8-0.3-1.2-0.9-1.2c-0.3,0-0.5,0.1-0.7,0.3s-0.3,0.5-0.3,0.9v2.5h-1v-4.4h1v0.7l0,0
		c0.3-0.6,0.8-0.8,1.4-0.8c0.5,0,0.8,0.2,1.1,0.5s0.4,0.8,0.4,1.3V51.2z"/>
	<path class="st7" d="M192.8,51.2h-1v-0.7l0,0c-0.3,0.6-0.8,0.8-1.5,0.8c-0.5,0-1-0.2-1.3-0.6c-0.3-0.4-0.5-0.9-0.5-1.6
		c0-0.7,0.2-1.3,0.5-1.7s0.8-0.7,1.4-0.7c0.6,0,1,0.2,1.3,0.7l0,0v-2.7h1v6.5H192.8z M191.9,49.2v-0.6c0-0.3-0.1-0.6-0.3-0.8
		s-0.5-0.3-0.8-0.3c-0.4,0-0.7,0.1-0.9,0.4c-0.2,0.3-0.3,0.7-0.3,1.1c0,0.4,0.1,0.8,0.3,1.1s0.5,0.4,0.8,0.4s0.6-0.1,0.8-0.4
		C191.8,49.9,191.9,49.6,191.9,49.2z"/>
	<path class="st7" d="M200.9,50.9c-0.5,0.2-1,0.4-1.7,0.4c-0.9,0-1.6-0.3-2.1-0.8c-0.5-0.6-0.8-1.3-0.8-2.2c0-1,0.3-1.8,0.9-2.4
		c0.6-0.6,1.4-0.9,2.3-0.9c0.6,0,1.1,0.1,1.5,0.3v1c-0.4-0.2-0.9-0.4-1.4-0.4c-0.7,0-1.2,0.2-1.6,0.6c-0.4,0.4-0.6,1-0.6,1.7
		s0.2,1.2,0.6,1.6s0.9,0.6,1.5,0.6s1.1-0.1,1.5-0.4L200.9,50.9L200.9,50.9z"/>
	<path class="st7" d="M203.9,51.3c-0.7,0-1.2-0.2-1.6-0.6c-0.4-0.4-0.6-0.9-0.6-1.6c0-0.7,0.2-1.3,0.6-1.7c0.4-0.4,1-0.6,1.7-0.6
		s1.2,0.2,1.6,0.6c0.4,0.4,0.6,1,0.6,1.7s-0.2,1.3-0.6,1.7C205.1,51.1,204.6,51.3,203.9,51.3z M203.9,47.5c-0.4,0-0.7,0.1-0.9,0.4
		c-0.2,0.3-0.3,0.6-0.3,1.1s0.1,0.8,0.3,1.1s0.5,0.4,0.9,0.4s0.7-0.1,0.9-0.4s0.3-0.6,0.3-1.1s-0.1-0.9-0.3-1.1
		C204.6,47.7,204.3,47.5,203.9,47.5z"/>
	<path class="st7" d="M211.1,51.2h-1v-2.5c0-0.8-0.3-1.2-0.9-1.2c-0.3,0-0.5,0.1-0.7,0.3s-0.3,0.5-0.3,0.9v2.5h-1v-4.4h1v0.7l0,0
		c0.3-0.6,0.8-0.8,1.4-0.8c0.5,0,0.8,0.2,1.1,0.5s0.4,0.8,0.4,1.3V51.2z"/>
	<path class="st7" d="M214.6,51.2c-0.2,0.1-0.4,0.1-0.8,0.1c-0.8,0-1.3-0.4-1.3-1.2v-2.5h-0.7v-0.8h0.7v-1l1-0.3v1.3h1v0.8h-1v2.2
		c0,0.3,0,0.4,0.1,0.6c0.1,0.1,0.3,0.2,0.5,0.2s0.3,0,0.4-0.1v0.7H214.6z"/>
	<path class="st7" d="M219.1,49.3h-3c0,0.4,0.1,0.7,0.4,0.9s0.6,0.3,1,0.3c0.5,0,0.9-0.1,1.3-0.4v0.8c-0.4,0.3-0.9,0.4-1.6,0.4
		c-0.6,0-1.1-0.2-1.5-0.6s-0.5-1-0.5-1.7s0.2-1.2,0.6-1.7s0.9-0.6,1.5-0.6s1.1,0.2,1.4,0.6s0.5,0.9,0.5,1.6L219.1,49.3L219.1,49.3z
		 M218.1,48.6c0-0.4-0.1-0.6-0.3-0.8s-0.4-0.3-0.7-0.3s-0.5,0.1-0.7,0.3s-0.3,0.5-0.4,0.8H218.1z"/>
	<path class="st7" d="M223.9,51.2h-1v-2.5c0-0.8-0.3-1.2-0.9-1.2c-0.3,0-0.5,0.1-0.7,0.3s-0.3,0.5-0.3,0.9v2.5h-1v-4.4h1v0.7l0,0
		c0.3-0.6,0.8-0.8,1.4-0.8c0.5,0,0.8,0.2,1.1,0.5s0.4,0.8,0.4,1.3V51.2z"/>
	<path class="st7" d="M227.4,51.2c-0.2,0.1-0.4,0.1-0.8,0.1c-0.8,0-1.3-0.4-1.3-1.2v-2.5h-0.7v-0.8h0.7v-1l1-0.3v1.3h1v0.8h-1v2.2
		c0,0.3,0,0.4,0.1,0.6c0.1,0.1,0.3,0.2,0.5,0.2s0.3,0,0.4-0.1v0.7H227.4z"/>
</g>
</svg>
