<?xml version="1.0" encoding="utf-8"?>
<!-- Generator: Adobe Illustrator 21.0.2, SVG Export Plug-In . SVG Version: 6.00 Build 0)  -->
<svg version="1.1" id="Layer_1" xmlns="http://www.w3.org/2000/svg" xmlns:xlink="http://www.w3.org/1999/xlink" x="0px" y="0px"
	 viewBox="0 0 753 423" style="enable-background:new 0 0 753 423;" xml:space="preserve">
<style type="text/css">
	.st0{fill:#010101;}
	.st1{fill:#FFFFFF;}
	.st2{fill:#2E3B44;}
	.st3{fill:url(#SVGID_1_);}
	.st4{fill:#074969;}
</style>
<g>
	<path class="st0" d="M708.7,414H46.2c-18.6,0-33.9-15.2-33.9-33.9V43.4c0-18.6,15.2-33.9,33.9-33.9h662.5
		c18.6,0,33.9,15.2,33.9,33.9v336.7C742.6,398.8,727.3,414,708.7,414z"/>
	<rect x="36.4" y="131" class="st1" width="678.1" height="256"/>
	<g>
		<path class="st2" d="M166.7,377.6c0-0.5-0.1-1.1-0.1-1.6c0-26,0-52,0-78.1c0-1.3,0.3-1.8,1.6-2.3c17.2-6.8,27.5-19.2,29.8-37.6
			c2.8-21.8-9.5-41.2-30.2-48.8c-0.8-0.3-1.3-0.5-1.3-1.6c0-19.3,0-38.5,0-57.8c0-0.1,0-0.2,0.1-0.4c0.9,0.4,1.4,1.1,2.1,1.7
			c10.2,9.2,21.8,15.7,35.4,18.4c13.5,2.6,26.7,1.5,39.5-3.6c1.4-0.5,1.6-0.4,1.8,1.1c2.4,15.6,3.6,31.4,3.1,47.2
			c-1.5,49-16.7,92.9-47.8,131.1c-9.9,12.2-21,23.1-33.8,32.3C166.9,377.6,166.8,377.6,166.7,377.6z"/>
		<linearGradient id="SVGID_1_" gradientUnits="userSpaceOnUse" x1="68.1328" y1="333.0825" x2="165.6837" y2="164.1194">
			<stop  offset="0" style="stop-color:#074969"/>
			<stop  offset="0.2313" style="stop-color:#084B6C"/>
			<stop  offset="0.471" style="stop-color:#0C5475"/>
			<stop  offset="0.7144" style="stop-color:#136285"/>
			<stop  offset="0.9592" style="stop-color:#17789F"/>
			<stop  offset="1" style="stop-color:#187DA5"/>
		</linearGradient>
		<path class="st3" d="M183.1,243.3c-3.7-12.4-12.5-19.7-25.4-21.5c-9.4-1.4-18,1-25.6,6.5c-8.6,6.2-12,14.9-12.2,25.2
			c-0.1,9.7,0,19.4,0,29.1c0,0.6,0.2,1.2-0.1,1.7c-0.3,0.1-0.4-0.1-0.6-0.3c-10-11.1-13.9-24.1-11.6-38.7
			c2.9-18.2,13.4-30.4,30.8-36.4c1.1-0.4,1.5-0.9,1.5-2c0-18.7,0-37.3,0-56c0-0.5,0-0.9,0-1.6c-23.1,21.2-49.1,27.2-78.6,16.3
			c-1.5,9.7-2.6,19.4-3.1,29.2c-0.1,0-0.2,0-0.3,0c0,0.7,0,1.3,0,2c0,0.7,0,1.3,0,2c0,0.9,0,1.8,0,2.6c0,4.2,0,8.3,0,12.5
			c0,0.9,0,1.8,0,2.6c0,0.8,0,1.5,0,2.3c0,0.5,0,1.1,0,1.6l0.1,0c0,0,0,0,0,0c0,5.6,0.4,11.2,1.1,16.8c2.1,15.3,5.5,30.3,10.9,44.8
			c5,13.6,11.4,26.5,19.2,38.7c5.7,8.9,12.1,17.3,19.1,25.1c3.2,3.5,6.3,7,9.8,10.2c4.5,4.2,9.2,8.1,13.9,12c4.1,3.4,8.4,6.7,13,9.6
			c0.2,0,0.4,0,0.7,0c0-41.1,0-82.1,0-123.2c0-1.2,0.1-2.4,0.4-3.6c0.4-2,1.5-3.7,3.7-4.2c2.3-0.5,4.7-0.6,6.5,1.2
			c1.6,1.6,1.6,3.6,1.1,5.7c-0.5,2.3-2.2,3.3-4.3,3.8c-0.7,0.2-1.5,0.3-2.3,0.3c-0.9,0-1.1,0.3-1.1,1.1c0,6.9,0,13.7,0,20.6
			c0,1,0.3,1.3,1.3,1.3c3.6,0.1,7.2,0,10.8-0.6c6-1,11.4-3.2,15.5-7.9C184.9,263.6,186.2,253.7,183.1,243.3z"/>
		<path class="st4" d="M606.6,210.5c-11.9,4.4-18.6,16.6-16.5,29.9c1.7,10.7,8,18.1,18.3,21.1c10.7,3.2,20.3,0.6,27.9-7.8
			c2.2-2.5,3.7-5.4,4.6-8.7c-4.2,0-8.1,0-12.1,0c-0.7,0-0.9,0.4-1.2,0.9c-3.2,4.6-7.8,6.3-13.2,5.5c-5.9-0.8-9.4-4.6-11.6-10.1
			c0.8,0,1.4,0,2,0c11.9,0,23.7,0,35.6,0c1.6,0,2-0.6,2-1.9c0.1-2.8,0.2-5.6-0.2-8.4C639.8,216.2,624.2,203.9,606.6,210.5z
			 M602.6,231.3c0.7-6.1,6.9-11.3,13.4-11.4c6.5-0.1,12.6,5,13.6,11.4C620.5,231.3,611.6,231.3,602.6,231.3z"/>
		<path class="st4" d="M392.9,260c2-1.1,3.8-2.5,5.8-4.2c0,1.6,0.1,2.8,0,4c-0.1,1,0.3,1.2,1.2,1.2c2.9-0.1,5.8-0.1,8.7,0
			c1.2,0,1.5-0.3,1.5-1.5c-0.1-7.8,0-15.6,0-23.4c0-8.1,0-16.1,0-24.2c0-1.4-0.4-1.7-1.7-1.6c-2.7,0.1-5.5,0.1-8.2,0
			c-1.3,0-1.6,0.4-1.5,1.6c0.1,1.2,0,2.3,0,3.8c-0.6-0.6-1-0.9-1.3-1.2c-7.5-6.7-19.1-7.8-27.7-2.6c-13.6,8.1-17.4,27.6-8,40.3
			C369.4,262.5,381.9,265.6,392.9,260z M369.5,240.3c-1.8-7,0.7-14.3,6.3-18.1c9-6.1,21.8,0.2,22.6,11.2c0.1,0.8,0.1,1.5,0.1,2.3
			c0.1,7.4-4.8,14-11.3,15.5C379,252.9,371.6,248.4,369.5,240.3z"/>
		<path class="st4" d="M524.6,259.2c-0.1-11.5,0-23.1,0-34.6c0-4.3,0-8.6,0-12.8c0-1.1-0.2-1.4-1.4-1.4c-2.9,0.1-5.7,0.1-8.6,0
			c-1,0-1.5,0.2-1.4,1.3c0.1,1.2,0,2.5,0,4.1c-0.6-0.5-0.8-0.8-1.1-1c-7.9-7.2-20.1-8.2-29.1-2.2c-13.9,9.3-15,27.7-7.4,38.9
			c6.3,9.2,16,13,26.5,10.5c4.2-1,7.7-3.1,11.1-6.3c0,1.6,0.1,2.9,0,4.2c-0.1,0.9,0.3,1.2,1.2,1.2c2.7-0.1,5.5-0.1,8.2,0
			C524.2,261.1,524.6,260.7,524.6,259.2z M513,235.5c0,8-4.7,14.2-11.8,15.7c-8.4,1.8-16.8-4.4-17.6-13c-0.5-5.3,0.5-10.1,4.3-14.1
			c4.2-4.2,9.2-5.4,14.8-3.6c5.5,1.7,8.6,5.8,9.9,11.3C512.9,233.1,513.1,234.4,513,235.5z"/>
		<path class="st4" d="M700.7,212.1c0-0.3,0-0.6,0-0.8c0.1-0.7-0.3-0.9-0.9-0.9c-3,0-6,0-9.1,0c-0.9,0-1.2,0.3-1.1,1.1
			c0.1,1.3,0,2.7,0,4.3c-0.6-0.6-1-0.9-1.4-1.2c-7.6-6.7-19.2-7.7-27.9-2.5c-13.4,8.1-17.2,27.4-7.9,40c8.4,11.5,23.2,14.1,34.2,6.1
			c0.9-0.7,1.8-1.4,2.9-2.3c0,1.6,0.1,2.8,0,4c-0.1,1,0.3,1.2,1.2,1.2c2.7-0.1,5.5-0.1,8.2,0c1.3,0.1,1.7-0.3,1.7-1.7
			C700.7,243.6,700.7,227.8,700.7,212.1z M685,247c-4.1,4.3-9.2,5.5-14.7,3.8c-5.6-1.7-8.8-5.8-10.1-11.5c-0.1-0.6-0.2-1.2-0.3-1.8
			c-0.1-0.7,0-1.3,0-2c0-7.5,4.3-13.6,10.9-15.3c8.8-2.3,17.6,3.9,18.4,12.9C689.7,238.4,688.8,243.2,685,247z"/>
		<path class="st4" d="M334.5,235c9.6-1.4,16.8-6.4,18.1-17.1c0.7-5.8,0.4-11.4-3.5-16.2c-4.3-5.3-10.3-7.3-16.8-7.8
			c-7-0.6-14-0.1-21-0.3c-1.3,0-1.6,0.3-1.6,1.6c0.1,10.6,0,21.3,0,31.9c0,10.8,0,21.5,0,32.3c0,1.4,0.4,1.7,1.7,1.7
			c3.1-0.1,6.3-0.1,9.4,0c1.2,0,1.6-0.3,1.6-1.5c-0.1-7.5,0-15-0.1-22.5c0-1.3,0.3-1.6,1.6-1.5C327.4,235.5,331,235.5,334.5,235z
			 M323.5,223.7c-1,0-1.2-0.4-1.2-1.2c0-2.7,0-5.4,0-8.1c0-2.6,0-5.3,0-7.9c0-0.6-0.1-1.2,0.8-1.2c3.4,0.1,6.8-0.2,10.1,0.6
			c5.6,1.4,8.4,6.2,6.6,11.7c-1.4,4.2-4.8,5.3-8.7,5.9C328.6,223.8,326,223.6,323.5,223.7z"/>
		<path class="st4" d="M450.4,225.9c0.9,2.3,1.3,4.7,1.3,7.2c0,8.8,0,17.7,0,26.5c0,1,0.2,1.4,1.3,1.4c3.1-0.1,6.3-0.1,9.4,0
			c1.4,0,1.6-0.4,1.6-1.7c0-9.3,0-18.7,0-28c0-2.1-0.1-4.2-0.5-6.2c-1.6-10-9.1-16.5-19.2-16.4c-5.2,0-9.7,2-13.8,5.9
			c0-1.2-0.1-2,0-2.8c0.1-1.1-0.2-1.4-1.4-1.4c-3,0.1-5.9,0.1-8.9,0c-0.9,0-1.2,0.3-1.2,1.2c0,16.1,0,32.2,0,48.2
			c0,0.9,0.2,1.2,1.2,1.2c3.1-0.1,6.1-0.1,9.2,0c1.4,0,1.9-0.3,1.9-1.8c-0.1-8.5-0.1-16.9,0-25.4c0-2.6,0.3-5.1,1.2-7.6
			c1.5-4.1,4.7-6.4,9.2-6.4C445.8,219.8,448.8,221.9,450.4,225.9z"/>
		<path class="st4" d="M571.8,244.4c-1,0-1.5,0.3-2.1,1.2c-3.2,5-8.9,7-14.6,5.3c-10.1-3-13.4-15.4-8.7-23.6
			c5.5-9.5,17.5-9.9,23.8-0.8c0.4,0.6,0.9,0.6,1.5,0.6c3.6,0,7.2-0.1,10.9,0c1.4,0,1.6-0.3,1.1-1.6c-4.3-11.7-16.5-18.8-29.8-16.4
			c-16.9,3-26.6,21-20.1,36.9c5.2,12.6,18.9,19.4,32.1,15.7c9-2.5,15-8.2,18-17.3C579.8,244.4,575.8,244.5,571.8,244.4z"/>
		<path class="st2" d="M490,294.2c-12.4,2.1-19.6,14.2-16.1,26.4c2.9,10,13.6,16.4,23.8,14.1c7.3-1.7,12.3-6.1,15.1-13.3
			c-1.4,0-2.5,0.1-3.5,0c-1.4-0.2-2.1,0.4-2.8,1.6c-3.5,6-9.7,8.7-16.2,7.2c-6.5-1.5-11.3-7-11.9-13.7c0.6,0,1.2,0,1.8,0
			c10.8,0,21.5,0,32.3,0c0.8,0,1.4,0.1,1.5-1.1C514.7,302.8,504,291.8,490,294.2z M507.7,311.8c-9.3,0-18.6,0-27.8,0
			c-1.2,0-1.4-0.4-1.1-1.4c1.7-7.3,8.2-12.2,15.7-11.9c7.2,0.3,13.1,5.7,14.2,13.2C508.3,311.7,508,311.8,507.7,311.8z"/>
		<path class="st2" d="M464.3,308.4c-2.8-2.6-6.3-3.9-9.9-4.9c-2.6-0.8-5.3-1.5-7.6-3c-2.8-1.8-4.2-4.9-3.6-8
			c0.8-4.1,4.3-7.1,8.5-7.5c4.6-0.3,8.2,2,9.9,6.3c0.4,1.1,0,2.7,1.2,3.1c1,0.4,2.4,0,3.6,0.1c1.1,0.1,1.4-0.3,1.2-1.3
			c-0.1-0.5-0.1-1.1-0.2-1.6c-1.4-7.1-7.2-11.6-14.9-11.6c-1-0.1-2.2,0.1-3.3,0.3c-5.5,1.1-10.5,5.9-11.1,11.4
			c-0.7,6,0.6,10.9,7.2,14.3c1.3,0.7,2.7,1.2,4.1,1.7c2.5,0.8,5.2,1.4,7.6,2.6c2.4,1.2,4.6,2.6,5.7,5.2c2.4,5.4-0.3,11.8-5.9,13.9
			c-6.3,2.3-12.4-0.6-14.3-6.9c-0.3-1.2,0-2.8-1.1-3.4c-1-0.5-2.5-0.1-3.7-0.1c-0.1,0-0.2,0-0.3,0c-0.7-0.1-1,0.3-0.9,1
			c0.2,2.1,0.5,4.2,1.4,6.2c4.4,9.4,17.7,11.9,25.8,4.8C470.3,325.1,470.7,314.3,464.3,308.4z"/>
		<path class="st2" d="M411.6,293.8c-11.6-0.2-20.3,9.1-20.7,19.3c-0.5,11.8,8,21.4,19.5,21.9c11.1,0.5,20.8-8.1,21.5-18.5
			C432.9,303.2,422.9,293.8,411.6,293.8z M411.5,330.4c-8.7,0-15.4-6.9-15.4-16c0-9,6.8-15.9,15.4-15.9c8.7,0,15.3,6.9,15.3,15.9
			C426.7,323.5,420.1,330.4,411.5,330.4z"/>
		<path class="st2" d="M361,311.1c-0.1-4.5-1.4-8.7-4.4-12.3c-5-5.9-18.4-7.8-24.8,0.6c0-0.6-0.1-0.8-0.1-1.1
			c-0.1-3.7-0.1-3.6-3.7-3.7c-1.2,0-1.5,0.3-1.5,1.5c0.1,11.4,0,22.8,0,34.2c0,3.7,0,3.7,3.8,3.7c1.2,0,1.5-0.3,1.5-1.5
			c-0.1-5.9,0-11.7,0-17.6c0-2.2-0.1-4.5,0.4-6.7c1-4.7,3.3-8.3,8.2-9.4c5-1.1,9.6-0.4,12.9,4.1c2.1,2.8,2.6,6.1,2.6,9.5
			c0,5.9,0,11.9,0,17.8c0,4,0,4,4.1,3.9c0.8,0,1.1-0.2,1.1-1.1C361,325.7,361.1,318.4,361,311.1z"/>
		<path class="st2" d="M556.2,322.6c-0.8,0-1.3,0.2-1.9,0.9c-4.1,5.7-9.8,7.7-16.6,6.6c-6.7-1.2-12-7-12.7-13.6
			c-0.8-7.3,3-13.9,9.5-16.8c6.4-2.8,14.2-1.2,18.4,4.4c1.7,2.2,3.4,2.7,5.9,2.6c1.3-0.1,1.7-0.2,0.9-1.5
			c-4.4-7.8-11-11.6-20.1-11.3c-13.1,0.5-22.6,12.9-19.4,25.6c4,15.5,23.2,20.2,34.6,10.6c2.4-2,4.2-4.4,5.4-7.3
			c-0.2-0.1-0.3-0.2-0.4-0.2C558.8,322.6,557.5,322.7,556.2,322.6z"/>
		<path class="st2" d="M386.8,294.7c-2.5,0.1-5,0-7.6,0c-0.5,0-1.1,0.2-1.1-0.7c-0.1-4.3,1.2-8,6.7-9c0.8-0.1,1.6-0.2,2.4-0.3
			c0.3,0,0.8,0.1,0.8-0.4c0-1.3,0-2.5,0-3.8c0-0.4-0.3-0.4-0.6-0.4c-4.8-1-11.2,2.3-13.2,7c-0.9,2.1-1.4,4.3-1.3,6.5
			c0,0.9-0.2,1.1-1.1,1.1c-1.4-0.1-2.7,0-4.1,0c-0.5,0-1,0-1,0.8c0,1.1,0,2.2,0,3.3c0,0.7,0.5,0.7,1,0.7c1.3,0,2.6,0.1,4,0
			c1.1-0.1,1.3,0.3,1.2,1.3c0,5.3,0,10.6,0,16c0,4.7,0,9.4,0,14.2c0,3.2,0,3.1,3.2,3.3c1.7,0.1,2-0.5,2-2.1
			c-0.1-10.4,0-20.7-0.1-31.1c0-1.3,0.3-1.6,1.5-1.5c1.7,0.1,3.4,0,5.1,0c3.4,0,3.4,0,3.3-3.5C388.1,295,387.8,294.6,386.8,294.7z"
			/>
		<path class="st2" d="M316.6,285c0-4.1,0-4-4.1-4c-1.2,0-1.5,0.3-1.4,1.5c0,8.3,0,16.7,0,25c0,7.6,0,15.2,0,22.7c0,3.9,0,3.9,3.9,4
			c1.4,0,1.7-0.3,1.7-1.7C316.5,316.6,316.6,300.8,316.6,285z"/>
	</g>
	<g>
		<path class="st1" d="M38.8,46.2c3.2-0.5,7.4-1,12.8-1c6.6,0,11.4,1.5,14.4,4.2c2.8,2.4,4.5,6.1,4.5,10.5c0,4.6-1.4,8.2-4,10.8
			c-3.5,3.7-9.2,5.5-15.7,5.5c-2,0-3.8-0.1-5.3-0.4V96h-6.6V46.2z M45.4,70.5c1.5,0.4,3.3,0.5,5.5,0.5c8,0,12.9-3.8,12.9-10.8
			c0-6.7-4.8-9.9-12.1-9.9c-2.9,0-5.1,0.2-6.3,0.5V70.5z"/>
		<path class="st1" d="M115.4,94.4c-2.4,1.2-7.3,2.4-13.6,2.4c-14.5,0-25.4-9-25.4-25.5c0-15.8,10.9-26.5,26.9-26.5
			c6.4,0,10.5,1.3,12.2,2.2l-1.6,5.3c-2.5-1.2-6.1-2.1-10.4-2.1c-12.1,0-20.1,7.6-20.1,20.8c0,12.3,7.3,20.3,19.8,20.3
			c4,0,8.2-0.8,10.8-2.1L115.4,94.4z"/>
		<path class="st1" d="M130.4,45.6V96h-6.6V45.6H130.4z"/>
		<path class="st1" d="M158.2,46.3c4-0.6,8.9-1,14.1-1c9.5,0,16.3,2.2,20.9,6.3c4.6,4.1,7.3,9.9,7.3,18.1c0,8.2-2.6,15-7.4,19.6
			c-4.8,4.7-12.8,7.3-22.8,7.3c-4.7,0-8.7-0.2-12.1-0.6V46.3z M164.8,90.9c1.7,0.3,4.1,0.4,6.7,0.4c14.2,0,21.9-7.8,21.9-21.4
			c0.1-11.9-6.8-19.4-20.9-19.4c-3.4,0-6,0.3-7.8,0.7V90.9z"/>
		<path class="st1" d="M208.1,88.1c3,1.8,7.3,3.3,11.9,3.3c6.8,0,10.8-3.5,10.8-8.6c0-4.7-2.8-7.4-9.7-10
			c-8.4-2.9-13.6-7.2-13.6-14.3c0-7.9,6.6-13.7,16.7-13.7c5.3,0,9.1,1.2,11.4,2.5l-1.8,5.3c-1.7-0.9-5.1-2.4-9.8-2.4
			c-7,0-9.7,4.1-9.7,7.6c0,4.7,3.1,7,10.2,9.7c8.7,3.3,13.1,7.4,13.1,14.8c0,7.8-5.9,14.5-18,14.5c-5,0-10.4-1.4-13.1-3.2
			L208.1,88.1z"/>
		<path class="st1" d="M245.8,88.1c3,1.8,7.3,3.3,11.9,3.3c6.8,0,10.8-3.5,10.8-8.6c0-4.7-2.8-7.4-9.7-10
			c-8.4-2.9-13.6-7.2-13.6-14.3c0-7.9,6.6-13.7,16.7-13.7c5.3,0,9.1,1.2,11.4,2.5l-1.8,5.3c-1.7-0.9-5.1-2.4-9.8-2.4
			c-7,0-9.7,4.1-9.7,7.6c0,4.7,3.1,7,10.2,9.7c8.7,3.3,13.1,7.4,13.1,14.8c0,7.8-5.9,14.5-18,14.5c-5,0-10.4-1.4-13.1-3.2
			L245.8,88.1z"/>
		<path class="st1" d="M336.6,94.4c-2.4,1.2-7.3,2.4-13.6,2.4c-14.5,0-25.4-9-25.4-25.5c0-15.8,10.9-26.5,26.9-26.5
			c6.4,0,10.5,1.3,12.2,2.2l-1.6,5.3c-2.5-1.2-6.1-2.1-10.4-2.1c-12.1,0-20.1,7.6-20.1,20.8c0,12.3,7.3,20.3,19.8,20.3
			c4,0,8.2-0.8,10.8-2.1L336.6,94.4z"/>
		<path class="st1" d="M371.5,72.4h-20v18.2h22.3V96h-29V45.6h27.8v5.5h-21.2V67h20V72.4z"/>
		<path class="st1" d="M382.5,46.3c3.4-0.7,8.2-1,12.8-1c7.1,0,11.7,1.3,14.9,4.1c2.6,2.2,4,5.7,4,9.6c0,6.7-4.3,11.1-9.7,12.9V72
			c4,1.3,6.3,4.9,7.6,10.2c1.7,7,2.9,11.9,4,13.8h-6.9c-0.8-1.4-2-5.8-3.4-12c-1.5-7-4.3-9.6-10.3-9.8h-6.3V96h-6.6V46.3z
			 M389.1,69.2h6.8c7.1,0,11.6-3.8,11.6-9.6c0-6.5-4.8-9.4-11.8-9.4c-3.2,0-5.5,0.3-6.6,0.6V69.2z"/>
		<path class="st1" d="M434,51.1h-15.7v-5.5h38.1v5.5h-15.7V96H434V51.1z"/>
		<path class="st1" d="M468.9,45.6V96h-6.6V45.6H468.9z"/>
		<path class="st1" d="M480.5,45.6h27.7v5.5h-21.1v16.8h19.5v5.4h-19.5V96h-6.6V45.6z"/>
		<path class="st1" d="M524.3,45.6V96h-6.6V45.6H524.3z"/>
		<path class="st1" d="M562.6,72.4h-20v18.2h22.3V96h-29V45.6h27.8v5.5h-21.2V67h20V72.4z"/>
		<path class="st1" d="M573.5,46.3c4-0.6,8.9-1,14.1-1c9.5,0,16.3,2.2,20.9,6.3c4.6,4.1,7.3,9.9,7.3,18.1c0,8.2-2.6,15-7.4,19.6
			c-4.8,4.7-12.8,7.3-22.8,7.3c-4.7,0-8.7-0.2-12.1-0.6V46.3z M580.2,90.9c1.7,0.3,4.1,0.4,6.7,0.4c14.2,0,21.9-7.8,21.9-21.4
			C608.9,58,602,50.4,588,50.4c-3.4,0-6,0.3-7.8,0.7V90.9z"/>
		<path class="st1" d="M640.6,46.3c2.9-0.6,7.5-1,12.1-1c6.6,0,10.9,1.1,14.1,3.7c2.7,1.9,4.3,4.9,4.3,8.9c0,4.9-3.3,9.1-8.7,11.1
			V69c4.9,1.2,10.6,5.2,10.6,12.6c0,4.3-1.8,7.6-4.4,10.1c-3.6,3.2-9.4,4.7-17.8,4.7c-4.6,0-8.1-0.3-10.3-0.6V46.3z M647.2,66.9h6
			c7,0,11.2-3.6,11.2-8.5c0-5.9-4.6-8.2-11.3-8.2c-3.1,0-4.8,0.2-5.9,0.4V66.9z M647.2,91.1c1.3,0.2,3.2,0.3,5.6,0.3
			c6.9,0,13.2-2.5,13.2-9.8c0-6.9-6-9.7-13.3-9.7h-5.5V91.1z"/>
		<path class="st1" d="M692.3,96V74.6l-16.3-29h7.6l7.3,13.9c2,3.8,3.5,6.9,5.1,10.4h0.2c1.5-3.3,3.2-6.6,5.2-10.4l7.4-13.9h7.6
			l-17.3,29V96H692.3z"/>
	</g>
</g>
</svg>
