<?xml version="1.0" encoding="utf-8"?>
<!-- Generator: Adobe Illustrator 19.2.1, SVG Export Plug-In . SVG Version: 6.00 Build 0)  -->
<svg version="1.1" id="Layer_1" xmlns="http://www.w3.org/2000/svg" xmlns:xlink="http://www.w3.org/1999/xlink" x="0px" y="0px"
	 viewBox="0 0 222.4 61" style="enable-background:new 0 0 222.4 61;" xml:space="preserve">
<style type="text/css">
	.st0{fill:#2C4F71;}
	.st1{fill:#00AEEF;}
</style>
<g id="XMLID_3371_">
	<g id="XMLID_3373_">
		<path id="XMLID_27_" class="st0" d="M21.8,11c-2.8,0-5.1,0.6-6.9,1.7c-1.8,1.1-2.7,2.9-2.7,5.2s0.9,4.1,2.7,5.3
			c1.8,1.2,5.6,2.5,11.4,3.9c5.8,1.4,10.2,3.4,13.2,5.9c3,2.6,4.4,6.3,4.4,11.3s-1.9,9-5.6,12.1c-3.7,3.1-8.7,4.6-14.7,4.6
			C14.8,61,6.9,58,0,51.8l6-7.2c5.7,5,11.7,7.5,17.9,7.5c3.1,0,5.5-0.7,7.4-2c1.8-1.3,2.7-3.1,2.7-5.3c0-2.2-0.9-3.9-2.6-5.1
			c-1.7-1.2-4.7-2.3-8.8-3.3c-4.2-1-7.3-1.9-9.5-2.8c-2.2-0.8-4.1-1.9-5.8-3.3c-3.4-2.5-5-6.5-5-11.7c0-5.3,1.9-9.3,5.7-12.2
			c3.8-2.8,8.6-4.3,14.2-4.3c3.6,0,7.2,0.6,10.8,1.8c3.6,1.2,6.7,2.9,9.3,5l-5.1,7.2c-1.7-1.5-4-2.8-6.8-3.7
			C27.5,11.5,24.6,11,21.8,11z"/>
		<path id="XMLID_25_" class="st0" d="M58.8,60.4h-9.1V17.1h9.1V60.4z"/>
		<path id="XMLID_23_" class="st0" d="M76.2,60.4h-9.1V0h9.1V60.4z"/>
		<path id="XMLID_21_" class="st0" d="M93.6,60.4h-9.1V17.1h9.1V60.4z"/>
		<path id="XMLID_19_" class="st0" d="M121.1,61c-6,0-11.2-2-15.5-6.1c-4.3-4.1-6.5-9.4-6.5-16.1c0-6.6,2.3-12,6.8-16.1
			c4.5-4.1,10-6.2,16.6-6.2c6.5,0,12,2.3,16.5,6.8l-5.4,6.6c-3.7-3.3-7.5-4.9-11.3-4.9c-3.8,0-7.1,1.3-9.9,3.8
			c-2.8,2.5-4.2,5.8-4.2,9.8c0,4,1.4,7.4,4.1,10.1c2.8,2.8,6.2,4.1,10.2,4.1c4,0,7.9-1.8,11.4-5.5l5.4,5.9
			C134.1,58.4,128,61,121.1,61z"/>
		<path id="XMLID_17_" class="st0" d="M174.2,40.5V17.1h9.1v43.3h-9.1v-7.9c-1.5,2.7-3.5,4.7-6.1,6.3c-2.6,1.5-5.4,2.3-8.3,2.3
			c-4.9,0-8.8-1.5-11.8-4.5s-4.5-7.3-4.5-12.9V17.1h9.1v23.8c0,8,3.3,12,9.9,12c3.1,0,5.9-1,8.2-3.1C173,47.6,174.2,44.5,174.2,40.5
			z"/>
		<path id="XMLID_15_" class="st0" d="M222.4,47.4c0,4.1-1.5,7.4-4.5,9.9c-3,2.5-6.8,3.7-11.5,3.7c-3.1,0-6.4-0.6-9.8-1.7
			c-3.4-1.1-6.4-2.7-9-4.8l4.4-7.1c5,3.8,9.9,5.7,14.6,5.7c2.1,0,3.7-0.5,4.9-1.4c1.2-0.9,1.8-2.2,1.8-3.6c0-2.2-2.9-4.1-8.6-5.9
			c-0.4-0.2-0.8-0.3-1-0.3c-9-2.4-13.5-6.5-13.5-12.2c0-4,1.6-7.2,4.7-9.6c3.1-2.4,7.2-3.6,12.2-3.6c5,0,9.7,1.5,14.2,4.4l-3.4,6.8
			c-3.5-2.3-7.3-3.5-11.5-3.5c-2.2,0-3.9,0.4-5.3,1.2c-1.4,0.8-2,2-2,3.5c0,1.4,0.7,2.4,2.1,3.1c1,0.5,2.3,1,4.1,1.4
			c1.8,0.4,3.3,0.9,4.7,1.3c1.4,0.4,2.7,0.9,3.9,1.5c1.3,0.5,2.6,1.3,4.1,2.3C220.9,40.3,222.4,43.3,222.4,47.4z"/>
	</g>
	<polygon id="XMLID_3372_" class="st1" points="35.4,0 58.8,0 58.8,14.8 	"/>
</g>
</svg>
